# Open Brown and Gold Voxel Book - voxel book model
mtllib open_book.mtl
o open_book
usemtl open_book_material
v -1.48500 0.07000 -0.82500
v -0.03500 0.07000 -0.82500
v -0.03500 0.19000 -0.82500
v -1.48500 0.19000 -0.82500
v -1.48500 0.07000 0.82500
v -0.03500 0.07000 0.82500
v -0.03500 0.19000 0.82500
v -1.48500 0.19000 0.82500
v 0.03500 0.07000 -0.82500
v 1.48500 0.07000 -0.82500
v 1.48500 0.19000 -0.82500
v 0.03500 0.19000 -0.82500
v 0.03500 0.07000 0.82500
v 1.48500 0.07000 0.82500
v 1.48500 0.19000 0.82500
v 0.03500 0.19000 0.82500
v -1.50000 0.17000 -0.84000
v -0.02000 0.17000 -0.84000
v -0.02000 0.23000 -0.84000
v -1.50000 0.23000 -0.84000
v -1.50000 0.17000 0.84000
v -0.02000 0.17000 0.84000
v -0.02000 0.23000 0.84000
v -1.50000 0.23000 0.84000
v 0.02000 0.17000 -0.84000
v 1.50000 0.17000 -0.84000
v 1.50000 0.23000 -0.84000
v 0.02000 0.23000 -0.84000
v 0.02000 0.17000 0.84000
v 1.50000 0.17000 0.84000
v 1.50000 0.23000 0.84000
v 0.02000 0.23000 0.84000
v -1.20000 0.24000 -1.10500
v -0.26000 0.24000 -1.10500
v -0.26000 0.44000 -1.10500
v -1.20000 0.44000 -1.10500
v -1.20000 0.24000 0.24500
v -0.26000 0.24000 0.24500
v -0.26000 0.44000 0.24500
v -1.20000 0.44000 0.24500
v 0.26000 0.24000 -1.10500
v 1.20000 0.24000 -1.10500
v 1.20000 0.44000 -1.10500
v 0.26000 0.44000 -1.10500
v 0.26000 0.24000 0.24500
v 1.20000 0.24000 0.24500
v 1.20000 0.44000 0.24500
v 0.26000 0.44000 0.24500
v -1.20000 0.24000 -0.97500
v -0.26000 0.24000 -0.97500
v -0.26000 0.44000 -0.97500
v -1.20000 0.44000 -0.97500
v -1.20000 0.24000 0.37500
v -0.26000 0.24000 0.37500
v -0.26000 0.44000 0.37500
v -1.20000 0.44000 0.37500
v 0.26000 0.24000 -0.97500
v 1.20000 0.24000 -0.97500
v 1.20000 0.44000 -0.97500
v 0.26000 0.44000 -0.97500
v 0.26000 0.24000 0.37500
v 1.20000 0.24000 0.37500
v 1.20000 0.44000 0.37500
v 0.26000 0.44000 0.37500
v -1.20000 0.24000 -0.84500
v -0.26000 0.24000 -0.84500
v -0.26000 0.44000 -0.84500
v -1.20000 0.44000 -0.84500
v -1.20000 0.24000 0.50500
v -0.26000 0.24000 0.50500
v -0.26000 0.44000 0.50500
v -1.20000 0.44000 0.50500
v 0.26000 0.24000 -0.84500
v 1.20000 0.24000 -0.84500
v 1.20000 0.44000 -0.84500
v 0.26000 0.44000 -0.84500
v 0.26000 0.24000 0.50500
v 1.20000 0.24000 0.50500
v 1.20000 0.44000 0.50500
v 0.26000 0.44000 0.50500
v -1.20000 0.24000 -0.71500
v -0.26000 0.24000 -0.71500
v -0.26000 0.44000 -0.71500
v -1.20000 0.44000 -0.71500
v -1.20000 0.24000 0.63500
v -0.26000 0.24000 0.63500
v -0.26000 0.44000 0.63500
v -1.20000 0.44000 0.63500
v 0.26000 0.24000 -0.71500
v 1.20000 0.24000 -0.71500
v 1.20000 0.44000 -0.71500
v 0.26000 0.44000 -0.71500
v 0.26000 0.24000 0.63500
v 1.20000 0.24000 0.63500
v 1.20000 0.44000 0.63500
v 0.26000 0.44000 0.63500
v -1.20000 0.24000 -0.58500
v -0.26000 0.24000 -0.58500
v -0.26000 0.44000 -0.58500
v -1.20000 0.44000 -0.58500
v -1.20000 0.24000 0.76500
v -0.26000 0.24000 0.76500
v -0.26000 0.44000 0.76500
v -1.20000 0.44000 0.76500
v 0.26000 0.24000 -0.58500
v 1.20000 0.24000 -0.58500
v 1.20000 0.44000 -0.58500
v 0.26000 0.44000 -0.58500
v 0.26000 0.24000 0.76500
v 1.20000 0.24000 0.76500
v 1.20000 0.44000 0.76500
v 0.26000 0.44000 0.76500
v -1.20000 0.24000 -0.45500
v -0.26000 0.24000 -0.45500
v -0.26000 0.44000 -0.45500
v -1.20000 0.44000 -0.45500
v -1.20000 0.24000 0.89500
v -0.26000 0.24000 0.89500
v -0.26000 0.44000 0.89500
v -1.20000 0.44000 0.89500
v 0.26000 0.24000 -0.45500
v 1.20000 0.24000 -0.45500
v 1.20000 0.44000 -0.45500
v 0.26000 0.44000 -0.45500
v 0.26000 0.24000 0.89500
v 1.20000 0.24000 0.89500
v 1.20000 0.44000 0.89500
v 0.26000 0.44000 0.89500
v -1.20000 0.24000 -0.32500
v -0.26000 0.24000 -0.32500
v -0.26000 0.44000 -0.32500
v -1.20000 0.44000 -0.32500
v -1.20000 0.24000 1.02500
v -0.26000 0.24000 1.02500
v -0.26000 0.44000 1.02500
v -1.20000 0.44000 1.02500
v 0.26000 0.24000 -0.32500
v 1.20000 0.24000 -0.32500
v 1.20000 0.44000 -0.32500
v 0.26000 0.44000 -0.32500
v 0.26000 0.24000 1.02500
v 1.20000 0.24000 1.02500
v 1.20000 0.44000 1.02500
v 0.26000 0.44000 1.02500
v -1.20000 0.24000 -0.19500
v -0.26000 0.24000 -0.19500
v -0.26000 0.44000 -0.19500
v -1.20000 0.44000 -0.19500
v -1.20000 0.24000 1.15500
v -0.26000 0.24000 1.15500
v -0.26000 0.44000 1.15500
v -1.20000 0.44000 1.15500
v 0.26000 0.24000 -0.19500
v 1.20000 0.24000 -0.19500
v 1.20000 0.44000 -0.19500
v 0.26000 0.44000 -0.19500
v 0.26000 0.24000 1.15500
v 1.20000 0.24000 1.15500
v 1.20000 0.44000 1.15500
v 0.26000 0.44000 1.15500
v -1.21500 0.37000 0.47000
v -0.24500 0.37000 0.47000
v -0.24500 0.43000 0.47000
v -1.21500 0.43000 0.47000
v -1.21500 0.37000 0.57000
v -0.24500 0.37000 0.57000
v -0.24500 0.43000 0.57000
v -1.21500 0.43000 0.57000
v 0.24500 0.37000 0.47000
v 1.21500 0.37000 0.47000
v 1.21500 0.43000 0.47000
v 0.24500 0.43000 0.47000
v 0.24500 0.37000 0.57000
v 1.21500 0.37000 0.57000
v 1.21500 0.43000 0.57000
v 0.24500 0.43000 0.57000
v -1.51000 0.18000 -0.83500
v -1.41000 0.18000 -0.83500
v -1.41000 0.28000 -0.83500
v -1.51000 0.28000 -0.83500
v -1.51000 0.18000 0.83500
v -1.41000 0.18000 0.83500
v -1.41000 0.28000 0.83500
v -1.51000 0.28000 0.83500
v 1.41000 0.18000 -0.83500
v 1.51000 0.18000 -0.83500
v 1.51000 0.28000 -0.83500
v 1.41000 0.28000 -0.83500
v 1.41000 0.18000 0.83500
v 1.51000 0.18000 0.83500
v 1.51000 0.28000 0.83500
v 1.41000 0.28000 0.83500
v -1.50000 0.18000 -0.87000
v -0.02000 0.18000 -0.87000
v -0.02000 0.28000 -0.87000
v -1.50000 0.28000 -0.87000
v -1.50000 0.18000 -0.77000
v -0.02000 0.18000 -0.77000
v -0.02000 0.28000 -0.77000
v -1.50000 0.28000 -0.77000
v 0.02000 0.18000 -0.87000
v 1.50000 0.18000 -0.87000
v 1.50000 0.28000 -0.87000
v 0.02000 0.28000 -0.87000
v 0.02000 0.18000 -0.77000
v 1.50000 0.18000 -0.77000
v 1.50000 0.28000 -0.77000
v 0.02000 0.28000 -0.77000
v -1.47000 0.22000 -0.82000
v -1.29000 0.22000 -0.82000
v -1.29000 0.34000 -0.82000
v -1.47000 0.34000 -0.82000
v -1.47000 0.22000 -0.64000
v -1.29000 0.22000 -0.64000
v -1.29000 0.34000 -0.64000
v -1.47000 0.34000 -0.64000
v -1.47000 0.22000 0.64000
v -1.29000 0.22000 0.64000
v -1.29000 0.34000 0.64000
v -1.47000 0.34000 0.64000
v -1.47000 0.22000 0.82000
v -1.29000 0.22000 0.82000
v -1.29000 0.34000 0.82000
v -1.47000 0.34000 0.82000
v -0.23000 0.22000 -0.82000
v -0.05000 0.22000 -0.82000
v -0.05000 0.34000 -0.82000
v -0.23000 0.34000 -0.82000
v -0.23000 0.22000 -0.64000
v -0.05000 0.22000 -0.64000
v -0.05000 0.34000 -0.64000
v -0.23000 0.34000 -0.64000
v -0.23000 0.22000 0.64000
v -0.05000 0.22000 0.64000
v -0.05000 0.34000 0.64000
v -0.23000 0.34000 0.64000
v -0.23000 0.22000 0.82000
v -0.05000 0.22000 0.82000
v -0.05000 0.34000 0.82000
v -0.23000 0.34000 0.82000
v 0.05000 0.22000 -0.82000
v 0.23000 0.22000 -0.82000
v 0.23000 0.34000 -0.82000
v 0.05000 0.34000 -0.82000
v 0.05000 0.22000 -0.64000
v 0.23000 0.22000 -0.64000
v 0.23000 0.34000 -0.64000
v 0.05000 0.34000 -0.64000
v 0.05000 0.22000 0.64000
v 0.23000 0.22000 0.64000
v 0.23000 0.34000 0.64000
v 0.05000 0.34000 0.64000
v 0.05000 0.22000 0.82000
v 0.23000 0.22000 0.82000
v 0.23000 0.34000 0.82000
v 0.05000 0.34000 0.82000
v 1.29000 0.22000 -0.82000
v 1.47000 0.22000 -0.82000
v 1.47000 0.34000 -0.82000
v 1.29000 0.34000 -0.82000
v 1.29000 0.22000 -0.64000
v 1.47000 0.22000 -0.64000
v 1.47000 0.34000 -0.64000
v 1.29000 0.34000 -0.64000
v 1.29000 0.22000 0.64000
v 1.47000 0.22000 0.64000
v 1.47000 0.34000 0.64000
v 1.29000 0.34000 0.64000
v 1.29000 0.22000 0.82000
v 1.47000 0.22000 0.82000
v 1.47000 0.34000 0.82000
v 1.29000 0.34000 0.82000
v -0.09000 0.18000 -0.81000
v 0.09000 0.18000 -0.81000
v 0.09000 0.30000 -0.81000
v -0.09000 0.30000 -0.81000
v -0.09000 0.18000 0.81000
v 0.09000 0.18000 0.81000
v 0.09000 0.30000 0.81000
v -0.09000 0.30000 0.81000
v -0.06000 0.45500 -0.62500
v 0.06000 0.45500 -0.62500
v 0.06000 0.50500 -0.62500
v -0.06000 0.50500 -0.62500
v -0.06000 0.45500 0.62500
v 0.06000 0.45500 0.62500
v 0.06000 0.50500 0.62500
v -0.06000 0.50500 0.62500
vt 0.007812 0.882812
vt 0.117188 0.882812
vt 0.117188 0.992188
vt 0.007812 0.992188
vt 0.007812 0.882812
vt 0.117188 0.882812
vt 0.117188 0.992188
vt 0.007812 0.992188
vt 0.007812 0.882812
vt 0.117188 0.882812
vt 0.117188 0.992188
vt 0.007812 0.992188
vt 0.007812 0.882812
vt 0.117188 0.882812
vt 0.117188 0.992188
vt 0.007812 0.992188
vt 0.007812 0.882812
vt 0.117188 0.882812
vt 0.117188 0.992188
vt 0.007812 0.992188
vt 0.007812 0.882812
vt 0.117188 0.882812
vt 0.117188 0.992188
vt 0.007812 0.992188
vt 0.007812 0.882812
vt 0.117188 0.882812
vt 0.117188 0.992188
vt 0.007812 0.992188
vt 0.007812 0.882812
vt 0.117188 0.882812
vt 0.117188 0.992188
vt 0.007812 0.992188
vt 0.007812 0.882812
vt 0.117188 0.882812
vt 0.117188 0.992188
vt 0.007812 0.992188
vt 0.007812 0.882812
vt 0.117188 0.882812
vt 0.117188 0.992188
vt 0.007812 0.992188
vt 0.007812 0.882812
vt 0.117188 0.882812
vt 0.117188 0.992188
vt 0.007812 0.992188
vt 0.007812 0.882812
vt 0.117188 0.882812
vt 0.117188 0.992188
vt 0.007812 0.992188
vt 0.007812 0.882812
vt 0.117188 0.882812
vt 0.117188 0.992188
vt 0.007812 0.992188
vt 0.007812 0.882812
vt 0.117188 0.882812
vt 0.117188 0.992188
vt 0.007812 0.992188
vt 0.132812 0.882812
vt 0.242188 0.882812
vt 0.242188 0.992188
vt 0.132812 0.992188
vt 0.132812 0.882812
vt 0.242188 0.882812
vt 0.242188 0.992188
vt 0.132812 0.992188
vt 0.132812 0.882812
vt 0.242188 0.882812
vt 0.242188 0.992188
vt 0.132812 0.992188
vt 0.132812 0.882812
vt 0.242188 0.882812
vt 0.242188 0.992188
vt 0.132812 0.992188
vt 0.132812 0.882812
vt 0.242188 0.882812
vt 0.242188 0.992188
vt 0.132812 0.992188
vt 0.132812 0.882812
vt 0.242188 0.882812
vt 0.242188 0.992188
vt 0.132812 0.992188
vt 0.132812 0.882812
vt 0.242188 0.882812
vt 0.242188 0.992188
vt 0.132812 0.992188
vt 0.132812 0.882812
vt 0.242188 0.882812
vt 0.242188 0.992188
vt 0.132812 0.992188
vt 0.132812 0.882812
vt 0.242188 0.882812
vt 0.242188 0.992188
vt 0.132812 0.992188
vt 0.132812 0.882812
vt 0.242188 0.882812
vt 0.242188 0.992188
vt 0.132812 0.992188
vt 0.132812 0.882812
vt 0.242188 0.882812
vt 0.242188 0.992188
vt 0.132812 0.992188
vt 0.132812 0.882812
vt 0.242188 0.882812
vt 0.242188 0.992188
vt 0.132812 0.992188
vt 0.132812 0.882812
vt 0.242188 0.882812
vt 0.242188 0.992188
vt 0.132812 0.992188
vt 0.132812 0.882812
vt 0.242188 0.882812
vt 0.242188 0.992188
vt 0.132812 0.992188
vt 0.382812 0.882812
vt 0.492188 0.882812
vt 0.492188 0.992188
vt 0.382812 0.992188
vt 0.382812 0.882812
vt 0.492188 0.882812
vt 0.492188 0.992188
vt 0.382812 0.992188
vt 0.382812 0.882812
vt 0.492188 0.882812
vt 0.492188 0.992188
vt 0.382812 0.992188
vt 0.382812 0.882812
vt 0.492188 0.882812
vt 0.492188 0.992188
vt 0.382812 0.992188
vt 0.382812 0.882812
vt 0.492188 0.882812
vt 0.492188 0.992188
vt 0.382812 0.992188
vt 0.382812 0.882812
vt 0.492188 0.882812
vt 0.492188 0.992188
vt 0.382812 0.992188
vt 0.382812 0.882812
vt 0.492188 0.882812
vt 0.492188 0.992188
vt 0.382812 0.992188
vt 0.382812 0.882812
vt 0.492188 0.882812
vt 0.492188 0.992188
vt 0.382812 0.992188
vt 0.382812 0.882812
vt 0.492188 0.882812
vt 0.492188 0.992188
vt 0.382812 0.992188
vt 0.382812 0.882812
vt 0.492188 0.882812
vt 0.492188 0.992188
vt 0.382812 0.992188
vt 0.382812 0.882812
vt 0.492188 0.882812
vt 0.492188 0.992188
vt 0.382812 0.992188
vt 0.382812 0.882812
vt 0.492188 0.882812
vt 0.492188 0.992188
vt 0.382812 0.992188
vt 0.382812 0.882812
vt 0.492188 0.882812
vt 0.492188 0.992188
vt 0.382812 0.992188
vt 0.382812 0.882812
vt 0.492188 0.882812
vt 0.492188 0.992188
vt 0.382812 0.992188
vt 0.382812 0.882812
vt 0.492188 0.882812
vt 0.492188 0.992188
vt 0.382812 0.992188
vt 0.382812 0.882812
vt 0.492188 0.882812
vt 0.492188 0.992188
vt 0.382812 0.992188
vt 0.382812 0.882812
vt 0.492188 0.882812
vt 0.492188 0.992188
vt 0.382812 0.992188
vt 0.382812 0.882812
vt 0.492188 0.882812
vt 0.492188 0.992188
vt 0.382812 0.992188
vt 0.382812 0.882812
vt 0.492188 0.882812
vt 0.492188 0.992188
vt 0.382812 0.992188
vt 0.382812 0.882812
vt 0.492188 0.882812
vt 0.492188 0.992188
vt 0.382812 0.992188
vt 0.382812 0.882812
vt 0.492188 0.882812
vt 0.492188 0.992188
vt 0.382812 0.992188
vt 0.382812 0.882812
vt 0.492188 0.882812
vt 0.492188 0.992188
vt 0.382812 0.992188
vt 0.382812 0.882812
vt 0.492188 0.882812
vt 0.492188 0.992188
vt 0.382812 0.992188
vt 0.382812 0.882812
vt 0.492188 0.882812
vt 0.492188 0.992188
vt 0.382812 0.992188
vt 0.382812 0.882812
vt 0.492188 0.882812
vt 0.492188 0.992188
vt 0.382812 0.992188
vt 0.382812 0.882812
vt 0.492188 0.882812
vt 0.492188 0.992188
vt 0.382812 0.992188
vt 0.382812 0.882812
vt 0.492188 0.882812
vt 0.492188 0.992188
vt 0.382812 0.992188
vt 0.382812 0.882812
vt 0.492188 0.882812
vt 0.492188 0.992188
vt 0.382812 0.992188
vt 0.382812 0.882812
vt 0.492188 0.882812
vt 0.492188 0.992188
vt 0.382812 0.992188
vt 0.382812 0.882812
vt 0.492188 0.882812
vt 0.492188 0.992188
vt 0.382812 0.992188
vt 0.382812 0.882812
vt 0.492188 0.882812
vt 0.492188 0.992188
vt 0.382812 0.992188
vt 0.382812 0.882812
vt 0.492188 0.882812
vt 0.492188 0.992188
vt 0.382812 0.992188
vt 0.382812 0.882812
vt 0.492188 0.882812
vt 0.492188 0.992188
vt 0.382812 0.992188
vt 0.382812 0.882812
vt 0.492188 0.882812
vt 0.492188 0.992188
vt 0.382812 0.992188
vt 0.382812 0.882812
vt 0.492188 0.882812
vt 0.492188 0.992188
vt 0.382812 0.992188
vt 0.382812 0.882812
vt 0.492188 0.882812
vt 0.492188 0.992188
vt 0.382812 0.992188
vt 0.382812 0.882812
vt 0.492188 0.882812
vt 0.492188 0.992188
vt 0.382812 0.992188
vt 0.382812 0.882812
vt 0.492188 0.882812
vt 0.492188 0.992188
vt 0.382812 0.992188
vt 0.382812 0.882812
vt 0.492188 0.882812
vt 0.492188 0.992188
vt 0.382812 0.992188
vt 0.382812 0.882812
vt 0.492188 0.882812
vt 0.492188 0.992188
vt 0.382812 0.992188
vt 0.382812 0.882812
vt 0.492188 0.882812
vt 0.492188 0.992188
vt 0.382812 0.992188
vt 0.382812 0.882812
vt 0.492188 0.882812
vt 0.492188 0.992188
vt 0.382812 0.992188
vt 0.382812 0.882812
vt 0.492188 0.882812
vt 0.492188 0.992188
vt 0.382812 0.992188
vt 0.382812 0.882812
vt 0.492188 0.882812
vt 0.492188 0.992188
vt 0.382812 0.992188
vt 0.382812 0.882812
vt 0.492188 0.882812
vt 0.492188 0.992188
vt 0.382812 0.992188
vt 0.382812 0.882812
vt 0.492188 0.882812
vt 0.492188 0.992188
vt 0.382812 0.992188
vt 0.382812 0.882812
vt 0.492188 0.882812
vt 0.492188 0.992188
vt 0.382812 0.992188
vt 0.382812 0.882812
vt 0.492188 0.882812
vt 0.492188 0.992188
vt 0.382812 0.992188
vt 0.382812 0.882812
vt 0.492188 0.882812
vt 0.492188 0.992188
vt 0.382812 0.992188
vt 0.382812 0.882812
vt 0.492188 0.882812
vt 0.492188 0.992188
vt 0.382812 0.992188
vt 0.382812 0.882812
vt 0.492188 0.882812
vt 0.492188 0.992188
vt 0.382812 0.992188
vt 0.382812 0.882812
vt 0.492188 0.882812
vt 0.492188 0.992188
vt 0.382812 0.992188
vt 0.382812 0.882812
vt 0.492188 0.882812
vt 0.492188 0.992188
vt 0.382812 0.992188
vt 0.382812 0.882812
vt 0.492188 0.882812
vt 0.492188 0.992188
vt 0.382812 0.992188
vt 0.382812 0.882812
vt 0.492188 0.882812
vt 0.492188 0.992188
vt 0.382812 0.992188
vt 0.382812 0.882812
vt 0.492188 0.882812
vt 0.492188 0.992188
vt 0.382812 0.992188
vt 0.382812 0.882812
vt 0.492188 0.882812
vt 0.492188 0.992188
vt 0.382812 0.992188
vt 0.382812 0.882812
vt 0.492188 0.882812
vt 0.492188 0.992188
vt 0.382812 0.992188
vt 0.382812 0.882812
vt 0.492188 0.882812
vt 0.492188 0.992188
vt 0.382812 0.992188
vt 0.382812 0.882812
vt 0.492188 0.882812
vt 0.492188 0.992188
vt 0.382812 0.992188
vt 0.382812 0.882812
vt 0.492188 0.882812
vt 0.492188 0.992188
vt 0.382812 0.992188
vt 0.382812 0.882812
vt 0.492188 0.882812
vt 0.492188 0.992188
vt 0.382812 0.992188
vt 0.382812 0.882812
vt 0.492188 0.882812
vt 0.492188 0.992188
vt 0.382812 0.992188
vt 0.382812 0.882812
vt 0.492188 0.882812
vt 0.492188 0.992188
vt 0.382812 0.992188
vt 0.382812 0.882812
vt 0.492188 0.882812
vt 0.492188 0.992188
vt 0.382812 0.992188
vt 0.382812 0.882812
vt 0.492188 0.882812
vt 0.492188 0.992188
vt 0.382812 0.992188
vt 0.382812 0.882812
vt 0.492188 0.882812
vt 0.492188 0.992188
vt 0.382812 0.992188
vt 0.382812 0.882812
vt 0.492188 0.882812
vt 0.492188 0.992188
vt 0.382812 0.992188
vt 0.382812 0.882812
vt 0.492188 0.882812
vt 0.492188 0.992188
vt 0.382812 0.992188
vt 0.382812 0.882812
vt 0.492188 0.882812
vt 0.492188 0.992188
vt 0.382812 0.992188
vt 0.382812 0.882812
vt 0.492188 0.882812
vt 0.492188 0.992188
vt 0.382812 0.992188
vt 0.382812 0.882812
vt 0.492188 0.882812
vt 0.492188 0.992188
vt 0.382812 0.992188
vt 0.382812 0.882812
vt 0.492188 0.882812
vt 0.492188 0.992188
vt 0.382812 0.992188
vt 0.382812 0.882812
vt 0.492188 0.882812
vt 0.492188 0.992188
vt 0.382812 0.992188
vt 0.382812 0.882812
vt 0.492188 0.882812
vt 0.492188 0.992188
vt 0.382812 0.992188
vt 0.382812 0.882812
vt 0.492188 0.882812
vt 0.492188 0.992188
vt 0.382812 0.992188
vt 0.382812 0.882812
vt 0.492188 0.882812
vt 0.492188 0.992188
vt 0.382812 0.992188
vt 0.382812 0.882812
vt 0.492188 0.882812
vt 0.492188 0.992188
vt 0.382812 0.992188
vt 0.382812 0.882812
vt 0.492188 0.882812
vt 0.492188 0.992188
vt 0.382812 0.992188
vt 0.382812 0.882812
vt 0.492188 0.882812
vt 0.492188 0.992188
vt 0.382812 0.992188
vt 0.382812 0.882812
vt 0.492188 0.882812
vt 0.492188 0.992188
vt 0.382812 0.992188
vt 0.382812 0.882812
vt 0.492188 0.882812
vt 0.492188 0.992188
vt 0.382812 0.992188
vt 0.382812 0.882812
vt 0.492188 0.882812
vt 0.492188 0.992188
vt 0.382812 0.992188
vt 0.382812 0.882812
vt 0.492188 0.882812
vt 0.492188 0.992188
vt 0.382812 0.992188
vt 0.382812 0.882812
vt 0.492188 0.882812
vt 0.492188 0.992188
vt 0.382812 0.992188
vt 0.382812 0.882812
vt 0.492188 0.882812
vt 0.492188 0.992188
vt 0.382812 0.992188
vt 0.382812 0.882812
vt 0.492188 0.882812
vt 0.492188 0.992188
vt 0.382812 0.992188
vt 0.382812 0.882812
vt 0.492188 0.882812
vt 0.492188 0.992188
vt 0.382812 0.992188
vt 0.382812 0.882812
vt 0.492188 0.882812
vt 0.492188 0.992188
vt 0.382812 0.992188
vt 0.382812 0.882812
vt 0.492188 0.882812
vt 0.492188 0.992188
vt 0.382812 0.992188
vt 0.382812 0.882812
vt 0.492188 0.882812
vt 0.492188 0.992188
vt 0.382812 0.992188
vt 0.382812 0.882812
vt 0.492188 0.882812
vt 0.492188 0.992188
vt 0.382812 0.992188
vt 0.382812 0.882812
vt 0.492188 0.882812
vt 0.492188 0.992188
vt 0.382812 0.992188
vt 0.382812 0.882812
vt 0.492188 0.882812
vt 0.492188 0.992188
vt 0.382812 0.992188
vt 0.382812 0.882812
vt 0.492188 0.882812
vt 0.492188 0.992188
vt 0.382812 0.992188
vt 0.382812 0.882812
vt 0.492188 0.882812
vt 0.492188 0.992188
vt 0.382812 0.992188
vt 0.382812 0.882812
vt 0.492188 0.882812
vt 0.492188 0.992188
vt 0.382812 0.992188
vt 0.382812 0.882812
vt 0.492188 0.882812
vt 0.492188 0.992188
vt 0.382812 0.992188
vt 0.382812 0.882812
vt 0.492188 0.882812
vt 0.492188 0.992188
vt 0.382812 0.992188
vt 0.382812 0.882812
vt 0.492188 0.882812
vt 0.492188 0.992188
vt 0.382812 0.992188
vt 0.382812 0.882812
vt 0.492188 0.882812
vt 0.492188 0.992188
vt 0.382812 0.992188
vt 0.382812 0.882812
vt 0.492188 0.882812
vt 0.492188 0.992188
vt 0.382812 0.992188
vt 0.382812 0.882812
vt 0.492188 0.882812
vt 0.492188 0.992188
vt 0.382812 0.992188
vt 0.382812 0.882812
vt 0.492188 0.882812
vt 0.492188 0.992188
vt 0.382812 0.992188
vt 0.382812 0.882812
vt 0.492188 0.882812
vt 0.492188 0.992188
vt 0.382812 0.992188
vt 0.382812 0.882812
vt 0.492188 0.882812
vt 0.492188 0.992188
vt 0.382812 0.992188
vt 0.382812 0.882812
vt 0.492188 0.882812
vt 0.492188 0.992188
vt 0.382812 0.992188
vt 0.382812 0.882812
vt 0.492188 0.882812
vt 0.492188 0.992188
vt 0.382812 0.992188
vt 0.382812 0.882812
vt 0.492188 0.882812
vt 0.492188 0.992188
vt 0.382812 0.992188
vt 0.382812 0.882812
vt 0.492188 0.882812
vt 0.492188 0.992188
vt 0.382812 0.992188
vt 0.382812 0.882812
vt 0.492188 0.882812
vt 0.492188 0.992188
vt 0.382812 0.992188
vt 0.382812 0.882812
vt 0.492188 0.882812
vt 0.492188 0.992188
vt 0.382812 0.992188
vt 0.257812 0.882812
vt 0.367188 0.882812
vt 0.367188 0.992188
vt 0.257812 0.992188
vt 0.257812 0.882812
vt 0.367188 0.882812
vt 0.367188 0.992188
vt 0.257812 0.992188
vt 0.257812 0.882812
vt 0.367188 0.882812
vt 0.367188 0.992188
vt 0.257812 0.992188
vt 0.257812 0.882812
vt 0.367188 0.882812
vt 0.367188 0.992188
vt 0.257812 0.992188
vt 0.257812 0.882812
vt 0.367188 0.882812
vt 0.367188 0.992188
vt 0.257812 0.992188
vt 0.257812 0.882812
vt 0.367188 0.882812
vt 0.367188 0.992188
vt 0.257812 0.992188
vt 0.257812 0.882812
vt 0.367188 0.882812
vt 0.367188 0.992188
vt 0.257812 0.992188
vt 0.257812 0.882812
vt 0.367188 0.882812
vt 0.367188 0.992188
vt 0.257812 0.992188
vt 0.257812 0.882812
vt 0.367188 0.882812
vt 0.367188 0.992188
vt 0.257812 0.992188
vt 0.257812 0.882812
vt 0.367188 0.882812
vt 0.367188 0.992188
vt 0.257812 0.992188
vt 0.257812 0.882812
vt 0.367188 0.882812
vt 0.367188 0.992188
vt 0.257812 0.992188
vt 0.257812 0.882812
vt 0.367188 0.882812
vt 0.367188 0.992188
vt 0.257812 0.992188
vt 0.257812 0.882812
vt 0.367188 0.882812
vt 0.367188 0.992188
vt 0.257812 0.992188
vt 0.257812 0.882812
vt 0.367188 0.882812
vt 0.367188 0.992188
vt 0.257812 0.992188
vt 0.132812 0.882812
vt 0.242188 0.882812
vt 0.242188 0.992188
vt 0.132812 0.992188
vt 0.132812 0.882812
vt 0.242188 0.882812
vt 0.242188 0.992188
vt 0.132812 0.992188
vt 0.132812 0.882812
vt 0.242188 0.882812
vt 0.242188 0.992188
vt 0.132812 0.992188
vt 0.132812 0.882812
vt 0.242188 0.882812
vt 0.242188 0.992188
vt 0.132812 0.992188
vt 0.132812 0.882812
vt 0.242188 0.882812
vt 0.242188 0.992188
vt 0.132812 0.992188
vt 0.132812 0.882812
vt 0.242188 0.882812
vt 0.242188 0.992188
vt 0.132812 0.992188
vt 0.132812 0.882812
vt 0.242188 0.882812
vt 0.242188 0.992188
vt 0.132812 0.992188
vt 0.132812 0.882812
vt 0.242188 0.882812
vt 0.242188 0.992188
vt 0.132812 0.992188
vt 0.132812 0.882812
vt 0.242188 0.882812
vt 0.242188 0.992188
vt 0.132812 0.992188
vt 0.132812 0.882812
vt 0.242188 0.882812
vt 0.242188 0.992188
vt 0.132812 0.992188
vt 0.132812 0.882812
vt 0.242188 0.882812
vt 0.242188 0.992188
vt 0.132812 0.992188
vt 0.132812 0.882812
vt 0.242188 0.882812
vt 0.242188 0.992188
vt 0.132812 0.992188
vt 0.132812 0.882812
vt 0.242188 0.882812
vt 0.242188 0.992188
vt 0.132812 0.992188
vt 0.132812 0.882812
vt 0.242188 0.882812
vt 0.242188 0.992188
vt 0.132812 0.992188
vt 0.132812 0.882812
vt 0.242188 0.882812
vt 0.242188 0.992188
vt 0.132812 0.992188
vt 0.132812 0.882812
vt 0.242188 0.882812
vt 0.242188 0.992188
vt 0.132812 0.992188
vt 0.132812 0.882812
vt 0.242188 0.882812
vt 0.242188 0.992188
vt 0.132812 0.992188
vt 0.132812 0.882812
vt 0.242188 0.882812
vt 0.242188 0.992188
vt 0.132812 0.992188
vt 0.132812 0.882812
vt 0.242188 0.882812
vt 0.242188 0.992188
vt 0.132812 0.992188
vt 0.132812 0.882812
vt 0.242188 0.882812
vt 0.242188 0.992188
vt 0.132812 0.992188
vt 0.132812 0.882812
vt 0.242188 0.882812
vt 0.242188 0.992188
vt 0.132812 0.992188
vt 0.132812 0.882812
vt 0.242188 0.882812
vt 0.242188 0.992188
vt 0.132812 0.992188
vt 0.132812 0.882812
vt 0.242188 0.882812
vt 0.242188 0.992188
vt 0.132812 0.992188
vt 0.132812 0.882812
vt 0.242188 0.882812
vt 0.242188 0.992188
vt 0.132812 0.992188
vt 0.132812 0.882812
vt 0.242188 0.882812
vt 0.242188 0.992188
vt 0.132812 0.992188
vt 0.132812 0.882812
vt 0.242188 0.882812
vt 0.242188 0.992188
vt 0.132812 0.992188
vt 0.132812 0.882812
vt 0.242188 0.882812
vt 0.242188 0.992188
vt 0.132812 0.992188
vt 0.132812 0.882812
vt 0.242188 0.882812
vt 0.242188 0.992188
vt 0.132812 0.992188
vt 0.257812 0.882812
vt 0.367188 0.882812
vt 0.367188 0.992188
vt 0.257812 0.992188
vt 0.257812 0.882812
vt 0.367188 0.882812
vt 0.367188 0.992188
vt 0.257812 0.992188
vt 0.257812 0.882812
vt 0.367188 0.882812
vt 0.367188 0.992188
vt 0.257812 0.992188
vt 0.257812 0.882812
vt 0.367188 0.882812
vt 0.367188 0.992188
vt 0.257812 0.992188
vt 0.257812 0.882812
vt 0.367188 0.882812
vt 0.367188 0.992188
vt 0.257812 0.992188
vt 0.257812 0.882812
vt 0.367188 0.882812
vt 0.367188 0.992188
vt 0.257812 0.992188
vt 0.257812 0.882812
vt 0.367188 0.882812
vt 0.367188 0.992188
vt 0.257812 0.992188
vt 0.257812 0.882812
vt 0.367188 0.882812
vt 0.367188 0.992188
vt 0.257812 0.992188
vt 0.257812 0.882812
vt 0.367188 0.882812
vt 0.367188 0.992188
vt 0.257812 0.992188
vt 0.257812 0.882812
vt 0.367188 0.882812
vt 0.367188 0.992188
vt 0.257812 0.992188
vt 0.257812 0.882812
vt 0.367188 0.882812
vt 0.367188 0.992188
vt 0.257812 0.992188
vt 0.257812 0.882812
vt 0.367188 0.882812
vt 0.367188 0.992188
vt 0.257812 0.992188
vt 0.257812 0.882812
vt 0.367188 0.882812
vt 0.367188 0.992188
vt 0.257812 0.992188
vt 0.257812 0.882812
vt 0.367188 0.882812
vt 0.367188 0.992188
vt 0.257812 0.992188
vt 0.257812 0.882812
vt 0.367188 0.882812
vt 0.367188 0.992188
vt 0.257812 0.992188
vt 0.257812 0.882812
vt 0.367188 0.882812
vt 0.367188 0.992188
vt 0.257812 0.992188
vt 0.257812 0.882812
vt 0.367188 0.882812
vt 0.367188 0.992188
vt 0.257812 0.992188
vt 0.257812 0.882812
vt 0.367188 0.882812
vt 0.367188 0.992188
vt 0.257812 0.992188
vt 0.257812 0.882812
vt 0.367188 0.882812
vt 0.367188 0.992188
vt 0.257812 0.992188
vt 0.257812 0.882812
vt 0.367188 0.882812
vt 0.367188 0.992188
vt 0.257812 0.992188
vt 0.257812 0.882812
vt 0.367188 0.882812
vt 0.367188 0.992188
vt 0.257812 0.992188
vt 0.257812 0.882812
vt 0.367188 0.882812
vt 0.367188 0.992188
vt 0.257812 0.992188
vt 0.257812 0.882812
vt 0.367188 0.882812
vt 0.367188 0.992188
vt 0.257812 0.992188
vt 0.257812 0.882812
vt 0.367188 0.882812
vt 0.367188 0.992188
vt 0.257812 0.992188
vt 0.257812 0.882812
vt 0.367188 0.882812
vt 0.367188 0.992188
vt 0.257812 0.992188
vt 0.257812 0.882812
vt 0.367188 0.882812
vt 0.367188 0.992188
vt 0.257812 0.992188
vt 0.257812 0.882812
vt 0.367188 0.882812
vt 0.367188 0.992188
vt 0.257812 0.992188
vt 0.257812 0.882812
vt 0.367188 0.882812
vt 0.367188 0.992188
vt 0.257812 0.992188
vt 0.257812 0.882812
vt 0.367188 0.882812
vt 0.367188 0.992188
vt 0.257812 0.992188
vt 0.257812 0.882812
vt 0.367188 0.882812
vt 0.367188 0.992188
vt 0.257812 0.992188
vt 0.257812 0.882812
vt 0.367188 0.882812
vt 0.367188 0.992188
vt 0.257812 0.992188
vt 0.257812 0.882812
vt 0.367188 0.882812
vt 0.367188 0.992188
vt 0.257812 0.992188
vt 0.257812 0.882812
vt 0.367188 0.882812
vt 0.367188 0.992188
vt 0.257812 0.992188
vt 0.257812 0.882812
vt 0.367188 0.882812
vt 0.367188 0.992188
vt 0.257812 0.992188
vt 0.257812 0.882812
vt 0.367188 0.882812
vt 0.367188 0.992188
vt 0.257812 0.992188
vt 0.257812 0.882812
vt 0.367188 0.882812
vt 0.367188 0.992188
vt 0.257812 0.992188
vt 0.257812 0.882812
vt 0.367188 0.882812
vt 0.367188 0.992188
vt 0.257812 0.992188
vt 0.257812 0.882812
vt 0.367188 0.882812
vt 0.367188 0.992188
vt 0.257812 0.992188
vt 0.257812 0.882812
vt 0.367188 0.882812
vt 0.367188 0.992188
vt 0.257812 0.992188
vt 0.257812 0.882812
vt 0.367188 0.882812
vt 0.367188 0.992188
vt 0.257812 0.992188
vt 0.257812 0.882812
vt 0.367188 0.882812
vt 0.367188 0.992188
vt 0.257812 0.992188
vt 0.257812 0.882812
vt 0.367188 0.882812
vt 0.367188 0.992188
vt 0.257812 0.992188
vt 0.257812 0.882812
vt 0.367188 0.882812
vt 0.367188 0.992188
vt 0.257812 0.992188
vt 0.257812 0.882812
vt 0.367188 0.882812
vt 0.367188 0.992188
vt 0.257812 0.992188
vt 0.257812 0.882812
vt 0.367188 0.882812
vt 0.367188 0.992188
vt 0.257812 0.992188
vt 0.257812 0.882812
vt 0.367188 0.882812
vt 0.367188 0.992188
vt 0.257812 0.992188
vt 0.257812 0.882812
vt 0.367188 0.882812
vt 0.367188 0.992188
vt 0.257812 0.992188
vt 0.257812 0.882812
vt 0.367188 0.882812
vt 0.367188 0.992188
vt 0.257812 0.992188
vt 0.257812 0.882812
vt 0.367188 0.882812
vt 0.367188 0.992188
vt 0.257812 0.992188
vt 0.257812 0.882812
vt 0.367188 0.882812
vt 0.367188 0.992188
vt 0.257812 0.992188
vt 0.257812 0.882812
vt 0.367188 0.882812
vt 0.367188 0.992188
vt 0.257812 0.992188
vt 0.257812 0.882812
vt 0.367188 0.882812
vt 0.367188 0.992188
vt 0.257812 0.992188
vt 0.257812 0.882812
vt 0.367188 0.882812
vt 0.367188 0.992188
vt 0.257812 0.992188
vt 0.257812 0.882812
vt 0.367188 0.882812
vt 0.367188 0.992188
vt 0.257812 0.992188
vt 0.257812 0.882812
vt 0.367188 0.882812
vt 0.367188 0.992188
vt 0.257812 0.992188
vt 0.257812 0.882812
vt 0.367188 0.882812
vt 0.367188 0.992188
vt 0.257812 0.992188
vt 0.632812 0.882812
vt 0.742188 0.882812
vt 0.742188 0.992188
vt 0.632812 0.992188
vt 0.632812 0.882812
vt 0.742188 0.882812
vt 0.742188 0.992188
vt 0.632812 0.992188
vt 0.632812 0.882812
vt 0.742188 0.882812
vt 0.742188 0.992188
vt 0.632812 0.992188
vt 0.632812 0.882812
vt 0.742188 0.882812
vt 0.742188 0.992188
vt 0.632812 0.992188
vt 0.632812 0.882812
vt 0.742188 0.882812
vt 0.742188 0.992188
vt 0.632812 0.992188
vt 0.632812 0.882812
vt 0.742188 0.882812
vt 0.742188 0.992188
vt 0.632812 0.992188
vt 0.632812 0.882812
vt 0.742188 0.882812
vt 0.742188 0.992188
vt 0.632812 0.992188
vt 0.257812 0.882812
vt 0.367188 0.882812
vt 0.367188 0.992188
vt 0.257812 0.992188
vt 0.257812 0.882812
vt 0.367188 0.882812
vt 0.367188 0.992188
vt 0.257812 0.992188
vt 0.257812 0.882812
vt 0.367188 0.882812
vt 0.367188 0.992188
vt 0.257812 0.992188
vt 0.257812 0.882812
vt 0.367188 0.882812
vt 0.367188 0.992188
vt 0.257812 0.992188
vt 0.257812 0.882812
vt 0.367188 0.882812
vt 0.367188 0.992188
vt 0.257812 0.992188
vt 0.257812 0.882812
vt 0.367188 0.882812
vt 0.367188 0.992188
vt 0.257812 0.992188
vt 0.257812 0.882812
vt 0.367188 0.882812
vt 0.367188 0.992188
vt 0.257812 0.992188
f 1/5 4/6 3/7 2/8
f 5/9 6/10 7/11 8/12
f 1/13 2/14 6/15 5/16
f 2/17 3/18 7/19 6/20
f 3/21 4/22 8/23 7/24
f 4/25 1/26 5/27 8/28
f 9/33 12/34 11/35 10/36
f 13/37 14/38 15/39 16/40
f 9/41 10/42 14/43 13/44
f 10/45 11/46 15/47 14/48
f 11/49 12/50 16/51 15/52
f 12/53 9/54 13/55 16/56
f 17/61 20/62 19/63 18/64
f 21/65 22/66 23/67 24/68
f 17/69 18/70 22/71 21/72
f 18/73 19/74 23/75 22/76
f 19/77 20/78 24/79 23/80
f 20/81 17/82 21/83 24/84
f 25/89 28/90 27/91 26/92
f 29/93 30/94 31/95 32/96
f 25/97 26/98 30/99 29/100
f 26/101 27/102 31/103 30/104
f 27/105 28/106 32/107 31/108
f 28/109 25/110 29/111 32/112
f 33/117 36/118 35/119 34/120
f 37/121 38/122 39/123 40/124
f 33/125 34/126 38/127 37/128
f 34/129 35/130 39/131 38/132
f 35/133 36/134 40/135 39/136
f 36/137 33/138 37/139 40/140
f 41/145 44/146 43/147 42/148
f 45/149 46/150 47/151 48/152
f 41/153 42/154 46/155 45/156
f 42/157 43/158 47/159 46/160
f 43/161 44/162 48/163 47/164
f 44/165 41/166 45/167 48/168
f 49/173 52/174 51/175 50/176
f 53/177 54/178 55/179 56/180
f 49/181 50/182 54/183 53/184
f 50/185 51/186 55/187 54/188
f 51/189 52/190 56/191 55/192
f 52/193 49/194 53/195 56/196
f 57/201 60/202 59/203 58/204
f 61/205 62/206 63/207 64/208
f 57/209 58/210 62/211 61/212
f 58/213 59/214 63/215 62/216
f 59/217 60/218 64/219 63/220
f 60/221 57/222 61/223 64/224
f 65/229 68/230 67/231 66/232
f 69/233 70/234 71/235 72/236
f 65/237 66/238 70/239 69/240
f 66/241 67/242 71/243 70/244
f 67/245 68/246 72/247 71/248
f 68/249 65/250 69/251 72/252
f 73/257 76/258 75/259 74/260
f 77/261 78/262 79/263 80/264
f 73/265 74/266 78/267 77/268
f 74/269 75/270 79/271 78/272
f 75/273 76/274 80/275 79/276
f 76/277 73/278 77/279 80/280
f 81/285 84/286 83/287 82/288
f 85/289 86/290 87/291 88/292
f 81/293 82/294 86/295 85/296
f 82/297 83/298 87/299 86/300
f 83/301 84/302 88/303 87/304
f 84/305 81/306 85/307 88/308
f 89/313 92/314 91/315 90/316
f 93/317 94/318 95/319 96/320
f 89/321 90/322 94/323 93/324
f 90/325 91/326 95/327 94/328
f 91/329 92/330 96/331 95/332
f 92/333 89/334 93/335 96/336
f 97/341 100/342 99/343 98/344
f 101/345 102/346 103/347 104/348
f 97/349 98/350 102/351 101/352
f 98/353 99/354 103/355 102/356
f 99/357 100/358 104/359 103/360
f 100/361 97/362 101/363 104/364
f 105/369 108/370 107/371 106/372
f 109/373 110/374 111/375 112/376
f 105/377 106/378 110/379 109/380
f 106/381 107/382 111/383 110/384
f 107/385 108/386 112/387 111/388
f 108/389 105/390 109/391 112/392
f 113/397 116/398 115/399 114/400
f 117/401 118/402 119/403 120/404
f 113/405 114/406 118/407 117/408
f 114/409 115/410 119/411 118/412
f 115/413 116/414 120/415 119/416
f 116/417 113/418 117/419 120/420
f 121/425 124/426 123/427 122/428
f 125/429 126/430 127/431 128/432
f 121/433 122/434 126/435 125/436
f 122/437 123/438 127/439 126/440
f 123/441 124/442 128/443 127/444
f 124/445 121/446 125/447 128/448
f 129/453 132/454 131/455 130/456
f 133/457 134/458 135/459 136/460
f 129/461 130/462 134/463 133/464
f 130/465 131/466 135/467 134/468
f 131/469 132/470 136/471 135/472
f 132/473 129/474 133/475 136/476
f 137/481 140/482 139/483 138/484
f 141/485 142/486 143/487 144/488
f 137/489 138/490 142/491 141/492
f 138/493 139/494 143/495 142/496
f 139/497 140/498 144/499 143/500
f 140/501 137/502 141/503 144/504
f 145/509 148/510 147/511 146/512
f 149/513 150/514 151/515 152/516
f 145/517 146/518 150/519 149/520
f 146/521 147/522 151/523 150/524
f 147/525 148/526 152/527 151/528
f 148/529 145/530 149/531 152/532
f 153/537 156/538 155/539 154/540
f 157/541 158/542 159/543 160/544
f 153/545 154/546 158/547 157/548
f 154/549 155/550 159/551 158/552
f 155/553 156/554 160/555 159/556
f 156/557 153/558 157/559 160/560
f 161/565 164/566 163/567 162/568
f 165/569 166/570 167/571 168/572
f 161/573 162/574 166/575 165/576
f 162/577 163/578 167/579 166/580
f 163/581 164/582 168/583 167/584
f 164/585 161/586 165/587 168/588
f 169/593 172/594 171/595 170/596
f 173/597 174/598 175/599 176/600
f 169/601 170/602 174/603 173/604
f 170/605 171/606 175/607 174/608
f 171/609 172/610 176/611 175/612
f 172/613 169/614 173/615 176/616
f 177/621 180/622 179/623 178/624
f 181/625 182/626 183/627 184/628
f 177/629 178/630 182/631 181/632
f 178/633 179/634 183/635 182/636
f 179/637 180/638 184/639 183/640
f 180/641 177/642 181/643 184/644
f 185/649 188/650 187/651 186/652
f 189/653 190/654 191/655 192/656
f 185/657 186/658 190/659 189/660
f 186/661 187/662 191/663 190/664
f 187/665 188/666 192/667 191/668
f 188/669 185/670 189/671 192/672
f 193/677 196/678 195/679 194/680
f 197/681 198/682 199/683 200/684
f 193/685 194/686 198/687 197/688
f 194/689 195/690 199/691 198/692
f 195/693 196/694 200/695 199/696
f 196/697 193/698 197/699 200/700
f 201/705 204/706 203/707 202/708
f 205/709 206/710 207/711 208/712
f 201/713 202/714 206/715 205/716
f 202/717 203/718 207/719 206/720
f 203/721 204/722 208/723 207/724
f 204/725 201/726 205/727 208/728
f 209/733 212/734 211/735 210/736
f 213/737 214/738 215/739 216/740
f 209/741 210/742 214/743 213/744
f 210/745 211/746 215/747 214/748
f 211/749 212/750 216/751 215/752
f 212/753 209/754 213/755 216/756
f 217/761 220/762 219/763 218/764
f 221/765 222/766 223/767 224/768
f 217/769 218/770 222/771 221/772
f 218/773 219/774 223/775 222/776
f 219/777 220/778 224/779 223/780
f 220/781 217/782 221/783 224/784
f 225/789 228/790 227/791 226/792
f 229/793 230/794 231/795 232/796
f 225/797 226/798 230/799 229/800
f 226/801 227/802 231/803 230/804
f 227/805 228/806 232/807 231/808
f 228/809 225/810 229/811 232/812
f 233/817 236/818 235/819 234/820
f 237/821 238/822 239/823 240/824
f 233/825 234/826 238/827 237/828
f 234/829 235/830 239/831 238/832
f 235/833 236/834 240/835 239/836
f 236/837 233/838 237/839 240/840
f 241/845 244/846 243/847 242/848
f 245/849 246/850 247/851 248/852
f 241/853 242/854 246/855 245/856
f 242/857 243/858 247/859 246/860
f 243/861 244/862 248/863 247/864
f 244/865 241/866 245/867 248/868
f 249/873 252/874 251/875 250/876
f 253/877 254/878 255/879 256/880
f 249/881 250/882 254/883 253/884
f 250/885 251/886 255/887 254/888
f 251/889 252/890 256/891 255/892
f 252/893 249/894 253/895 256/896
f 257/901 260/902 259/903 258/904
f 261/905 262/906 263/907 264/908
f 257/909 258/910 262/911 261/912
f 258/913 259/914 263/915 262/916
f 259/917 260/918 264/919 263/920
f 260/921 257/922 261/923 264/924
f 265/929 268/930 267/931 266/932
f 269/933 270/934 271/935 272/936
f 265/937 266/938 270/939 269/940
f 266/941 267/942 271/943 270/944
f 267/945 268/946 272/947 271/948
f 268/949 265/950 269/951 272/952
f 273/957 276/958 275/959 274/960
f 277/961 278/962 279/963 280/964
f 273/965 274/966 278/967 277/968
f 274/969 275/970 279/971 278/972
f 275/973 276/974 280/975 279/976
f 276/977 273/978 277/979 280/980
f 281/985 284/986 283/987 282/988
f 285/989 286/990 287/991 288/992
f 281/993 282/994 286/995 285/996
f 282/997 283/998 287/999 286/1000
f 283/1001 284/1002 288/1003 287/1004
f 284/1005 281/1006 285/1007 288/1008
