# Purple Enchanted Voxel Book with Ribbons - voxel book model
mtllib enchanted_book.mtl
o enchanted_book
usemtl enchanted_book_material
v -1.00000 0.14500 -0.76000
v 1.00000 0.14500 -0.76000
v 1.00000 0.69500 -0.76000
v -1.00000 0.69500 -0.76000
v -1.00000 0.14500 0.76000
v 1.00000 0.14500 0.76000
v 1.00000 0.69500 0.76000
v -1.00000 0.69500 0.76000
v -1.09000 0.07000 -0.84000
v 1.09000 0.07000 -0.84000
v 1.09000 0.19000 -0.84000
v -1.09000 0.19000 -0.84000
v -1.09000 0.07000 0.84000
v 1.09000 0.07000 0.84000
v 1.09000 0.19000 0.84000
v -1.09000 0.19000 0.84000
v -1.10000 0.71000 -0.85000
v 1.10000 0.71000 -0.85000
v 1.10000 0.85000 -0.85000
v -1.10000 0.85000 -0.85000
v -1.10000 0.71000 0.85000
v 1.10000 0.71000 0.85000
v 1.10000 0.85000 0.85000
v -1.10000 0.85000 0.85000
v -0.98000 0.84000 -0.73000
v 0.98000 0.84000 -0.73000
v 0.98000 0.92000 -0.73000
v -0.98000 0.92000 -0.73000
v -0.98000 0.84000 0.73000
v 0.98000 0.84000 0.73000
v 0.98000 0.92000 0.73000
v -0.98000 0.92000 0.73000
v -1.10000 0.78000 -0.81000
v -0.98000 0.78000 -0.81000
v -0.98000 0.90000 -0.81000
v -1.10000 0.90000 -0.81000
v -1.10000 0.78000 0.81000
v -0.98000 0.78000 0.81000
v -0.98000 0.90000 0.81000
v -1.10000 0.90000 0.81000
v 0.98000 0.78000 -0.81000
v 1.10000 0.78000 -0.81000
v 1.10000 0.90000 -0.81000
v 0.98000 0.90000 -0.81000
v 0.98000 0.78000 0.81000
v 1.10000 0.78000 0.81000
v 1.10000 0.90000 0.81000
v 0.98000 0.90000 0.81000
v -1.05000 0.78000 -0.86000
v 1.05000 0.78000 -0.86000
v 1.05000 0.90000 -0.86000
v -1.05000 0.90000 -0.86000
v -1.05000 0.78000 -0.74000
v 1.05000 0.78000 -0.74000
v 1.05000 0.90000 -0.74000
v -1.05000 0.90000 -0.74000
v -1.05000 0.78000 0.74000
v 1.05000 0.78000 0.74000
v 1.05000 0.90000 0.74000
v -1.05000 0.90000 0.74000
v -1.05000 0.78000 0.86000
v 1.05000 0.78000 0.86000
v 1.05000 0.90000 0.86000
v -1.05000 0.90000 0.86000
v -0.12000 0.91000 -0.88000
v 0.12000 0.91000 -0.88000
v 0.12000 1.01000 -0.88000
v -0.12000 1.01000 -0.88000
v -0.12000 0.91000 0.88000
v 0.12000 0.91000 0.88000
v 0.12000 1.01000 0.88000
v -0.12000 1.01000 0.88000
v -1.12000 0.91000 -0.11000
v 1.12000 0.91000 -0.11000
v 1.12000 1.01000 -0.11000
v -1.12000 1.01000 -0.11000
v -1.12000 0.91000 0.11000
v 1.12000 0.91000 0.11000
v 1.12000 1.01000 0.11000
v -1.12000 1.01000 0.11000
v 0.93000 0.04000 -0.50000
v 1.11000 0.04000 -0.50000
v 1.11000 0.66000 -0.50000
v 0.93000 0.66000 -0.50000
v 0.93000 0.04000 -0.30000
v 1.11000 0.04000 -0.30000
v 1.11000 0.66000 -0.30000
v 0.93000 0.66000 -0.30000
v 0.93000 0.04000 0.30000
v 1.11000 0.04000 0.30000
v 1.11000 0.66000 0.30000
v 0.93000 0.66000 0.30000
v 0.93000 0.04000 0.50000
v 1.11000 0.04000 0.50000
v 1.11000 0.66000 0.50000
v 0.93000 0.66000 0.50000
v 1.03000 0.79000 -0.21000
v 1.25000 0.79000 -0.21000
v 1.25000 1.05000 -0.21000
v 1.03000 1.05000 -0.21000
v 1.03000 0.79000 0.21000
v 1.25000 0.79000 0.21000
v 1.25000 1.05000 0.21000
v 1.03000 1.05000 0.21000
v 1.23000 0.87000 -0.12500
v 1.33000 0.87000 -0.12500
v 1.33000 1.03000 -0.12500
v 1.23000 1.03000 -0.12500
v 1.23000 0.87000 0.12500
v 1.33000 0.87000 0.12500
v 1.33000 1.03000 0.12500
v 1.23000 1.03000 0.12500
v -1.02000 0.88000 -0.78000
v -0.86000 0.88000 -0.78000
v -0.86000 1.00000 -0.78000
v -1.02000 1.00000 -0.78000
v -1.02000 0.88000 -0.62000
v -0.86000 0.88000 -0.62000
v -0.86000 1.00000 -0.62000
v -1.02000 1.00000 -0.62000
v -1.02000 0.88000 0.62000
v -0.86000 0.88000 0.62000
v -0.86000 1.00000 0.62000
v -1.02000 1.00000 0.62000
v -1.02000 0.88000 0.78000
v -0.86000 0.88000 0.78000
v -0.86000 1.00000 0.78000
v -1.02000 1.00000 0.78000
v 0.86000 0.88000 -0.78000
v 1.02000 0.88000 -0.78000
v 1.02000 1.00000 -0.78000
v 0.86000 1.00000 -0.78000
v 0.86000 0.88000 -0.62000
v 1.02000 0.88000 -0.62000
v 1.02000 1.00000 -0.62000
v 0.86000 1.00000 -0.62000
v 0.86000 0.88000 0.62000
v 1.02000 0.88000 0.62000
v 1.02000 1.00000 0.62000
v 0.86000 1.00000 0.62000
v 0.86000 0.88000 0.78000
v 1.02000 0.88000 0.78000
v 1.02000 1.00000 0.78000
v 0.86000 1.00000 0.78000
v -1.18000 0.17000 -0.61000
v -1.08000 0.17000 -0.61000
v -1.08000 0.71000 -0.61000
v -1.18000 0.71000 -0.61000
v -1.18000 0.17000 -0.49000
v -1.08000 0.17000 -0.49000
v -1.08000 0.71000 -0.49000
v -1.18000 0.71000 -0.49000
v -1.18000 0.17000 -0.06000
v -1.08000 0.17000 -0.06000
v -1.08000 0.71000 -0.06000
v -1.18000 0.71000 -0.06000
v -1.18000 0.17000 0.06000
v -1.08000 0.17000 0.06000
v -1.08000 0.71000 0.06000
v -1.18000 0.71000 0.06000
v -1.18000 0.17000 0.49000
v -1.08000 0.17000 0.49000
v -1.08000 0.71000 0.49000
v -1.18000 0.71000 0.49000
v -1.18000 0.17000 0.61000
v -1.08000 0.17000 0.61000
v -1.08000 0.71000 0.61000
v -1.18000 0.71000 0.61000
v 1.26000 0.78000 -0.15000
v 1.34000 0.78000 -0.15000
v 1.34000 0.88000 -0.15000
v 1.26000 0.88000 -0.15000
v 1.26000 0.78000 0.15000
v 1.34000 0.78000 0.15000
v 1.34000 0.88000 0.15000
v 1.26000 0.88000 0.15000
vt 0.007812 0.882812
vt 0.117188 0.882812
vt 0.117188 0.992188
vt 0.007812 0.992188
vt 0.007812 0.882812
vt 0.117188 0.882812
vt 0.117188 0.992188
vt 0.007812 0.992188
vt 0.007812 0.882812
vt 0.117188 0.882812
vt 0.117188 0.992188
vt 0.007812 0.992188
vt 0.007812 0.882812
vt 0.117188 0.882812
vt 0.117188 0.992188
vt 0.007812 0.992188
vt 0.007812 0.882812
vt 0.117188 0.882812
vt 0.117188 0.992188
vt 0.007812 0.992188
vt 0.007812 0.882812
vt 0.117188 0.882812
vt 0.117188 0.992188
vt 0.007812 0.992188
vt 0.007812 0.882812
vt 0.117188 0.882812
vt 0.117188 0.992188
vt 0.007812 0.992188
vt 0.132812 0.882812
vt 0.242188 0.882812
vt 0.242188 0.992188
vt 0.132812 0.992188
vt 0.132812 0.882812
vt 0.242188 0.882812
vt 0.242188 0.992188
vt 0.132812 0.992188
vt 0.132812 0.882812
vt 0.242188 0.882812
vt 0.242188 0.992188
vt 0.132812 0.992188
vt 0.132812 0.882812
vt 0.242188 0.882812
vt 0.242188 0.992188
vt 0.132812 0.992188
vt 0.132812 0.882812
vt 0.242188 0.882812
vt 0.242188 0.992188
vt 0.132812 0.992188
vt 0.132812 0.882812
vt 0.242188 0.882812
vt 0.242188 0.992188
vt 0.132812 0.992188
vt 0.132812 0.882812
vt 0.242188 0.882812
vt 0.242188 0.992188
vt 0.132812 0.992188
vt 0.007812 0.882812
vt 0.117188 0.882812
vt 0.117188 0.992188
vt 0.007812 0.992188
vt 0.007812 0.882812
vt 0.117188 0.882812
vt 0.117188 0.992188
vt 0.007812 0.992188
vt 0.007812 0.882812
vt 0.117188 0.882812
vt 0.117188 0.992188
vt 0.007812 0.992188
vt 0.007812 0.882812
vt 0.117188 0.882812
vt 0.117188 0.992188
vt 0.007812 0.992188
vt 0.007812 0.882812
vt 0.117188 0.882812
vt 0.117188 0.992188
vt 0.007812 0.992188
vt 0.007812 0.882812
vt 0.117188 0.882812
vt 0.117188 0.992188
vt 0.007812 0.992188
vt 0.007812 0.882812
vt 0.117188 0.882812
vt 0.117188 0.992188
vt 0.007812 0.992188
vt 0.132812 0.882812
vt 0.242188 0.882812
vt 0.242188 0.992188
vt 0.132812 0.992188
vt 0.132812 0.882812
vt 0.242188 0.882812
vt 0.242188 0.992188
vt 0.132812 0.992188
vt 0.132812 0.882812
vt 0.242188 0.882812
vt 0.242188 0.992188
vt 0.132812 0.992188
vt 0.132812 0.882812
vt 0.242188 0.882812
vt 0.242188 0.992188
vt 0.132812 0.992188
vt 0.132812 0.882812
vt 0.242188 0.882812
vt 0.242188 0.992188
vt 0.132812 0.992188
vt 0.132812 0.882812
vt 0.242188 0.882812
vt 0.242188 0.992188
vt 0.132812 0.992188
vt 0.132812 0.882812
vt 0.242188 0.882812
vt 0.242188 0.992188
vt 0.132812 0.992188
vt 0.257812 0.882812
vt 0.367188 0.882812
vt 0.367188 0.992188
vt 0.257812 0.992188
vt 0.257812 0.882812
vt 0.367188 0.882812
vt 0.367188 0.992188
vt 0.257812 0.992188
vt 0.257812 0.882812
vt 0.367188 0.882812
vt 0.367188 0.992188
vt 0.257812 0.992188
vt 0.257812 0.882812
vt 0.367188 0.882812
vt 0.367188 0.992188
vt 0.257812 0.992188
vt 0.257812 0.882812
vt 0.367188 0.882812
vt 0.367188 0.992188
vt 0.257812 0.992188
vt 0.257812 0.882812
vt 0.367188 0.882812
vt 0.367188 0.992188
vt 0.257812 0.992188
vt 0.257812 0.882812
vt 0.367188 0.882812
vt 0.367188 0.992188
vt 0.257812 0.992188
vt 0.257812 0.882812
vt 0.367188 0.882812
vt 0.367188 0.992188
vt 0.257812 0.992188
vt 0.257812 0.882812
vt 0.367188 0.882812
vt 0.367188 0.992188
vt 0.257812 0.992188
vt 0.257812 0.882812
vt 0.367188 0.882812
vt 0.367188 0.992188
vt 0.257812 0.992188
vt 0.257812 0.882812
vt 0.367188 0.882812
vt 0.367188 0.992188
vt 0.257812 0.992188
vt 0.257812 0.882812
vt 0.367188 0.882812
vt 0.367188 0.992188
vt 0.257812 0.992188
vt 0.257812 0.882812
vt 0.367188 0.882812
vt 0.367188 0.992188
vt 0.257812 0.992188
vt 0.257812 0.882812
vt 0.367188 0.882812
vt 0.367188 0.992188
vt 0.257812 0.992188
vt 0.257812 0.882812
vt 0.367188 0.882812
vt 0.367188 0.992188
vt 0.257812 0.992188
vt 0.257812 0.882812
vt 0.367188 0.882812
vt 0.367188 0.992188
vt 0.257812 0.992188
vt 0.257812 0.882812
vt 0.367188 0.882812
vt 0.367188 0.992188
vt 0.257812 0.992188
vt 0.257812 0.882812
vt 0.367188 0.882812
vt 0.367188 0.992188
vt 0.257812 0.992188
vt 0.257812 0.882812
vt 0.367188 0.882812
vt 0.367188 0.992188
vt 0.257812 0.992188
vt 0.257812 0.882812
vt 0.367188 0.882812
vt 0.367188 0.992188
vt 0.257812 0.992188
vt 0.257812 0.882812
vt 0.367188 0.882812
vt 0.367188 0.992188
vt 0.257812 0.992188
vt 0.257812 0.882812
vt 0.367188 0.882812
vt 0.367188 0.992188
vt 0.257812 0.992188
vt 0.257812 0.882812
vt 0.367188 0.882812
vt 0.367188 0.992188
vt 0.257812 0.992188
vt 0.257812 0.882812
vt 0.367188 0.882812
vt 0.367188 0.992188
vt 0.257812 0.992188
vt 0.257812 0.882812
vt 0.367188 0.882812
vt 0.367188 0.992188
vt 0.257812 0.992188
vt 0.257812 0.882812
vt 0.367188 0.882812
vt 0.367188 0.992188
vt 0.257812 0.992188
vt 0.257812 0.882812
vt 0.367188 0.882812
vt 0.367188 0.992188
vt 0.257812 0.992188
vt 0.257812 0.882812
vt 0.367188 0.882812
vt 0.367188 0.992188
vt 0.257812 0.992188
vt 0.507812 0.882812
vt 0.617188 0.882812
vt 0.617188 0.992188
vt 0.507812 0.992188
vt 0.507812 0.882812
vt 0.617188 0.882812
vt 0.617188 0.992188
vt 0.507812 0.992188
vt 0.507812 0.882812
vt 0.617188 0.882812
vt 0.617188 0.992188
vt 0.507812 0.992188
vt 0.507812 0.882812
vt 0.617188 0.882812
vt 0.617188 0.992188
vt 0.507812 0.992188
vt 0.507812 0.882812
vt 0.617188 0.882812
vt 0.617188 0.992188
vt 0.507812 0.992188
vt 0.507812 0.882812
vt 0.617188 0.882812
vt 0.617188 0.992188
vt 0.507812 0.992188
vt 0.507812 0.882812
vt 0.617188 0.882812
vt 0.617188 0.992188
vt 0.507812 0.992188
vt 0.507812 0.882812
vt 0.617188 0.882812
vt 0.617188 0.992188
vt 0.507812 0.992188
vt 0.507812 0.882812
vt 0.617188 0.882812
vt 0.617188 0.992188
vt 0.507812 0.992188
vt 0.507812 0.882812
vt 0.617188 0.882812
vt 0.617188 0.992188
vt 0.507812 0.992188
vt 0.507812 0.882812
vt 0.617188 0.882812
vt 0.617188 0.992188
vt 0.507812 0.992188
vt 0.507812 0.882812
vt 0.617188 0.882812
vt 0.617188 0.992188
vt 0.507812 0.992188
vt 0.507812 0.882812
vt 0.617188 0.882812
vt 0.617188 0.992188
vt 0.507812 0.992188
vt 0.507812 0.882812
vt 0.617188 0.882812
vt 0.617188 0.992188
vt 0.507812 0.992188
vt 0.507812 0.882812
vt 0.617188 0.882812
vt 0.617188 0.992188
vt 0.507812 0.992188
vt 0.507812 0.882812
vt 0.617188 0.882812
vt 0.617188 0.992188
vt 0.507812 0.992188
vt 0.507812 0.882812
vt 0.617188 0.882812
vt 0.617188 0.992188
vt 0.507812 0.992188
vt 0.507812 0.882812
vt 0.617188 0.882812
vt 0.617188 0.992188
vt 0.507812 0.992188
vt 0.507812 0.882812
vt 0.617188 0.882812
vt 0.617188 0.992188
vt 0.507812 0.992188
vt 0.507812 0.882812
vt 0.617188 0.882812
vt 0.617188 0.992188
vt 0.507812 0.992188
vt 0.507812 0.882812
vt 0.617188 0.882812
vt 0.617188 0.992188
vt 0.507812 0.992188
vt 0.507812 0.882812
vt 0.617188 0.882812
vt 0.617188 0.992188
vt 0.507812 0.992188
vt 0.507812 0.882812
vt 0.617188 0.882812
vt 0.617188 0.992188
vt 0.507812 0.992188
vt 0.507812 0.882812
vt 0.617188 0.882812
vt 0.617188 0.992188
vt 0.507812 0.992188
vt 0.507812 0.882812
vt 0.617188 0.882812
vt 0.617188 0.992188
vt 0.507812 0.992188
vt 0.507812 0.882812
vt 0.617188 0.882812
vt 0.617188 0.992188
vt 0.507812 0.992188
vt 0.507812 0.882812
vt 0.617188 0.882812
vt 0.617188 0.992188
vt 0.507812 0.992188
vt 0.507812 0.882812
vt 0.617188 0.882812
vt 0.617188 0.992188
vt 0.507812 0.992188
vt 0.632812 0.882812
vt 0.742188 0.882812
vt 0.742188 0.992188
vt 0.632812 0.992188
vt 0.632812 0.882812
vt 0.742188 0.882812
vt 0.742188 0.992188
vt 0.632812 0.992188
vt 0.632812 0.882812
vt 0.742188 0.882812
vt 0.742188 0.992188
vt 0.632812 0.992188
vt 0.632812 0.882812
vt 0.742188 0.882812
vt 0.742188 0.992188
vt 0.632812 0.992188
vt 0.632812 0.882812
vt 0.742188 0.882812
vt 0.742188 0.992188
vt 0.632812 0.992188
vt 0.632812 0.882812
vt 0.742188 0.882812
vt 0.742188 0.992188
vt 0.632812 0.992188
vt 0.632812 0.882812
vt 0.742188 0.882812
vt 0.742188 0.992188
vt 0.632812 0.992188
vt 0.757812 0.882812
vt 0.867188 0.882812
vt 0.867188 0.992188
vt 0.757812 0.992188
vt 0.757812 0.882812
vt 0.867188 0.882812
vt 0.867188 0.992188
vt 0.757812 0.992188
vt 0.757812 0.882812
vt 0.867188 0.882812
vt 0.867188 0.992188
vt 0.757812 0.992188
vt 0.757812 0.882812
vt 0.867188 0.882812
vt 0.867188 0.992188
vt 0.757812 0.992188
vt 0.757812 0.882812
vt 0.867188 0.882812
vt 0.867188 0.992188
vt 0.757812 0.992188
vt 0.757812 0.882812
vt 0.867188 0.882812
vt 0.867188 0.992188
vt 0.757812 0.992188
vt 0.757812 0.882812
vt 0.867188 0.882812
vt 0.867188 0.992188
vt 0.757812 0.992188
vt 0.757812 0.882812
vt 0.867188 0.882812
vt 0.867188 0.992188
vt 0.757812 0.992188
vt 0.757812 0.882812
vt 0.867188 0.882812
vt 0.867188 0.992188
vt 0.757812 0.992188
vt 0.757812 0.882812
vt 0.867188 0.882812
vt 0.867188 0.992188
vt 0.757812 0.992188
vt 0.757812 0.882812
vt 0.867188 0.882812
vt 0.867188 0.992188
vt 0.757812 0.992188
vt 0.757812 0.882812
vt 0.867188 0.882812
vt 0.867188 0.992188
vt 0.757812 0.992188
vt 0.757812 0.882812
vt 0.867188 0.882812
vt 0.867188 0.992188
vt 0.757812 0.992188
vt 0.757812 0.882812
vt 0.867188 0.882812
vt 0.867188 0.992188
vt 0.757812 0.992188
vt 0.757812 0.882812
vt 0.867188 0.882812
vt 0.867188 0.992188
vt 0.757812 0.992188
vt 0.757812 0.882812
vt 0.867188 0.882812
vt 0.867188 0.992188
vt 0.757812 0.992188
vt 0.757812 0.882812
vt 0.867188 0.882812
vt 0.867188 0.992188
vt 0.757812 0.992188
vt 0.757812 0.882812
vt 0.867188 0.882812
vt 0.867188 0.992188
vt 0.757812 0.992188
vt 0.757812 0.882812
vt 0.867188 0.882812
vt 0.867188 0.992188
vt 0.757812 0.992188
vt 0.757812 0.882812
vt 0.867188 0.882812
vt 0.867188 0.992188
vt 0.757812 0.992188
vt 0.757812 0.882812
vt 0.867188 0.882812
vt 0.867188 0.992188
vt 0.757812 0.992188
vt 0.757812 0.882812
vt 0.867188 0.882812
vt 0.867188 0.992188
vt 0.757812 0.992188
vt 0.757812 0.882812
vt 0.867188 0.882812
vt 0.867188 0.992188
vt 0.757812 0.992188
vt 0.757812 0.882812
vt 0.867188 0.882812
vt 0.867188 0.992188
vt 0.757812 0.992188
vt 0.757812 0.882812
vt 0.867188 0.882812
vt 0.867188 0.992188
vt 0.757812 0.992188
vt 0.757812 0.882812
vt 0.867188 0.882812
vt 0.867188 0.992188
vt 0.757812 0.992188
vt 0.757812 0.882812
vt 0.867188 0.882812
vt 0.867188 0.992188
vt 0.757812 0.992188
vt 0.757812 0.882812
vt 0.867188 0.882812
vt 0.867188 0.992188
vt 0.757812 0.992188
vt 0.757812 0.882812
vt 0.867188 0.882812
vt 0.867188 0.992188
vt 0.757812 0.992188
vt 0.757812 0.882812
vt 0.867188 0.882812
vt 0.867188 0.992188
vt 0.757812 0.992188
vt 0.757812 0.882812
vt 0.867188 0.882812
vt 0.867188 0.992188
vt 0.757812 0.992188
vt 0.757812 0.882812
vt 0.867188 0.882812
vt 0.867188 0.992188
vt 0.757812 0.992188
vt 0.757812 0.882812
vt 0.867188 0.882812
vt 0.867188 0.992188
vt 0.757812 0.992188
vt 0.757812 0.882812
vt 0.867188 0.882812
vt 0.867188 0.992188
vt 0.757812 0.992188
vt 0.757812 0.882812
vt 0.867188 0.882812
vt 0.867188 0.992188
vt 0.757812 0.992188
vt 0.257812 0.882812
vt 0.367188 0.882812
vt 0.367188 0.992188
vt 0.257812 0.992188
vt 0.257812 0.882812
vt 0.367188 0.882812
vt 0.367188 0.992188
vt 0.257812 0.992188
vt 0.257812 0.882812
vt 0.367188 0.882812
vt 0.367188 0.992188
vt 0.257812 0.992188
vt 0.257812 0.882812
vt 0.367188 0.882812
vt 0.367188 0.992188
vt 0.257812 0.992188
vt 0.257812 0.882812
vt 0.367188 0.882812
vt 0.367188 0.992188
vt 0.257812 0.992188
vt 0.257812 0.882812
vt 0.367188 0.882812
vt 0.367188 0.992188
vt 0.257812 0.992188
vt 0.257812 0.882812
vt 0.367188 0.882812
vt 0.367188 0.992188
vt 0.257812 0.992188
vt 0.257812 0.882812
vt 0.367188 0.882812
vt 0.367188 0.992188
vt 0.257812 0.992188
vt 0.257812 0.882812
vt 0.367188 0.882812
vt 0.367188 0.992188
vt 0.257812 0.992188
vt 0.257812 0.882812
vt 0.367188 0.882812
vt 0.367188 0.992188
vt 0.257812 0.992188
vt 0.257812 0.882812
vt 0.367188 0.882812
vt 0.367188 0.992188
vt 0.257812 0.992188
vt 0.257812 0.882812
vt 0.367188 0.882812
vt 0.367188 0.992188
vt 0.257812 0.992188
vt 0.257812 0.882812
vt 0.367188 0.882812
vt 0.367188 0.992188
vt 0.257812 0.992188
vt 0.257812 0.882812
vt 0.367188 0.882812
vt 0.367188 0.992188
vt 0.257812 0.992188
vt 0.257812 0.882812
vt 0.367188 0.882812
vt 0.367188 0.992188
vt 0.257812 0.992188
vt 0.257812 0.882812
vt 0.367188 0.882812
vt 0.367188 0.992188
vt 0.257812 0.992188
vt 0.257812 0.882812
vt 0.367188 0.882812
vt 0.367188 0.992188
vt 0.257812 0.992188
vt 0.257812 0.882812
vt 0.367188 0.882812
vt 0.367188 0.992188
vt 0.257812 0.992188
vt 0.257812 0.882812
vt 0.367188 0.882812
vt 0.367188 0.992188
vt 0.257812 0.992188
vt 0.257812 0.882812
vt 0.367188 0.882812
vt 0.367188 0.992188
vt 0.257812 0.992188
vt 0.257812 0.882812
vt 0.367188 0.882812
vt 0.367188 0.992188
vt 0.257812 0.992188
vt 0.632812 0.882812
vt 0.742188 0.882812
vt 0.742188 0.992188
vt 0.632812 0.992188
vt 0.632812 0.882812
vt 0.742188 0.882812
vt 0.742188 0.992188
vt 0.632812 0.992188
vt 0.632812 0.882812
vt 0.742188 0.882812
vt 0.742188 0.992188
vt 0.632812 0.992188
vt 0.632812 0.882812
vt 0.742188 0.882812
vt 0.742188 0.992188
vt 0.632812 0.992188
vt 0.632812 0.882812
vt 0.742188 0.882812
vt 0.742188 0.992188
vt 0.632812 0.992188
vt 0.632812 0.882812
vt 0.742188 0.882812
vt 0.742188 0.992188
vt 0.632812 0.992188
vt 0.632812 0.882812
vt 0.742188 0.882812
vt 0.742188 0.992188
vt 0.632812 0.992188
f 1/5 4/6 3/7 2/8
f 5/9 6/10 7/11 8/12
f 1/13 2/14 6/15 5/16
f 2/17 3/18 7/19 6/20
f 3/21 4/22 8/23 7/24
f 4/25 1/26 5/27 8/28
f 9/33 12/34 11/35 10/36
f 13/37 14/38 15/39 16/40
f 9/41 10/42 14/43 13/44
f 10/45 11/46 15/47 14/48
f 11/49 12/50 16/51 15/52
f 12/53 9/54 13/55 16/56
f 17/61 20/62 19/63 18/64
f 21/65 22/66 23/67 24/68
f 17/69 18/70 22/71 21/72
f 18/73 19/74 23/75 22/76
f 19/77 20/78 24/79 23/80
f 20/81 17/82 21/83 24/84
f 25/89 28/90 27/91 26/92
f 29/93 30/94 31/95 32/96
f 25/97 26/98 30/99 29/100
f 26/101 27/102 31/103 30/104
f 27/105 28/106 32/107 31/108
f 28/109 25/110 29/111 32/112
f 33/117 36/118 35/119 34/120
f 37/121 38/122 39/123 40/124
f 33/125 34/126 38/127 37/128
f 34/129 35/130 39/131 38/132
f 35/133 36/134 40/135 39/136
f 36/137 33/138 37/139 40/140
f 41/145 44/146 43/147 42/148
f 45/149 46/150 47/151 48/152
f 41/153 42/154 46/155 45/156
f 42/157 43/158 47/159 46/160
f 43/161 44/162 48/163 47/164
f 44/165 41/166 45/167 48/168
f 49/173 52/174 51/175 50/176
f 53/177 54/178 55/179 56/180
f 49/181 50/182 54/183 53/184
f 50/185 51/186 55/187 54/188
f 51/189 52/190 56/191 55/192
f 52/193 49/194 53/195 56/196
f 57/201 60/202 59/203 58/204
f 61/205 62/206 63/207 64/208
f 57/209 58/210 62/211 61/212
f 58/213 59/214 63/215 62/216
f 59/217 60/218 64/219 63/220
f 60/221 57/222 61/223 64/224
f 65/229 68/230 67/231 66/232
f 69/233 70/234 71/235 72/236
f 65/237 66/238 70/239 69/240
f 66/241 67/242 71/243 70/244
f 67/245 68/246 72/247 71/248
f 68/249 65/250 69/251 72/252
f 73/257 76/258 75/259 74/260
f 77/261 78/262 79/263 80/264
f 73/265 74/266 78/267 77/268
f 74/269 75/270 79/271 78/272
f 75/273 76/274 80/275 79/276
f 76/277 73/278 77/279 80/280
f 81/285 84/286 83/287 82/288
f 85/289 86/290 87/291 88/292
f 81/293 82/294 86/295 85/296
f 82/297 83/298 87/299 86/300
f 83/301 84/302 88/303 87/304
f 84/305 81/306 85/307 88/308
f 89/313 92/314 91/315 90/316
f 93/317 94/318 95/319 96/320
f 89/321 90/322 94/323 93/324
f 90/325 91/326 95/327 94/328
f 91/329 92/330 96/331 95/332
f 92/333 89/334 93/335 96/336
f 97/341 100/342 99/343 98/344
f 101/345 102/346 103/347 104/348
f 97/349 98/350 102/351 101/352
f 98/353 99/354 103/355 102/356
f 99/357 100/358 104/359 103/360
f 100/361 97/362 101/363 104/364
f 105/369 108/370 107/371 106/372
f 109/373 110/374 111/375 112/376
f 105/377 106/378 110/379 109/380
f 106/381 107/382 111/383 110/384
f 107/385 108/386 112/387 111/388
f 108/389 105/390 109/391 112/392
f 113/397 116/398 115/399 114/400
f 117/401 118/402 119/403 120/404
f 113/405 114/406 118/407 117/408
f 114/409 115/410 119/411 118/412
f 115/413 116/414 120/415 119/416
f 116/417 113/418 117/419 120/420
f 121/425 124/426 123/427 122/428
f 125/429 126/430 127/431 128/432
f 121/433 122/434 126/435 125/436
f 122/437 123/438 127/439 126/440
f 123/441 124/442 128/443 127/444
f 124/445 121/446 125/447 128/448
f 129/453 132/454 131/455 130/456
f 133/457 134/458 135/459 136/460
f 129/461 130/462 134/463 133/464
f 130/465 131/466 135/467 134/468
f 131/469 132/470 136/471 135/472
f 132/473 129/474 133/475 136/476
f 137/481 140/482 139/483 138/484
f 141/485 142/486 143/487 144/488
f 137/489 138/490 142/491 141/492
f 138/493 139/494 143/495 142/496
f 139/497 140/498 144/499 143/500
f 140/501 137/502 141/503 144/504
f 145/509 148/510 147/511 146/512
f 149/513 150/514 151/515 152/516
f 145/517 146/518 150/519 149/520
f 146/521 147/522 151/523 150/524
f 147/525 148/526 152/527 151/528
f 148/529 145/530 149/531 152/532
f 153/537 156/538 155/539 154/540
f 157/541 158/542 159/543 160/544
f 153/545 154/546 158/547 157/548
f 154/549 155/550 159/551 158/552
f 155/553 156/554 160/555 159/556
f 156/557 153/558 157/559 160/560
f 161/565 164/566 163/567 162/568
f 165/569 166/570 167/571 168/572
f 161/573 162/574 166/575 165/576
f 162/577 163/578 167/579 166/580
f 163/581 164/582 168/583 167/584
f 164/585 161/586 165/587 168/588
f 169/593 172/594 171/595 170/596
f 173/597 174/598 175/599 176/600
f 169/601 170/602 174/603 173/604
f 170/605 171/606 175/607 174/608
f 171/609 172/610 176/611 175/612
f 172/613 169/614 173/615 176/616
