# Voxel tower construction crane structure
mtllib tower_crane.mtl
o tower_crane
usemtl tower_crane_mat
v -1.00000 0.00000 -1.00000
v 1.00000 0.00000 -1.00000
v 1.00000 0.36000 -1.00000
v -1.00000 0.36000 -1.00000
v -1.00000 0.00000 1.00000
v 1.00000 0.00000 1.00000
v 1.00000 0.36000 1.00000
v -1.00000 0.36000 1.00000
v -0.53000 0.15000 -0.53000
v -0.31000 0.15000 -0.53000
v -0.31000 5.15000 -0.53000
v -0.53000 5.15000 -0.53000
v -0.53000 0.15000 -0.31000
v -0.31000 0.15000 -0.31000
v -0.31000 5.15000 -0.31000
v -0.53000 5.15000 -0.31000
v -0.53000 0.15000 0.31000
v -0.31000 0.15000 0.31000
v -0.31000 5.15000 0.31000
v -0.53000 5.15000 0.31000
v -0.53000 0.15000 0.53000
v -0.31000 0.15000 0.53000
v -0.31000 5.15000 0.53000
v -0.53000 5.15000 0.53000
v 0.31000 0.15000 -0.53000
v 0.53000 0.15000 -0.53000
v 0.53000 5.15000 -0.53000
v 0.31000 5.15000 -0.53000
v 0.31000 0.15000 -0.31000
v 0.53000 0.15000 -0.31000
v 0.53000 5.15000 -0.31000
v 0.31000 5.15000 -0.31000
v 0.31000 0.15000 0.31000
v 0.53000 0.15000 0.31000
v 0.53000 5.15000 0.31000
v 0.31000 5.15000 0.31000
v 0.31000 0.15000 0.53000
v 0.53000 0.15000 0.53000
v 0.53000 5.15000 0.53000
v 0.31000 5.15000 0.53000
v -0.52500 0.37500 -0.50000
v 0.52500 0.37500 -0.50000
v 0.52500 0.52500 -0.50000
v -0.52500 0.52500 -0.50000
v -0.52500 0.37500 -0.34000
v 0.52500 0.37500 -0.34000
v 0.52500 0.52500 -0.34000
v -0.52500 0.52500 -0.34000
v -0.52500 0.37500 0.34000
v 0.52500 0.37500 0.34000
v 0.52500 0.52500 0.34000
v -0.52500 0.52500 0.34000
v -0.52500 0.37500 0.50000
v 0.52500 0.37500 0.50000
v 0.52500 0.52500 0.50000
v -0.52500 0.52500 0.50000
v -0.50000 0.37500 -0.52500
v -0.34000 0.37500 -0.52500
v -0.34000 0.52500 -0.52500
v -0.50000 0.52500 -0.52500
v -0.50000 0.37500 0.52500
v -0.34000 0.37500 0.52500
v -0.34000 0.52500 0.52500
v -0.50000 0.52500 0.52500
v 0.34000 0.37500 -0.52500
v 0.50000 0.37500 -0.52500
v 0.50000 0.52500 -0.52500
v 0.34000 0.52500 -0.52500
v 0.34000 0.37500 0.52500
v 0.50000 0.37500 0.52500
v 0.50000 0.52500 0.52500
v 0.34000 0.52500 0.52500
v -0.52500 1.37500 -0.50000
v 0.52500 1.37500 -0.50000
v 0.52500 1.52500 -0.50000
v -0.52500 1.52500 -0.50000
v -0.52500 1.37500 -0.34000
v 0.52500 1.37500 -0.34000
v 0.52500 1.52500 -0.34000
v -0.52500 1.52500 -0.34000
v -0.52500 1.37500 0.34000
v 0.52500 1.37500 0.34000
v 0.52500 1.52500 0.34000
v -0.52500 1.52500 0.34000
v -0.52500 1.37500 0.50000
v 0.52500 1.37500 0.50000
v 0.52500 1.52500 0.50000
v -0.52500 1.52500 0.50000
v -0.50000 1.37500 -0.52500
v -0.34000 1.37500 -0.52500
v -0.34000 1.52500 -0.52500
v -0.50000 1.52500 -0.52500
v -0.50000 1.37500 0.52500
v -0.34000 1.37500 0.52500
v -0.34000 1.52500 0.52500
v -0.50000 1.52500 0.52500
v 0.34000 1.37500 -0.52500
v 0.50000 1.37500 -0.52500
v 0.50000 1.52500 -0.52500
v 0.34000 1.52500 -0.52500
v 0.34000 1.37500 0.52500
v 0.50000 1.37500 0.52500
v 0.50000 1.52500 0.52500
v 0.34000 1.52500 0.52500
v -0.52500 2.37500 -0.50000
v 0.52500 2.37500 -0.50000
v 0.52500 2.52500 -0.50000
v -0.52500 2.52500 -0.50000
v -0.52500 2.37500 -0.34000
v 0.52500 2.37500 -0.34000
v 0.52500 2.52500 -0.34000
v -0.52500 2.52500 -0.34000
v -0.52500 2.37500 0.34000
v 0.52500 2.37500 0.34000
v 0.52500 2.52500 0.34000
v -0.52500 2.52500 0.34000
v -0.52500 2.37500 0.50000
v 0.52500 2.37500 0.50000
v 0.52500 2.52500 0.50000
v -0.52500 2.52500 0.50000
v -0.50000 2.37500 -0.52500
v -0.34000 2.37500 -0.52500
v -0.34000 2.52500 -0.52500
v -0.50000 2.52500 -0.52500
v -0.50000 2.37500 0.52500
v -0.34000 2.37500 0.52500
v -0.34000 2.52500 0.52500
v -0.50000 2.52500 0.52500
v 0.34000 2.37500 -0.52500
v 0.50000 2.37500 -0.52500
v 0.50000 2.52500 -0.52500
v 0.34000 2.52500 -0.52500
v 0.34000 2.37500 0.52500
v 0.50000 2.37500 0.52500
v 0.50000 2.52500 0.52500
v 0.34000 2.52500 0.52500
v -0.52500 3.37500 -0.50000
v 0.52500 3.37500 -0.50000
v 0.52500 3.52500 -0.50000
v -0.52500 3.52500 -0.50000
v -0.52500 3.37500 -0.34000
v 0.52500 3.37500 -0.34000
v 0.52500 3.52500 -0.34000
v -0.52500 3.52500 -0.34000
v -0.52500 3.37500 0.34000
v 0.52500 3.37500 0.34000
v 0.52500 3.52500 0.34000
v -0.52500 3.52500 0.34000
v -0.52500 3.37500 0.50000
v 0.52500 3.37500 0.50000
v 0.52500 3.52500 0.50000
v -0.52500 3.52500 0.50000
v -0.50000 3.37500 -0.52500
v -0.34000 3.37500 -0.52500
v -0.34000 3.52500 -0.52500
v -0.50000 3.52500 -0.52500
v -0.50000 3.37500 0.52500
v -0.34000 3.37500 0.52500
v -0.34000 3.52500 0.52500
v -0.50000 3.52500 0.52500
v 0.34000 3.37500 -0.52500
v 0.50000 3.37500 -0.52500
v 0.50000 3.52500 -0.52500
v 0.34000 3.52500 -0.52500
v 0.34000 3.37500 0.52500
v 0.50000 3.37500 0.52500
v 0.50000 3.52500 0.52500
v 0.34000 3.52500 0.52500
v -0.52500 4.37500 -0.50000
v 0.52500 4.37500 -0.50000
v 0.52500 4.52500 -0.50000
v -0.52500 4.52500 -0.50000
v -0.52500 4.37500 -0.34000
v 0.52500 4.37500 -0.34000
v 0.52500 4.52500 -0.34000
v -0.52500 4.52500 -0.34000
v -0.52500 4.37500 0.34000
v 0.52500 4.37500 0.34000
v 0.52500 4.52500 0.34000
v -0.52500 4.52500 0.34000
v -0.52500 4.37500 0.50000
v 0.52500 4.37500 0.50000
v 0.52500 4.52500 0.50000
v -0.52500 4.52500 0.50000
v -0.50000 4.37500 -0.52500
v -0.34000 4.37500 -0.52500
v -0.34000 4.52500 -0.52500
v -0.50000 4.52500 -0.52500
v -0.50000 4.37500 0.52500
v -0.34000 4.37500 0.52500
v -0.34000 4.52500 0.52500
v -0.50000 4.52500 0.52500
v 0.34000 4.37500 -0.52500
v 0.50000 4.37500 -0.52500
v 0.50000 4.52500 -0.52500
v 0.34000 4.52500 -0.52500
v 0.34000 4.37500 0.52500
v 0.50000 4.37500 0.52500
v 0.50000 4.52500 0.52500
v 0.34000 4.52500 0.52500
v -0.52500 5.07500 -0.50000
v 0.52500 5.07500 -0.50000
v 0.52500 5.22500 -0.50000
v -0.52500 5.22500 -0.50000
v -0.52500 5.07500 -0.34000
v 0.52500 5.07500 -0.34000
v 0.52500 5.22500 -0.34000
v -0.52500 5.22500 -0.34000
v -0.52500 5.07500 0.34000
v 0.52500 5.07500 0.34000
v 0.52500 5.22500 0.34000
v -0.52500 5.22500 0.34000
v -0.52500 5.07500 0.50000
v 0.52500 5.07500 0.50000
v 0.52500 5.22500 0.50000
v -0.52500 5.22500 0.50000
v -0.50000 5.07500 -0.52500
v -0.34000 5.07500 -0.52500
v -0.34000 5.22500 -0.52500
v -0.50000 5.22500 -0.52500
v -0.50000 5.07500 0.52500
v -0.34000 5.07500 0.52500
v -0.34000 5.22500 0.52500
v -0.50000 5.22500 0.52500
v 0.34000 5.07500 -0.52500
v 0.50000 5.07500 -0.52500
v 0.50000 5.22500 -0.52500
v 0.34000 5.22500 -0.52500
v 0.34000 5.07500 0.52500
v 0.50000 5.07500 0.52500
v 0.50000 5.22500 0.52500
v 0.34000 5.22500 0.52500
v -0.52500 0.88500 -0.49000
v 0.52500 0.88500 -0.49000
v 0.52500 1.01500 -0.49000
v -0.52500 1.01500 -0.49000
v -0.52500 0.88500 -0.35000
v 0.52500 0.88500 -0.35000
v 0.52500 1.01500 -0.35000
v -0.52500 1.01500 -0.35000
v -0.52500 0.88500 -0.49000
v 0.52500 0.88500 -0.49000
v 0.52500 1.01500 -0.49000
v -0.52500 1.01500 -0.49000
v -0.52500 0.88500 -0.35000
v 0.52500 0.88500 -0.35000
v 0.52500 1.01500 -0.35000
v -0.52500 1.01500 -0.35000
v -0.52500 0.88500 0.35000
v 0.52500 0.88500 0.35000
v 0.52500 1.01500 0.35000
v -0.52500 1.01500 0.35000
v -0.52500 0.88500 0.49000
v 0.52500 0.88500 0.49000
v 0.52500 1.01500 0.49000
v -0.52500 1.01500 0.49000
v -0.52500 0.88500 0.35000
v 0.52500 0.88500 0.35000
v 0.52500 1.01500 0.35000
v -0.52500 1.01500 0.35000
v -0.52500 0.88500 0.49000
v 0.52500 0.88500 0.49000
v 0.52500 1.01500 0.49000
v -0.52500 1.01500 0.49000
v -0.52500 1.88500 -0.49000
v 0.52500 1.88500 -0.49000
v 0.52500 2.01500 -0.49000
v -0.52500 2.01500 -0.49000
v -0.52500 1.88500 -0.35000
v 0.52500 1.88500 -0.35000
v 0.52500 2.01500 -0.35000
v -0.52500 2.01500 -0.35000
v -0.52500 1.88500 -0.49000
v 0.52500 1.88500 -0.49000
v 0.52500 2.01500 -0.49000
v -0.52500 2.01500 -0.49000
v -0.52500 1.88500 -0.35000
v 0.52500 1.88500 -0.35000
v 0.52500 2.01500 -0.35000
v -0.52500 2.01500 -0.35000
v -0.52500 1.88500 0.35000
v 0.52500 1.88500 0.35000
v 0.52500 2.01500 0.35000
v -0.52500 2.01500 0.35000
v -0.52500 1.88500 0.49000
v 0.52500 1.88500 0.49000
v 0.52500 2.01500 0.49000
v -0.52500 2.01500 0.49000
v -0.52500 1.88500 0.35000
v 0.52500 1.88500 0.35000
v 0.52500 2.01500 0.35000
v -0.52500 2.01500 0.35000
v -0.52500 1.88500 0.49000
v 0.52500 1.88500 0.49000
v 0.52500 2.01500 0.49000
v -0.52500 2.01500 0.49000
v -0.52500 2.88500 -0.49000
v 0.52500 2.88500 -0.49000
v 0.52500 3.01500 -0.49000
v -0.52500 3.01500 -0.49000
v -0.52500 2.88500 -0.35000
v 0.52500 2.88500 -0.35000
v 0.52500 3.01500 -0.35000
v -0.52500 3.01500 -0.35000
v -0.52500 2.88500 -0.49000
v 0.52500 2.88500 -0.49000
v 0.52500 3.01500 -0.49000
v -0.52500 3.01500 -0.49000
v -0.52500 2.88500 -0.35000
v 0.52500 2.88500 -0.35000
v 0.52500 3.01500 -0.35000
v -0.52500 3.01500 -0.35000
v -0.55154 0.88500 0.03255
v 0.45255 0.88500 -0.97154
v 0.45255 1.01500 -0.97154
v -0.55154 1.01500 0.03255
v -0.45255 0.88500 0.13154
v 0.55154 0.88500 -0.87255
v 0.55154 1.01500 -0.87255
v -0.45255 1.01500 0.13154
v -0.45255 0.88500 -0.97154
v 0.55154 0.88500 0.03255
v 0.55154 1.01500 0.03255
v -0.45255 1.01500 -0.97154
v -0.55154 0.88500 -0.87255
v 0.45255 0.88500 0.13154
v 0.45255 1.01500 0.13154
v -0.55154 1.01500 -0.87255
v -0.55154 0.88500 0.87255
v 0.45255 0.88500 -0.13154
v 0.45255 1.01500 -0.13154
v -0.55154 1.01500 0.87255
v -0.45255 0.88500 0.97154
v 0.55154 0.88500 -0.03255
v 0.55154 1.01500 -0.03255
v -0.45255 1.01500 0.97154
v -0.45255 0.88500 -0.13154
v 0.55154 0.88500 0.87255
v 0.55154 1.01500 0.87255
v -0.45255 1.01500 -0.13154
v -0.55154 0.88500 -0.03255
v 0.45255 0.88500 0.97154
v 0.45255 1.01500 0.97154
v -0.55154 1.01500 -0.03255
v -0.55154 1.88500 0.03255
v 0.45255 1.88500 -0.97154
v 0.45255 2.01500 -0.97154
v -0.55154 2.01500 0.03255
v -0.45255 1.88500 0.13154
v 0.55154 1.88500 -0.87255
v 0.55154 2.01500 -0.87255
v -0.45255 2.01500 0.13154
v -0.45255 1.88500 -0.97154
v 0.55154 1.88500 0.03255
v 0.55154 2.01500 0.03255
v -0.45255 2.01500 -0.97154
v -0.55154 1.88500 -0.87255
v 0.45255 1.88500 0.13154
v 0.45255 2.01500 0.13154
v -0.55154 2.01500 -0.87255
v -0.55154 1.88500 0.87255
v 0.45255 1.88500 -0.13154
v 0.45255 2.01500 -0.13154
v -0.55154 2.01500 0.87255
v -0.45255 1.88500 0.97154
v 0.55154 1.88500 -0.03255
v 0.55154 2.01500 -0.03255
v -0.45255 2.01500 0.97154
v -0.45255 1.88500 -0.13154
v 0.55154 1.88500 0.87255
v 0.55154 2.01500 0.87255
v -0.45255 2.01500 -0.13154
v -0.55154 1.88500 -0.03255
v 0.45255 1.88500 0.97154
v 0.45255 2.01500 0.97154
v -0.55154 2.01500 -0.03255
v -0.55154 2.88500 0.03255
v 0.45255 2.88500 -0.97154
v 0.45255 3.01500 -0.97154
v -0.55154 3.01500 0.03255
v -0.45255 2.88500 0.13154
v 0.55154 2.88500 -0.87255
v 0.55154 3.01500 -0.87255
v -0.45255 3.01500 0.13154
v -0.45255 2.88500 -0.97154
v 0.55154 2.88500 0.03255
v 0.55154 3.01500 0.03255
v -0.45255 3.01500 -0.97154
v -0.55154 2.88500 -0.87255
v 0.45255 2.88500 0.13154
v 0.45255 3.01500 0.13154
v -0.55154 3.01500 -0.87255
v -0.55154 2.88500 0.87255
v 0.45255 2.88500 -0.13154
v 0.45255 3.01500 -0.13154
v -0.55154 3.01500 0.87255
v -0.45255 2.88500 0.97154
v 0.55154 2.88500 -0.03255
v 0.55154 3.01500 -0.03255
v -0.45255 3.01500 0.97154
v -0.45255 2.88500 -0.13154
v 0.55154 2.88500 0.87255
v 0.55154 3.01500 0.87255
v -0.45255 3.01500 -0.13154
v -0.55154 2.88500 -0.03255
v 0.45255 2.88500 0.97154
v 0.45255 3.01500 0.97154
v -0.55154 3.01500 -0.03255
v -0.55154 3.88500 0.03255
v 0.45255 3.88500 -0.97154
v 0.45255 4.01500 -0.97154
v -0.55154 4.01500 0.03255
v -0.45255 3.88500 0.13154
v 0.55154 3.88500 -0.87255
v 0.55154 4.01500 -0.87255
v -0.45255 4.01500 0.13154
v -0.45255 3.88500 -0.97154
v 0.55154 3.88500 0.03255
v 0.55154 4.01500 0.03255
v -0.45255 4.01500 -0.97154
v -0.55154 3.88500 -0.87255
v 0.45255 3.88500 0.13154
v 0.45255 4.01500 0.13154
v -0.55154 4.01500 -0.87255
v -0.55154 3.88500 0.87255
v 0.45255 3.88500 -0.13154
v 0.45255 4.01500 -0.13154
v -0.55154 4.01500 0.87255
v -0.45255 3.88500 0.97154
v 0.55154 3.88500 -0.03255
v 0.55154 4.01500 -0.03255
v -0.45255 4.01500 0.97154
v -0.45255 3.88500 -0.13154
v 0.55154 3.88500 0.87255
v 0.55154 4.01500 0.87255
v -0.45255 4.01500 -0.13154
v -0.55154 3.88500 -0.03255
v 0.45255 3.88500 0.97154
v 0.45255 4.01500 0.97154
v -0.55154 4.01500 -0.03255
v -0.55154 4.73500 0.03255
v 0.45255 4.73500 -0.97154
v 0.45255 4.86500 -0.97154
v -0.55154 4.86500 0.03255
v -0.45255 4.73500 0.13154
v 0.55154 4.73500 -0.87255
v 0.55154 4.86500 -0.87255
v -0.45255 4.86500 0.13154
v -0.45255 4.73500 -0.97154
v 0.55154 4.73500 0.03255
v 0.55154 4.86500 0.03255
v -0.45255 4.86500 -0.97154
v -0.55154 4.73500 -0.87255
v 0.45255 4.73500 0.13154
v 0.45255 4.86500 0.13154
v -0.55154 4.86500 -0.87255
v -0.55154 4.73500 0.87255
v 0.45255 4.73500 -0.13154
v 0.45255 4.86500 -0.13154
v -0.55154 4.86500 0.87255
v -0.45255 4.73500 0.97154
v 0.55154 4.73500 -0.03255
v 0.55154 4.86500 -0.03255
v -0.45255 4.86500 0.97154
v -0.45255 4.73500 -0.13154
v 0.55154 4.73500 0.87255
v 0.55154 4.86500 0.87255
v -0.45255 4.86500 -0.13154
v -0.55154 4.73500 -0.03255
v 0.45255 4.73500 0.97154
v 0.45255 4.86500 0.97154
v -0.55154 4.86500 -0.03255
v -0.67500 5.17500 -0.62500
v 0.67500 5.17500 -0.62500
v 0.67500 5.52500 -0.62500
v -0.67500 5.52500 -0.62500
v -0.67500 5.17500 0.62500
v 0.67500 5.17500 0.62500
v 0.67500 5.52500 0.62500
v -0.67500 5.52500 0.62500
v -0.77500 5.53000 -0.67500
v 0.77500 5.53000 -0.67500
v 0.77500 5.77000 -0.67500
v -0.77500 5.77000 -0.67500
v -0.77500 5.53000 0.67500
v 0.77500 5.53000 0.67500
v 0.77500 5.77000 0.67500
v -0.77500 5.77000 0.67500
v -0.31000 5.77500 -0.31000
v 0.31000 5.77500 -0.31000
v 0.31000 6.12500 -0.31000
v -0.31000 6.12500 -0.31000
v -0.31000 5.77500 0.31000
v 0.31000 5.77500 0.31000
v 0.31000 6.12500 0.31000
v -0.31000 6.12500 0.31000
v -0.10000 5.95000 -0.10000
v 0.10000 5.95000 -0.10000
v 0.10000 6.55000 -0.10000
v -0.10000 6.55000 -0.10000
v -0.10000 5.95000 0.10000
v 0.10000 5.95000 0.10000
v 0.10000 6.55000 0.10000
v -0.10000 6.55000 0.10000
v 0.05000 5.71000 0.05000
v 0.65000 5.71000 0.05000
v 0.65000 6.19000 0.05000
v 0.05000 6.19000 0.05000
v 0.05000 5.71000 0.65000
v 0.65000 5.71000 0.65000
v 0.65000 6.19000 0.65000
v 0.05000 6.19000 0.65000
v 0.11000 5.81000 0.01000
v 0.59000 5.81000 0.01000
v 0.59000 6.15000 0.01000
v 0.11000 6.15000 0.01000
v 0.11000 5.81000 0.07000
v 0.59000 5.81000 0.07000
v 0.59000 6.15000 0.07000
v 0.11000 6.15000 0.07000
v -0.35000 6.25000 -0.17000
v 4.85000 6.25000 -0.17000
v 4.85000 6.45000 -0.17000
v -0.35000 6.45000 -0.17000
v -0.35000 6.25000 0.17000
v 4.85000 6.25000 0.17000
v 4.85000 6.45000 0.17000
v -0.35000 6.45000 0.17000
v -0.35000 6.85000 -0.17000
v 4.85000 6.85000 -0.17000
v 4.85000 7.05000 -0.17000
v -0.35000 7.05000 -0.17000
v -0.35000 6.85000 0.17000
v 4.85000 6.85000 0.17000
v 4.85000 7.05000 0.17000
v -0.35000 7.05000 0.17000
v -0.35000 6.58000 -0.19000
v 4.85000 6.58000 -0.19000
v 4.85000 6.72000 -0.19000
v -0.35000 6.72000 -0.19000
v -0.35000 6.58000 -0.05000
v 4.85000 6.58000 -0.05000
v 4.85000 6.72000 -0.05000
v -0.35000 6.72000 -0.05000
v -0.35000 6.58000 0.05000
v 4.85000 6.58000 0.05000
v 4.85000 6.72000 0.05000
v -0.35000 6.72000 0.05000
v -0.35000 6.58000 0.19000
v 4.85000 6.58000 0.19000
v 4.85000 6.72000 0.19000
v -0.35000 6.72000 0.19000
v -0.31000 6.34000 -0.09000
v -0.19000 6.34000 -0.09000
v -0.19000 6.96000 -0.09000
v -0.31000 6.96000 -0.09000
v -0.31000 6.34000 0.09000
v -0.19000 6.34000 0.09000
v -0.19000 6.96000 0.09000
v -0.31000 6.96000 0.09000
v 0.49000 6.34000 -0.09000
v 0.61000 6.34000 -0.09000
v 0.61000 6.96000 -0.09000
v 0.49000 6.96000 -0.09000
v 0.49000 6.34000 0.09000
v 0.61000 6.34000 0.09000
v 0.61000 6.96000 0.09000
v 0.49000 6.96000 0.09000
v 1.29000 6.34000 -0.09000
v 1.41000 6.34000 -0.09000
v 1.41000 6.96000 -0.09000
v 1.29000 6.96000 -0.09000
v 1.29000 6.34000 0.09000
v 1.41000 6.34000 0.09000
v 1.41000 6.96000 0.09000
v 1.29000 6.96000 0.09000
v 2.09000 6.34000 -0.09000
v 2.21000 6.34000 -0.09000
v 2.21000 6.96000 -0.09000
v 2.09000 6.96000 -0.09000
v 2.09000 6.34000 0.09000
v 2.21000 6.34000 0.09000
v 2.21000 6.96000 0.09000
v 2.09000 6.96000 0.09000
v 2.89000 6.34000 -0.09000
v 3.01000 6.34000 -0.09000
v 3.01000 6.96000 -0.09000
v 2.89000 6.96000 -0.09000
v 2.89000 6.34000 0.09000
v 3.01000 6.34000 0.09000
v 3.01000 6.96000 0.09000
v 2.89000 6.96000 0.09000
v 3.69000 6.34000 -0.09000
v 3.81000 6.34000 -0.09000
v 3.81000 6.96000 -0.09000
v 3.69000 6.96000 -0.09000
v 3.69000 6.34000 0.09000
v 3.81000 6.34000 0.09000
v 3.81000 6.96000 0.09000
v 3.69000 6.96000 0.09000
v 4.49000 6.34000 -0.09000
v 4.61000 6.34000 -0.09000
v 4.61000 6.96000 -0.09000
v 4.49000 6.96000 -0.09000
v 4.49000 6.34000 0.09000
v 4.61000 6.34000 0.09000
v 4.61000 6.96000 0.09000
v 4.49000 6.96000 0.09000
v -0.37527 6.59000 0.22627
v 0.17627 6.59000 -0.32527
v 0.17627 6.71000 -0.32527
v -0.37527 6.71000 0.22627
v -0.27627 6.59000 0.32527
v 0.27527 6.59000 -0.22627
v 0.27527 6.71000 -0.22627
v -0.27627 6.71000 0.32527
v -0.27627 6.59000 -0.32527
v 0.27527 6.59000 0.22627
v 0.27527 6.71000 0.22627
v -0.27627 6.71000 -0.32527
v -0.37527 6.59000 -0.22627
v 0.17627 6.59000 0.32527
v 0.17627 6.71000 0.32527
v -0.37527 6.71000 -0.22627
v 0.42473 6.59000 0.22627
v 0.97627 6.59000 -0.32527
v 0.97627 6.71000 -0.32527
v 0.42473 6.71000 0.22627
v 0.52373 6.59000 0.32527
v 1.07527 6.59000 -0.22627
v 1.07527 6.71000 -0.22627
v 0.52373 6.71000 0.32527
v 0.52373 6.59000 -0.32527
v 1.07527 6.59000 0.22627
v 1.07527 6.71000 0.22627
v 0.52373 6.71000 -0.32527
v 0.42473 6.59000 -0.22627
v 0.97627 6.59000 0.32527
v 0.97627 6.71000 0.32527
v 0.42473 6.71000 -0.22627
v 1.22473 6.59000 0.22627
v 1.77627 6.59000 -0.32527
v 1.77627 6.71000 -0.32527
v 1.22473 6.71000 0.22627
v 1.32373 6.59000 0.32527
v 1.87527 6.59000 -0.22627
v 1.87527 6.71000 -0.22627
v 1.32373 6.71000 0.32527
v 1.32373 6.59000 -0.32527
v 1.87527 6.59000 0.22627
v 1.87527 6.71000 0.22627
v 1.32373 6.71000 -0.32527
v 1.22473 6.59000 -0.22627
v 1.77627 6.59000 0.32527
v 1.77627 6.71000 0.32527
v 1.22473 6.71000 -0.22627
v 2.02473 6.59000 0.22627
v 2.57627 6.59000 -0.32527
v 2.57627 6.71000 -0.32527
v 2.02473 6.71000 0.22627
v 2.12373 6.59000 0.32527
v 2.67527 6.59000 -0.22627
v 2.67527 6.71000 -0.22627
v 2.12373 6.71000 0.32527
v 2.12373 6.59000 -0.32527
v 2.67527 6.59000 0.22627
v 2.67527 6.71000 0.22627
v 2.12373 6.71000 -0.32527
v 2.02473 6.59000 -0.22627
v 2.57627 6.59000 0.32527
v 2.57627 6.71000 0.32527
v 2.02473 6.71000 -0.22627
v 2.82473 6.59000 0.22627
v 3.37627 6.59000 -0.32527
v 3.37627 6.71000 -0.32527
v 2.82473 6.71000 0.22627
v 2.92373 6.59000 0.32527
v 3.47527 6.59000 -0.22627
v 3.47527 6.71000 -0.22627
v 2.92373 6.71000 0.32527
v 2.92373 6.59000 -0.32527
v 3.47527 6.59000 0.22627
v 3.47527 6.71000 0.22627
v 2.92373 6.71000 -0.32527
v 2.82473 6.59000 -0.22627
v 3.37627 6.59000 0.32527
v 3.37627 6.71000 0.32527
v 2.82473 6.71000 -0.22627
v 3.62473 6.59000 0.22627
v 4.17627 6.59000 -0.32527
v 4.17627 6.71000 -0.32527
v 3.62473 6.71000 0.22627
v 3.72373 6.59000 0.32527
v 4.27527 6.59000 -0.22627
v 4.27527 6.71000 -0.22627
v 3.72373 6.71000 0.32527
v 3.72373 6.59000 -0.32527
v 4.27527 6.59000 0.22627
v 4.27527 6.71000 0.22627
v 3.72373 6.71000 -0.32527
v 3.62473 6.59000 -0.22627
v 4.17627 6.59000 0.32527
v 4.17627 6.71000 0.32527
v 3.62473 6.71000 -0.22627
v -2.62500 6.25000 -0.17000
v -0.27500 6.25000 -0.17000
v -0.27500 6.45000 -0.17000
v -2.62500 6.45000 -0.17000
v -2.62500 6.25000 0.17000
v -0.27500 6.25000 0.17000
v -0.27500 6.45000 0.17000
v -2.62500 6.45000 0.17000
v -2.62500 6.85000 -0.17000
v -0.27500 6.85000 -0.17000
v -0.27500 7.05000 -0.17000
v -2.62500 7.05000 -0.17000
v -2.62500 6.85000 0.17000
v -0.27500 6.85000 0.17000
v -0.27500 7.05000 0.17000
v -2.62500 7.05000 0.17000
v -2.60000 6.59000 -0.09000
v -0.30000 6.59000 -0.09000
v -0.30000 6.71000 -0.09000
v -2.60000 6.71000 -0.09000
v -2.60000 6.59000 0.09000
v -0.30000 6.59000 0.09000
v -0.30000 6.71000 0.09000
v -2.60000 6.71000 0.09000
v -2.46000 5.86000 -0.30000
v -2.04000 5.86000 -0.30000
v -2.04000 6.44000 -0.30000
v -2.46000 6.44000 -0.30000
v -2.46000 5.86000 0.30000
v -2.04000 5.86000 0.30000
v -2.04000 6.44000 0.30000
v -2.46000 6.44000 0.30000
v -1.96000 5.86000 -0.30000
v -1.54000 5.86000 -0.30000
v -1.54000 6.44000 -0.30000
v -1.96000 6.44000 -0.30000
v -1.96000 5.86000 0.30000
v -1.54000 5.86000 0.30000
v -1.54000 6.44000 0.30000
v -1.96000 6.44000 0.30000
v -1.46000 5.86000 -0.30000
v -1.04000 5.86000 -0.30000
v -1.04000 6.44000 -0.30000
v -1.46000 6.44000 -0.30000
v -1.46000 5.86000 0.30000
v -1.04000 5.86000 0.30000
v -1.04000 6.44000 0.30000
v -1.46000 6.44000 0.30000
v -0.75000 6.20000 -0.35000
v 0.05000 6.20000 -0.35000
v 0.05000 6.80000 -0.35000
v -0.75000 6.80000 -0.35000
v -0.75000 6.20000 0.35000
v 0.05000 6.20000 0.35000
v 0.05000 6.80000 0.35000
v -0.75000 6.80000 0.35000
v -0.50000 6.77500 -0.37000
v -0.20000 6.77500 -0.37000
v -0.20000 7.02500 -0.37000
v -0.50000 7.02500 -0.37000
v -0.50000 6.77500 0.37000
v -0.20000 6.77500 0.37000
v -0.20000 7.02500 0.37000
v -0.50000 7.02500 0.37000
v -0.51314 6.02500 0.00000
v -0.40000 6.02500 -0.11314
v -0.40000 7.27500 -0.11314
v -0.51314 7.27500 0.00000
v -0.40000 6.02500 0.11314
v -0.28686 6.02500 0.00000
v -0.28686 7.27500 0.00000
v -0.40000 7.27500 0.11314
v 0.40000 6.02500 -0.11314
v 0.51314 6.02500 0.00000
v 0.51314 7.27500 0.00000
v 0.40000 7.27500 -0.11314
v 0.28686 6.02500 0.00000
v 0.40000 6.02500 0.11314
v 0.40000 7.27500 0.11314
v 0.28686 7.27500 0.00000
v 3.19000 6.08000 -0.27500
v 3.71000 6.08000 -0.27500
v 3.71000 6.28000 -0.27500
v 3.19000 6.28000 -0.27500
v 3.19000 6.08000 0.27500
v 3.71000 6.08000 0.27500
v 3.71000 6.28000 0.27500
v 3.19000 6.28000 0.27500
v 3.39000 5.31000 -0.06000
v 3.51000 5.31000 -0.06000
v 3.51000 6.09000 -0.06000
v 3.39000 6.09000 -0.06000
v 3.39000 5.31000 0.06000
v 3.51000 5.31000 0.06000
v 3.51000 6.09000 0.06000
v 3.39000 6.09000 0.06000
v 3.24000 5.10000 -0.21000
v 3.66000 5.10000 -0.21000
v 3.66000 5.38000 -0.21000
v 3.24000 5.38000 -0.21000
v 3.24000 5.10000 0.21000
v 3.66000 5.10000 0.21000
v 3.66000 5.38000 0.21000
v 3.24000 5.38000 0.21000
v 3.30000 4.86000 -0.15000
v 3.60000 4.86000 -0.15000
v 3.60000 4.98000 -0.15000
v 3.30000 4.98000 -0.15000
v 3.30000 4.86000 0.15000
v 3.60000 4.86000 0.15000
v 3.60000 4.98000 0.15000
v 3.30000 4.98000 0.15000
vt 0.007812 0.882812
vt 0.117188 0.882812
vt 0.117188 0.992188
vt 0.007812 0.992188
vt 0.007812 0.882812
vt 0.117188 0.882812
vt 0.117188 0.992188
vt 0.007812 0.992188
vt 0.007812 0.882812
vt 0.117188 0.882812
vt 0.117188 0.992188
vt 0.007812 0.992188
vt 0.007812 0.882812
vt 0.117188 0.882812
vt 0.117188 0.992188
vt 0.007812 0.992188
vt 0.007812 0.882812
vt 0.117188 0.882812
vt 0.117188 0.992188
vt 0.007812 0.992188
vt 0.007812 0.882812
vt 0.117188 0.882812
vt 0.117188 0.992188
vt 0.007812 0.992188
vt 0.132812 0.882812
vt 0.242188 0.882812
vt 0.242188 0.992188
vt 0.132812 0.992188
vt 0.132812 0.882812
vt 0.242188 0.882812
vt 0.242188 0.992188
vt 0.132812 0.992188
vt 0.132812 0.882812
vt 0.242188 0.882812
vt 0.242188 0.992188
vt 0.132812 0.992188
vt 0.132812 0.882812
vt 0.242188 0.882812
vt 0.242188 0.992188
vt 0.132812 0.992188
vt 0.132812 0.882812
vt 0.242188 0.882812
vt 0.242188 0.992188
vt 0.132812 0.992188
vt 0.132812 0.882812
vt 0.242188 0.882812
vt 0.242188 0.992188
vt 0.132812 0.992188
vt 0.132812 0.882812
vt 0.242188 0.882812
vt 0.242188 0.992188
vt 0.132812 0.992188
vt 0.132812 0.882812
vt 0.242188 0.882812
vt 0.242188 0.992188
vt 0.132812 0.992188
vt 0.132812 0.882812
vt 0.242188 0.882812
vt 0.242188 0.992188
vt 0.132812 0.992188
vt 0.132812 0.882812
vt 0.242188 0.882812
vt 0.242188 0.992188
vt 0.132812 0.992188
vt 0.132812 0.882812
vt 0.242188 0.882812
vt 0.242188 0.992188
vt 0.132812 0.992188
vt 0.132812 0.882812
vt 0.242188 0.882812
vt 0.242188 0.992188
vt 0.132812 0.992188
vt 0.132812 0.882812
vt 0.242188 0.882812
vt 0.242188 0.992188
vt 0.132812 0.992188
vt 0.132812 0.882812
vt 0.242188 0.882812
vt 0.242188 0.992188
vt 0.132812 0.992188
vt 0.132812 0.882812
vt 0.242188 0.882812
vt 0.242188 0.992188
vt 0.132812 0.992188
vt 0.132812 0.882812
vt 0.242188 0.882812
vt 0.242188 0.992188
vt 0.132812 0.992188
vt 0.132812 0.882812
vt 0.242188 0.882812
vt 0.242188 0.992188
vt 0.132812 0.992188
vt 0.132812 0.882812
vt 0.242188 0.882812
vt 0.242188 0.992188
vt 0.132812 0.992188
vt 0.132812 0.882812
vt 0.242188 0.882812
vt 0.242188 0.992188
vt 0.132812 0.992188
vt 0.132812 0.882812
vt 0.242188 0.882812
vt 0.242188 0.992188
vt 0.132812 0.992188
vt 0.132812 0.882812
vt 0.242188 0.882812
vt 0.242188 0.992188
vt 0.132812 0.992188
vt 0.132812 0.882812
vt 0.242188 0.882812
vt 0.242188 0.992188
vt 0.132812 0.992188
vt 0.132812 0.882812
vt 0.242188 0.882812
vt 0.242188 0.992188
vt 0.132812 0.992188
vt 0.132812 0.882812
vt 0.242188 0.882812
vt 0.242188 0.992188
vt 0.132812 0.992188
vt 0.257812 0.882812
vt 0.367188 0.882812
vt 0.367188 0.992188
vt 0.257812 0.992188
vt 0.257812 0.882812
vt 0.367188 0.882812
vt 0.367188 0.992188
vt 0.257812 0.992188
vt 0.257812 0.882812
vt 0.367188 0.882812
vt 0.367188 0.992188
vt 0.257812 0.992188
vt 0.257812 0.882812
vt 0.367188 0.882812
vt 0.367188 0.992188
vt 0.257812 0.992188
vt 0.257812 0.882812
vt 0.367188 0.882812
vt 0.367188 0.992188
vt 0.257812 0.992188
vt 0.257812 0.882812
vt 0.367188 0.882812
vt 0.367188 0.992188
vt 0.257812 0.992188
vt 0.257812 0.882812
vt 0.367188 0.882812
vt 0.367188 0.992188
vt 0.257812 0.992188
vt 0.257812 0.882812
vt 0.367188 0.882812
vt 0.367188 0.992188
vt 0.257812 0.992188
vt 0.257812 0.882812
vt 0.367188 0.882812
vt 0.367188 0.992188
vt 0.257812 0.992188
vt 0.257812 0.882812
vt 0.367188 0.882812
vt 0.367188 0.992188
vt 0.257812 0.992188
vt 0.257812 0.882812
vt 0.367188 0.882812
vt 0.367188 0.992188
vt 0.257812 0.992188
vt 0.257812 0.882812
vt 0.367188 0.882812
vt 0.367188 0.992188
vt 0.257812 0.992188
vt 0.257812 0.882812
vt 0.367188 0.882812
vt 0.367188 0.992188
vt 0.257812 0.992188
vt 0.257812 0.882812
vt 0.367188 0.882812
vt 0.367188 0.992188
vt 0.257812 0.992188
vt 0.257812 0.882812
vt 0.367188 0.882812
vt 0.367188 0.992188
vt 0.257812 0.992188
vt 0.257812 0.882812
vt 0.367188 0.882812
vt 0.367188 0.992188
vt 0.257812 0.992188
vt 0.257812 0.882812
vt 0.367188 0.882812
vt 0.367188 0.992188
vt 0.257812 0.992188
vt 0.257812 0.882812
vt 0.367188 0.882812
vt 0.367188 0.992188
vt 0.257812 0.992188
vt 0.257812 0.882812
vt 0.367188 0.882812
vt 0.367188 0.992188
vt 0.257812 0.992188
vt 0.257812 0.882812
vt 0.367188 0.882812
vt 0.367188 0.992188
vt 0.257812 0.992188
vt 0.257812 0.882812
vt 0.367188 0.882812
vt 0.367188 0.992188
vt 0.257812 0.992188
vt 0.257812 0.882812
vt 0.367188 0.882812
vt 0.367188 0.992188
vt 0.257812 0.992188
vt 0.257812 0.882812
vt 0.367188 0.882812
vt 0.367188 0.992188
vt 0.257812 0.992188
vt 0.257812 0.882812
vt 0.367188 0.882812
vt 0.367188 0.992188
vt 0.257812 0.992188
vt 0.257812 0.882812
vt 0.367188 0.882812
vt 0.367188 0.992188
vt 0.257812 0.992188
vt 0.257812 0.882812
vt 0.367188 0.882812
vt 0.367188 0.992188
vt 0.257812 0.992188
vt 0.257812 0.882812
vt 0.367188 0.882812
vt 0.367188 0.992188
vt 0.257812 0.992188
vt 0.257812 0.882812
vt 0.367188 0.882812
vt 0.367188 0.992188
vt 0.257812 0.992188
vt 0.257812 0.882812
vt 0.367188 0.882812
vt 0.367188 0.992188
vt 0.257812 0.992188
vt 0.257812 0.882812
vt 0.367188 0.882812
vt 0.367188 0.992188
vt 0.257812 0.992188
vt 0.257812 0.882812
vt 0.367188 0.882812
vt 0.367188 0.992188
vt 0.257812 0.992188
vt 0.257812 0.882812
vt 0.367188 0.882812
vt 0.367188 0.992188
vt 0.257812 0.992188
vt 0.257812 0.882812
vt 0.367188 0.882812
vt 0.367188 0.992188
vt 0.257812 0.992188
vt 0.257812 0.882812
vt 0.367188 0.882812
vt 0.367188 0.992188
vt 0.257812 0.992188
vt 0.257812 0.882812
vt 0.367188 0.882812
vt 0.367188 0.992188
vt 0.257812 0.992188
vt 0.257812 0.882812
vt 0.367188 0.882812
vt 0.367188 0.992188
vt 0.257812 0.992188
vt 0.257812 0.882812
vt 0.367188 0.882812
vt 0.367188 0.992188
vt 0.257812 0.992188
vt 0.257812 0.882812
vt 0.367188 0.882812
vt 0.367188 0.992188
vt 0.257812 0.992188
vt 0.257812 0.882812
vt 0.367188 0.882812
vt 0.367188 0.992188
vt 0.257812 0.992188
vt 0.257812 0.882812
vt 0.367188 0.882812
vt 0.367188 0.992188
vt 0.257812 0.992188
vt 0.257812 0.882812
vt 0.367188 0.882812
vt 0.367188 0.992188
vt 0.257812 0.992188
vt 0.257812 0.882812
vt 0.367188 0.882812
vt 0.367188 0.992188
vt 0.257812 0.992188
vt 0.257812 0.882812
vt 0.367188 0.882812
vt 0.367188 0.992188
vt 0.257812 0.992188
vt 0.257812 0.882812
vt 0.367188 0.882812
vt 0.367188 0.992188
vt 0.257812 0.992188
vt 0.257812 0.882812
vt 0.367188 0.882812
vt 0.367188 0.992188
vt 0.257812 0.992188
vt 0.257812 0.882812
vt 0.367188 0.882812
vt 0.367188 0.992188
vt 0.257812 0.992188
vt 0.257812 0.882812
vt 0.367188 0.882812
vt 0.367188 0.992188
vt 0.257812 0.992188
vt 0.257812 0.882812
vt 0.367188 0.882812
vt 0.367188 0.992188
vt 0.257812 0.992188
vt 0.257812 0.882812
vt 0.367188 0.882812
vt 0.367188 0.992188
vt 0.257812 0.992188
vt 0.257812 0.882812
vt 0.367188 0.882812
vt 0.367188 0.992188
vt 0.257812 0.992188
vt 0.257812 0.882812
vt 0.367188 0.882812
vt 0.367188 0.992188
vt 0.257812 0.992188
vt 0.257812 0.882812
vt 0.367188 0.882812
vt 0.367188 0.992188
vt 0.257812 0.992188
vt 0.257812 0.882812
vt 0.367188 0.882812
vt 0.367188 0.992188
vt 0.257812 0.992188
vt 0.257812 0.882812
vt 0.367188 0.882812
vt 0.367188 0.992188
vt 0.257812 0.992188
vt 0.257812 0.882812
vt 0.367188 0.882812
vt 0.367188 0.992188
vt 0.257812 0.992188
vt 0.257812 0.882812
vt 0.367188 0.882812
vt 0.367188 0.992188
vt 0.257812 0.992188
vt 0.257812 0.882812
vt 0.367188 0.882812
vt 0.367188 0.992188
vt 0.257812 0.992188
vt 0.257812 0.882812
vt 0.367188 0.882812
vt 0.367188 0.992188
vt 0.257812 0.992188
vt 0.257812 0.882812
vt 0.367188 0.882812
vt 0.367188 0.992188
vt 0.257812 0.992188
vt 0.257812 0.882812
vt 0.367188 0.882812
vt 0.367188 0.992188
vt 0.257812 0.992188
vt 0.257812 0.882812
vt 0.367188 0.882812
vt 0.367188 0.992188
vt 0.257812 0.992188
vt 0.257812 0.882812
vt 0.367188 0.882812
vt 0.367188 0.992188
vt 0.257812 0.992188
vt 0.257812 0.882812
vt 0.367188 0.882812
vt 0.367188 0.992188
vt 0.257812 0.992188
vt 0.257812 0.882812
vt 0.367188 0.882812
vt 0.367188 0.992188
vt 0.257812 0.992188
vt 0.257812 0.882812
vt 0.367188 0.882812
vt 0.367188 0.992188
vt 0.257812 0.992188
vt 0.257812 0.882812
vt 0.367188 0.882812
vt 0.367188 0.992188
vt 0.257812 0.992188
vt 0.257812 0.882812
vt 0.367188 0.882812
vt 0.367188 0.992188
vt 0.257812 0.992188
vt 0.257812 0.882812
vt 0.367188 0.882812
vt 0.367188 0.992188
vt 0.257812 0.992188
vt 0.257812 0.882812
vt 0.367188 0.882812
vt 0.367188 0.992188
vt 0.257812 0.992188
vt 0.257812 0.882812
vt 0.367188 0.882812
vt 0.367188 0.992188
vt 0.257812 0.992188
vt 0.257812 0.882812
vt 0.367188 0.882812
vt 0.367188 0.992188
vt 0.257812 0.992188
vt 0.257812 0.882812
vt 0.367188 0.882812
vt 0.367188 0.992188
vt 0.257812 0.992188
vt 0.257812 0.882812
vt 0.367188 0.882812
vt 0.367188 0.992188
vt 0.257812 0.992188
vt 0.257812 0.882812
vt 0.367188 0.882812
vt 0.367188 0.992188
vt 0.257812 0.992188
vt 0.257812 0.882812
vt 0.367188 0.882812
vt 0.367188 0.992188
vt 0.257812 0.992188
vt 0.257812 0.882812
vt 0.367188 0.882812
vt 0.367188 0.992188
vt 0.257812 0.992188
vt 0.257812 0.882812
vt 0.367188 0.882812
vt 0.367188 0.992188
vt 0.257812 0.992188
vt 0.257812 0.882812
vt 0.367188 0.882812
vt 0.367188 0.992188
vt 0.257812 0.992188
vt 0.257812 0.882812
vt 0.367188 0.882812
vt 0.367188 0.992188
vt 0.257812 0.992188
vt 0.257812 0.882812
vt 0.367188 0.882812
vt 0.367188 0.992188
vt 0.257812 0.992188
vt 0.257812 0.882812
vt 0.367188 0.882812
vt 0.367188 0.992188
vt 0.257812 0.992188
vt 0.257812 0.882812
vt 0.367188 0.882812
vt 0.367188 0.992188
vt 0.257812 0.992188
vt 0.257812 0.882812
vt 0.367188 0.882812
vt 0.367188 0.992188
vt 0.257812 0.992188
vt 0.257812 0.882812
vt 0.367188 0.882812
vt 0.367188 0.992188
vt 0.257812 0.992188
vt 0.257812 0.882812
vt 0.367188 0.882812
vt 0.367188 0.992188
vt 0.257812 0.992188
vt 0.257812 0.882812
vt 0.367188 0.882812
vt 0.367188 0.992188
vt 0.257812 0.992188
vt 0.257812 0.882812
vt 0.367188 0.882812
vt 0.367188 0.992188
vt 0.257812 0.992188
vt 0.257812 0.882812
vt 0.367188 0.882812
vt 0.367188 0.992188
vt 0.257812 0.992188
vt 0.257812 0.882812
vt 0.367188 0.882812
vt 0.367188 0.992188
vt 0.257812 0.992188
vt 0.257812 0.882812
vt 0.367188 0.882812
vt 0.367188 0.992188
vt 0.257812 0.992188
vt 0.257812 0.882812
vt 0.367188 0.882812
vt 0.367188 0.992188
vt 0.257812 0.992188
vt 0.257812 0.882812
vt 0.367188 0.882812
vt 0.367188 0.992188
vt 0.257812 0.992188
vt 0.257812 0.882812
vt 0.367188 0.882812
vt 0.367188 0.992188
vt 0.257812 0.992188
vt 0.257812 0.882812
vt 0.367188 0.882812
vt 0.367188 0.992188
vt 0.257812 0.992188
vt 0.257812 0.882812
vt 0.367188 0.882812
vt 0.367188 0.992188
vt 0.257812 0.992188
vt 0.257812 0.882812
vt 0.367188 0.882812
vt 0.367188 0.992188
vt 0.257812 0.992188
vt 0.257812 0.882812
vt 0.367188 0.882812
vt 0.367188 0.992188
vt 0.257812 0.992188
vt 0.257812 0.882812
vt 0.367188 0.882812
vt 0.367188 0.992188
vt 0.257812 0.992188
vt 0.257812 0.882812
vt 0.367188 0.882812
vt 0.367188 0.992188
vt 0.257812 0.992188
vt 0.257812 0.882812
vt 0.367188 0.882812
vt 0.367188 0.992188
vt 0.257812 0.992188
vt 0.257812 0.882812
vt 0.367188 0.882812
vt 0.367188 0.992188
vt 0.257812 0.992188
vt 0.257812 0.882812
vt 0.367188 0.882812
vt 0.367188 0.992188
vt 0.257812 0.992188
vt 0.257812 0.882812
vt 0.367188 0.882812
vt 0.367188 0.992188
vt 0.257812 0.992188
vt 0.257812 0.882812
vt 0.367188 0.882812
vt 0.367188 0.992188
vt 0.257812 0.992188
vt 0.257812 0.882812
vt 0.367188 0.882812
vt 0.367188 0.992188
vt 0.257812 0.992188
vt 0.257812 0.882812
vt 0.367188 0.882812
vt 0.367188 0.992188
vt 0.257812 0.992188
vt 0.257812 0.882812
vt 0.367188 0.882812
vt 0.367188 0.992188
vt 0.257812 0.992188
vt 0.257812 0.882812
vt 0.367188 0.882812
vt 0.367188 0.992188
vt 0.257812 0.992188
vt 0.257812 0.882812
vt 0.367188 0.882812
vt 0.367188 0.992188
vt 0.257812 0.992188
vt 0.257812 0.882812
vt 0.367188 0.882812
vt 0.367188 0.992188
vt 0.257812 0.992188
vt 0.257812 0.882812
vt 0.367188 0.882812
vt 0.367188 0.992188
vt 0.257812 0.992188
vt 0.257812 0.882812
vt 0.367188 0.882812
vt 0.367188 0.992188
vt 0.257812 0.992188
vt 0.257812 0.882812
vt 0.367188 0.882812
vt 0.367188 0.992188
vt 0.257812 0.992188
vt 0.257812 0.882812
vt 0.367188 0.882812
vt 0.367188 0.992188
vt 0.257812 0.992188
vt 0.257812 0.882812
vt 0.367188 0.882812
vt 0.367188 0.992188
vt 0.257812 0.992188
vt 0.257812 0.882812
vt 0.367188 0.882812
vt 0.367188 0.992188
vt 0.257812 0.992188
vt 0.257812 0.882812
vt 0.367188 0.882812
vt 0.367188 0.992188
vt 0.257812 0.992188
vt 0.257812 0.882812
vt 0.367188 0.882812
vt 0.367188 0.992188
vt 0.257812 0.992188
vt 0.257812 0.882812
vt 0.367188 0.882812
vt 0.367188 0.992188
vt 0.257812 0.992188
vt 0.257812 0.882812
vt 0.367188 0.882812
vt 0.367188 0.992188
vt 0.257812 0.992188
vt 0.257812 0.882812
vt 0.367188 0.882812
vt 0.367188 0.992188
vt 0.257812 0.992188
vt 0.257812 0.882812
vt 0.367188 0.882812
vt 0.367188 0.992188
vt 0.257812 0.992188
vt 0.257812 0.882812
vt 0.367188 0.882812
vt 0.367188 0.992188
vt 0.257812 0.992188
vt 0.257812 0.882812
vt 0.367188 0.882812
vt 0.367188 0.992188
vt 0.257812 0.992188
vt 0.257812 0.882812
vt 0.367188 0.882812
vt 0.367188 0.992188
vt 0.257812 0.992188
vt 0.257812 0.882812
vt 0.367188 0.882812
vt 0.367188 0.992188
vt 0.257812 0.992188
vt 0.257812 0.882812
vt 0.367188 0.882812
vt 0.367188 0.992188
vt 0.257812 0.992188
vt 0.257812 0.882812
vt 0.367188 0.882812
vt 0.367188 0.992188
vt 0.257812 0.992188
vt 0.257812 0.882812
vt 0.367188 0.882812
vt 0.367188 0.992188
vt 0.257812 0.992188
vt 0.257812 0.882812
vt 0.367188 0.882812
vt 0.367188 0.992188
vt 0.257812 0.992188
vt 0.257812 0.882812
vt 0.367188 0.882812
vt 0.367188 0.992188
vt 0.257812 0.992188
vt 0.257812 0.882812
vt 0.367188 0.882812
vt 0.367188 0.992188
vt 0.257812 0.992188
vt 0.257812 0.882812
vt 0.367188 0.882812
vt 0.367188 0.992188
vt 0.257812 0.992188
vt 0.257812 0.882812
vt 0.367188 0.882812
vt 0.367188 0.992188
vt 0.257812 0.992188
vt 0.257812 0.882812
vt 0.367188 0.882812
vt 0.367188 0.992188
vt 0.257812 0.992188
vt 0.257812 0.882812
vt 0.367188 0.882812
vt 0.367188 0.992188
vt 0.257812 0.992188
vt 0.257812 0.882812
vt 0.367188 0.882812
vt 0.367188 0.992188
vt 0.257812 0.992188
vt 0.257812 0.882812
vt 0.367188 0.882812
vt 0.367188 0.992188
vt 0.257812 0.992188
vt 0.257812 0.882812
vt 0.367188 0.882812
vt 0.367188 0.992188
vt 0.257812 0.992188
vt 0.257812 0.882812
vt 0.367188 0.882812
vt 0.367188 0.992188
vt 0.257812 0.992188
vt 0.257812 0.882812
vt 0.367188 0.882812
vt 0.367188 0.992188
vt 0.257812 0.992188
vt 0.257812 0.882812
vt 0.367188 0.882812
vt 0.367188 0.992188
vt 0.257812 0.992188
vt 0.257812 0.882812
vt 0.367188 0.882812
vt 0.367188 0.992188
vt 0.257812 0.992188
vt 0.257812 0.882812
vt 0.367188 0.882812
vt 0.367188 0.992188
vt 0.257812 0.992188
vt 0.257812 0.882812
vt 0.367188 0.882812
vt 0.367188 0.992188
vt 0.257812 0.992188
vt 0.257812 0.882812
vt 0.367188 0.882812
vt 0.367188 0.992188
vt 0.257812 0.992188
vt 0.257812 0.882812
vt 0.367188 0.882812
vt 0.367188 0.992188
vt 0.257812 0.992188
vt 0.257812 0.882812
vt 0.367188 0.882812
vt 0.367188 0.992188
vt 0.257812 0.992188
vt 0.257812 0.882812
vt 0.367188 0.882812
vt 0.367188 0.992188
vt 0.257812 0.992188
vt 0.257812 0.882812
vt 0.367188 0.882812
vt 0.367188 0.992188
vt 0.257812 0.992188
vt 0.257812 0.882812
vt 0.367188 0.882812
vt 0.367188 0.992188
vt 0.257812 0.992188
vt 0.257812 0.882812
vt 0.367188 0.882812
vt 0.367188 0.992188
vt 0.257812 0.992188
vt 0.257812 0.882812
vt 0.367188 0.882812
vt 0.367188 0.992188
vt 0.257812 0.992188
vt 0.257812 0.882812
vt 0.367188 0.882812
vt 0.367188 0.992188
vt 0.257812 0.992188
vt 0.257812 0.882812
vt 0.367188 0.882812
vt 0.367188 0.992188
vt 0.257812 0.992188
vt 0.257812 0.882812
vt 0.367188 0.882812
vt 0.367188 0.992188
vt 0.257812 0.992188
vt 0.257812 0.882812
vt 0.367188 0.882812
vt 0.367188 0.992188
vt 0.257812 0.992188
vt 0.257812 0.882812
vt 0.367188 0.882812
vt 0.367188 0.992188
vt 0.257812 0.992188
vt 0.257812 0.882812
vt 0.367188 0.882812
vt 0.367188 0.992188
vt 0.257812 0.992188
vt 0.257812 0.882812
vt 0.367188 0.882812
vt 0.367188 0.992188
vt 0.257812 0.992188
vt 0.257812 0.882812
vt 0.367188 0.882812
vt 0.367188 0.992188
vt 0.257812 0.992188
vt 0.257812 0.882812
vt 0.367188 0.882812
vt 0.367188 0.992188
vt 0.257812 0.992188
vt 0.257812 0.882812
vt 0.367188 0.882812
vt 0.367188 0.992188
vt 0.257812 0.992188
vt 0.257812 0.882812
vt 0.367188 0.882812
vt 0.367188 0.992188
vt 0.257812 0.992188
vt 0.257812 0.882812
vt 0.367188 0.882812
vt 0.367188 0.992188
vt 0.257812 0.992188
vt 0.257812 0.882812
vt 0.367188 0.882812
vt 0.367188 0.992188
vt 0.257812 0.992188
vt 0.257812 0.882812
vt 0.367188 0.882812
vt 0.367188 0.992188
vt 0.257812 0.992188
vt 0.257812 0.882812
vt 0.367188 0.882812
vt 0.367188 0.992188
vt 0.257812 0.992188
vt 0.257812 0.882812
vt 0.367188 0.882812
vt 0.367188 0.992188
vt 0.257812 0.992188
vt 0.257812 0.882812
vt 0.367188 0.882812
vt 0.367188 0.992188
vt 0.257812 0.992188
vt 0.257812 0.882812
vt 0.367188 0.882812
vt 0.367188 0.992188
vt 0.257812 0.992188
vt 0.257812 0.882812
vt 0.367188 0.882812
vt 0.367188 0.992188
vt 0.257812 0.992188
vt 0.257812 0.882812
vt 0.367188 0.882812
vt 0.367188 0.992188
vt 0.257812 0.992188
vt 0.257812 0.882812
vt 0.367188 0.882812
vt 0.367188 0.992188
vt 0.257812 0.992188
vt 0.257812 0.882812
vt 0.367188 0.882812
vt 0.367188 0.992188
vt 0.257812 0.992188
vt 0.257812 0.882812
vt 0.367188 0.882812
vt 0.367188 0.992188
vt 0.257812 0.992188
vt 0.257812 0.882812
vt 0.367188 0.882812
vt 0.367188 0.992188
vt 0.257812 0.992188
vt 0.257812 0.882812
vt 0.367188 0.882812
vt 0.367188 0.992188
vt 0.257812 0.992188
vt 0.257812 0.882812
vt 0.367188 0.882812
vt 0.367188 0.992188
vt 0.257812 0.992188
vt 0.257812 0.882812
vt 0.367188 0.882812
vt 0.367188 0.992188
vt 0.257812 0.992188
vt 0.257812 0.882812
vt 0.367188 0.882812
vt 0.367188 0.992188
vt 0.257812 0.992188
vt 0.257812 0.882812
vt 0.367188 0.882812
vt 0.367188 0.992188
vt 0.257812 0.992188
vt 0.257812 0.882812
vt 0.367188 0.882812
vt 0.367188 0.992188
vt 0.257812 0.992188
vt 0.257812 0.882812
vt 0.367188 0.882812
vt 0.367188 0.992188
vt 0.257812 0.992188
vt 0.257812 0.882812
vt 0.367188 0.882812
vt 0.367188 0.992188
vt 0.257812 0.992188
vt 0.257812 0.882812
vt 0.367188 0.882812
vt 0.367188 0.992188
vt 0.257812 0.992188
vt 0.257812 0.882812
vt 0.367188 0.882812
vt 0.367188 0.992188
vt 0.257812 0.992188
vt 0.257812 0.882812
vt 0.367188 0.882812
vt 0.367188 0.992188
vt 0.257812 0.992188
vt 0.257812 0.882812
vt 0.367188 0.882812
vt 0.367188 0.992188
vt 0.257812 0.992188
vt 0.257812 0.882812
vt 0.367188 0.882812
vt 0.367188 0.992188
vt 0.257812 0.992188
vt 0.257812 0.882812
vt 0.367188 0.882812
vt 0.367188 0.992188
vt 0.257812 0.992188
vt 0.257812 0.882812
vt 0.367188 0.882812
vt 0.367188 0.992188
vt 0.257812 0.992188
vt 0.257812 0.882812
vt 0.367188 0.882812
vt 0.367188 0.992188
vt 0.257812 0.992188
vt 0.257812 0.882812
vt 0.367188 0.882812
vt 0.367188 0.992188
vt 0.257812 0.992188
vt 0.257812 0.882812
vt 0.367188 0.882812
vt 0.367188 0.992188
vt 0.257812 0.992188
vt 0.257812 0.882812
vt 0.367188 0.882812
vt 0.367188 0.992188
vt 0.257812 0.992188
vt 0.257812 0.882812
vt 0.367188 0.882812
vt 0.367188 0.992188
vt 0.257812 0.992188
vt 0.257812 0.882812
vt 0.367188 0.882812
vt 0.367188 0.992188
vt 0.257812 0.992188
vt 0.257812 0.882812
vt 0.367188 0.882812
vt 0.367188 0.992188
vt 0.257812 0.992188
vt 0.257812 0.882812
vt 0.367188 0.882812
vt 0.367188 0.992188
vt 0.257812 0.992188
vt 0.257812 0.882812
vt 0.367188 0.882812
vt 0.367188 0.992188
vt 0.257812 0.992188
vt 0.257812 0.882812
vt 0.367188 0.882812
vt 0.367188 0.992188
vt 0.257812 0.992188
vt 0.257812 0.882812
vt 0.367188 0.882812
vt 0.367188 0.992188
vt 0.257812 0.992188
vt 0.257812 0.882812
vt 0.367188 0.882812
vt 0.367188 0.992188
vt 0.257812 0.992188
vt 0.257812 0.882812
vt 0.367188 0.882812
vt 0.367188 0.992188
vt 0.257812 0.992188
vt 0.257812 0.882812
vt 0.367188 0.882812
vt 0.367188 0.992188
vt 0.257812 0.992188
vt 0.257812 0.882812
vt 0.367188 0.882812
vt 0.367188 0.992188
vt 0.257812 0.992188
vt 0.257812 0.882812
vt 0.367188 0.882812
vt 0.367188 0.992188
vt 0.257812 0.992188
vt 0.257812 0.882812
vt 0.367188 0.882812
vt 0.367188 0.992188
vt 0.257812 0.992188
vt 0.257812 0.882812
vt 0.367188 0.882812
vt 0.367188 0.992188
vt 0.257812 0.992188
vt 0.257812 0.882812
vt 0.367188 0.882812
vt 0.367188 0.992188
vt 0.257812 0.992188
vt 0.257812 0.882812
vt 0.367188 0.882812
vt 0.367188 0.992188
vt 0.257812 0.992188
vt 0.257812 0.882812
vt 0.367188 0.882812
vt 0.367188 0.992188
vt 0.257812 0.992188
vt 0.257812 0.882812
vt 0.367188 0.882812
vt 0.367188 0.992188
vt 0.257812 0.992188
vt 0.257812 0.882812
vt 0.367188 0.882812
vt 0.367188 0.992188
vt 0.257812 0.992188
vt 0.257812 0.882812
vt 0.367188 0.882812
vt 0.367188 0.992188
vt 0.257812 0.992188
vt 0.257812 0.882812
vt 0.367188 0.882812
vt 0.367188 0.992188
vt 0.257812 0.992188
vt 0.257812 0.882812
vt 0.367188 0.882812
vt 0.367188 0.992188
vt 0.257812 0.992188
vt 0.257812 0.882812
vt 0.367188 0.882812
vt 0.367188 0.992188
vt 0.257812 0.992188
vt 0.257812 0.882812
vt 0.367188 0.882812
vt 0.367188 0.992188
vt 0.257812 0.992188
vt 0.257812 0.882812
vt 0.367188 0.882812
vt 0.367188 0.992188
vt 0.257812 0.992188
vt 0.257812 0.882812
vt 0.367188 0.882812
vt 0.367188 0.992188
vt 0.257812 0.992188
vt 0.257812 0.882812
vt 0.367188 0.882812
vt 0.367188 0.992188
vt 0.257812 0.992188
vt 0.257812 0.882812
vt 0.367188 0.882812
vt 0.367188 0.992188
vt 0.257812 0.992188
vt 0.257812 0.882812
vt 0.367188 0.882812
vt 0.367188 0.992188
vt 0.257812 0.992188
vt 0.257812 0.882812
vt 0.367188 0.882812
vt 0.367188 0.992188
vt 0.257812 0.992188
vt 0.257812 0.882812
vt 0.367188 0.882812
vt 0.367188 0.992188
vt 0.257812 0.992188
vt 0.257812 0.882812
vt 0.367188 0.882812
vt 0.367188 0.992188
vt 0.257812 0.992188
vt 0.257812 0.882812
vt 0.367188 0.882812
vt 0.367188 0.992188
vt 0.257812 0.992188
vt 0.257812 0.882812
vt 0.367188 0.882812
vt 0.367188 0.992188
vt 0.257812 0.992188
vt 0.257812 0.882812
vt 0.367188 0.882812
vt 0.367188 0.992188
vt 0.257812 0.992188
vt 0.257812 0.882812
vt 0.367188 0.882812
vt 0.367188 0.992188
vt 0.257812 0.992188
vt 0.257812 0.882812
vt 0.367188 0.882812
vt 0.367188 0.992188
vt 0.257812 0.992188
vt 0.257812 0.882812
vt 0.367188 0.882812
vt 0.367188 0.992188
vt 0.257812 0.992188
vt 0.257812 0.882812
vt 0.367188 0.882812
vt 0.367188 0.992188
vt 0.257812 0.992188
vt 0.257812 0.882812
vt 0.367188 0.882812
vt 0.367188 0.992188
vt 0.257812 0.992188
vt 0.257812 0.882812
vt 0.367188 0.882812
vt 0.367188 0.992188
vt 0.257812 0.992188
vt 0.257812 0.882812
vt 0.367188 0.882812
vt 0.367188 0.992188
vt 0.257812 0.992188
vt 0.257812 0.882812
vt 0.367188 0.882812
vt 0.367188 0.992188
vt 0.257812 0.992188
vt 0.257812 0.882812
vt 0.367188 0.882812
vt 0.367188 0.992188
vt 0.257812 0.992188
vt 0.257812 0.882812
vt 0.367188 0.882812
vt 0.367188 0.992188
vt 0.257812 0.992188
vt 0.257812 0.882812
vt 0.367188 0.882812
vt 0.367188 0.992188
vt 0.257812 0.992188
vt 0.257812 0.882812
vt 0.367188 0.882812
vt 0.367188 0.992188
vt 0.257812 0.992188
vt 0.257812 0.882812
vt 0.367188 0.882812
vt 0.367188 0.992188
vt 0.257812 0.992188
vt 0.257812 0.882812
vt 0.367188 0.882812
vt 0.367188 0.992188
vt 0.257812 0.992188
vt 0.257812 0.882812
vt 0.367188 0.882812
vt 0.367188 0.992188
vt 0.257812 0.992188
vt 0.257812 0.882812
vt 0.367188 0.882812
vt 0.367188 0.992188
vt 0.257812 0.992188
vt 0.257812 0.882812
vt 0.367188 0.882812
vt 0.367188 0.992188
vt 0.257812 0.992188
vt 0.257812 0.882812
vt 0.367188 0.882812
vt 0.367188 0.992188
vt 0.257812 0.992188
vt 0.257812 0.882812
vt 0.367188 0.882812
vt 0.367188 0.992188
vt 0.257812 0.992188
vt 0.257812 0.882812
vt 0.367188 0.882812
vt 0.367188 0.992188
vt 0.257812 0.992188
vt 0.257812 0.882812
vt 0.367188 0.882812
vt 0.367188 0.992188
vt 0.257812 0.992188
vt 0.257812 0.882812
vt 0.367188 0.882812
vt 0.367188 0.992188
vt 0.257812 0.992188
vt 0.257812 0.882812
vt 0.367188 0.882812
vt 0.367188 0.992188
vt 0.257812 0.992188
vt 0.257812 0.882812
vt 0.367188 0.882812
vt 0.367188 0.992188
vt 0.257812 0.992188
vt 0.257812 0.882812
vt 0.367188 0.882812
vt 0.367188 0.992188
vt 0.257812 0.992188
vt 0.257812 0.882812
vt 0.367188 0.882812
vt 0.367188 0.992188
vt 0.257812 0.992188
vt 0.257812 0.882812
vt 0.367188 0.882812
vt 0.367188 0.992188
vt 0.257812 0.992188
vt 0.257812 0.882812
vt 0.367188 0.882812
vt 0.367188 0.992188
vt 0.257812 0.992188
vt 0.257812 0.882812
vt 0.367188 0.882812
vt 0.367188 0.992188
vt 0.257812 0.992188
vt 0.257812 0.882812
vt 0.367188 0.882812
vt 0.367188 0.992188
vt 0.257812 0.992188
vt 0.257812 0.882812
vt 0.367188 0.882812
vt 0.367188 0.992188
vt 0.257812 0.992188
vt 0.257812 0.882812
vt 0.367188 0.882812
vt 0.367188 0.992188
vt 0.257812 0.992188
vt 0.257812 0.882812
vt 0.367188 0.882812
vt 0.367188 0.992188
vt 0.257812 0.992188
vt 0.257812 0.882812
vt 0.367188 0.882812
vt 0.367188 0.992188
vt 0.257812 0.992188
vt 0.257812 0.882812
vt 0.367188 0.882812
vt 0.367188 0.992188
vt 0.257812 0.992188
vt 0.257812 0.882812
vt 0.367188 0.882812
vt 0.367188 0.992188
vt 0.257812 0.992188
vt 0.257812 0.882812
vt 0.367188 0.882812
vt 0.367188 0.992188
vt 0.257812 0.992188
vt 0.257812 0.882812
vt 0.367188 0.882812
vt 0.367188 0.992188
vt 0.257812 0.992188
vt 0.257812 0.882812
vt 0.367188 0.882812
vt 0.367188 0.992188
vt 0.257812 0.992188
vt 0.257812 0.882812
vt 0.367188 0.882812
vt 0.367188 0.992188
vt 0.257812 0.992188
vt 0.257812 0.882812
vt 0.367188 0.882812
vt 0.367188 0.992188
vt 0.257812 0.992188
vt 0.257812 0.882812
vt 0.367188 0.882812
vt 0.367188 0.992188
vt 0.257812 0.992188
vt 0.257812 0.882812
vt 0.367188 0.882812
vt 0.367188 0.992188
vt 0.257812 0.992188
vt 0.257812 0.882812
vt 0.367188 0.882812
vt 0.367188 0.992188
vt 0.257812 0.992188
vt 0.257812 0.882812
vt 0.367188 0.882812
vt 0.367188 0.992188
vt 0.257812 0.992188
vt 0.257812 0.882812
vt 0.367188 0.882812
vt 0.367188 0.992188
vt 0.257812 0.992188
vt 0.257812 0.882812
vt 0.367188 0.882812
vt 0.367188 0.992188
vt 0.257812 0.992188
vt 0.257812 0.882812
vt 0.367188 0.882812
vt 0.367188 0.992188
vt 0.257812 0.992188
vt 0.257812 0.882812
vt 0.367188 0.882812
vt 0.367188 0.992188
vt 0.257812 0.992188
vt 0.257812 0.882812
vt 0.367188 0.882812
vt 0.367188 0.992188
vt 0.257812 0.992188
vt 0.257812 0.882812
vt 0.367188 0.882812
vt 0.367188 0.992188
vt 0.257812 0.992188
vt 0.257812 0.882812
vt 0.367188 0.882812
vt 0.367188 0.992188
vt 0.257812 0.992188
vt 0.257812 0.882812
vt 0.367188 0.882812
vt 0.367188 0.992188
vt 0.257812 0.992188
vt 0.257812 0.882812
vt 0.367188 0.882812
vt 0.367188 0.992188
vt 0.257812 0.992188
vt 0.257812 0.882812
vt 0.367188 0.882812
vt 0.367188 0.992188
vt 0.257812 0.992188
vt 0.257812 0.882812
vt 0.367188 0.882812
vt 0.367188 0.992188
vt 0.257812 0.992188
vt 0.257812 0.882812
vt 0.367188 0.882812
vt 0.367188 0.992188
vt 0.257812 0.992188
vt 0.257812 0.882812
vt 0.367188 0.882812
vt 0.367188 0.992188
vt 0.257812 0.992188
vt 0.257812 0.882812
vt 0.367188 0.882812
vt 0.367188 0.992188
vt 0.257812 0.992188
vt 0.257812 0.882812
vt 0.367188 0.882812
vt 0.367188 0.992188
vt 0.257812 0.992188
vt 0.257812 0.882812
vt 0.367188 0.882812
vt 0.367188 0.992188
vt 0.257812 0.992188
vt 0.257812 0.882812
vt 0.367188 0.882812
vt 0.367188 0.992188
vt 0.257812 0.992188
vt 0.257812 0.882812
vt 0.367188 0.882812
vt 0.367188 0.992188
vt 0.257812 0.992188
vt 0.257812 0.882812
vt 0.367188 0.882812
vt 0.367188 0.992188
vt 0.257812 0.992188
vt 0.257812 0.882812
vt 0.367188 0.882812
vt 0.367188 0.992188
vt 0.257812 0.992188
vt 0.257812 0.882812
vt 0.367188 0.882812
vt 0.367188 0.992188
vt 0.257812 0.992188
vt 0.257812 0.882812
vt 0.367188 0.882812
vt 0.367188 0.992188
vt 0.257812 0.992188
vt 0.257812 0.882812
vt 0.367188 0.882812
vt 0.367188 0.992188
vt 0.257812 0.992188
vt 0.257812 0.882812
vt 0.367188 0.882812
vt 0.367188 0.992188
vt 0.257812 0.992188
vt 0.257812 0.882812
vt 0.367188 0.882812
vt 0.367188 0.992188
vt 0.257812 0.992188
vt 0.257812 0.882812
vt 0.367188 0.882812
vt 0.367188 0.992188
vt 0.257812 0.992188
vt 0.257812 0.882812
vt 0.367188 0.882812
vt 0.367188 0.992188
vt 0.257812 0.992188
vt 0.257812 0.882812
vt 0.367188 0.882812
vt 0.367188 0.992188
vt 0.257812 0.992188
vt 0.257812 0.882812
vt 0.367188 0.882812
vt 0.367188 0.992188
vt 0.257812 0.992188
vt 0.257812 0.882812
vt 0.367188 0.882812
vt 0.367188 0.992188
vt 0.257812 0.992188
vt 0.257812 0.882812
vt 0.367188 0.882812
vt 0.367188 0.992188
vt 0.257812 0.992188
vt 0.257812 0.882812
vt 0.367188 0.882812
vt 0.367188 0.992188
vt 0.257812 0.992188
vt 0.257812 0.882812
vt 0.367188 0.882812
vt 0.367188 0.992188
vt 0.257812 0.992188
vt 0.257812 0.882812
vt 0.367188 0.882812
vt 0.367188 0.992188
vt 0.257812 0.992188
vt 0.257812 0.882812
vt 0.367188 0.882812
vt 0.367188 0.992188
vt 0.257812 0.992188
vt 0.257812 0.882812
vt 0.367188 0.882812
vt 0.367188 0.992188
vt 0.257812 0.992188
vt 0.257812 0.882812
vt 0.367188 0.882812
vt 0.367188 0.992188
vt 0.257812 0.992188
vt 0.257812 0.882812
vt 0.367188 0.882812
vt 0.367188 0.992188
vt 0.257812 0.992188
vt 0.257812 0.882812
vt 0.367188 0.882812
vt 0.367188 0.992188
vt 0.257812 0.992188
vt 0.257812 0.882812
vt 0.367188 0.882812
vt 0.367188 0.992188
vt 0.257812 0.992188
vt 0.257812 0.882812
vt 0.367188 0.882812
vt 0.367188 0.992188
vt 0.257812 0.992188
vt 0.257812 0.882812
vt 0.367188 0.882812
vt 0.367188 0.992188
vt 0.257812 0.992188
vt 0.257812 0.882812
vt 0.367188 0.882812
vt 0.367188 0.992188
vt 0.257812 0.992188
vt 0.257812 0.882812
vt 0.367188 0.882812
vt 0.367188 0.992188
vt 0.257812 0.992188
vt 0.257812 0.882812
vt 0.367188 0.882812
vt 0.367188 0.992188
vt 0.257812 0.992188
vt 0.257812 0.882812
vt 0.367188 0.882812
vt 0.367188 0.992188
vt 0.257812 0.992188
vt 0.257812 0.882812
vt 0.367188 0.882812
vt 0.367188 0.992188
vt 0.257812 0.992188
vt 0.257812 0.882812
vt 0.367188 0.882812
vt 0.367188 0.992188
vt 0.257812 0.992188
vt 0.382812 0.882812
vt 0.492188 0.882812
vt 0.492188 0.992188
vt 0.382812 0.992188
vt 0.382812 0.882812
vt 0.492188 0.882812
vt 0.492188 0.992188
vt 0.382812 0.992188
vt 0.382812 0.882812
vt 0.492188 0.882812
vt 0.492188 0.992188
vt 0.382812 0.992188
vt 0.382812 0.882812
vt 0.492188 0.882812
vt 0.492188 0.992188
vt 0.382812 0.992188
vt 0.382812 0.882812
vt 0.492188 0.882812
vt 0.492188 0.992188
vt 0.382812 0.992188
vt 0.382812 0.882812
vt 0.492188 0.882812
vt 0.492188 0.992188
vt 0.382812 0.992188
vt 0.007812 0.882812
vt 0.117188 0.882812
vt 0.117188 0.992188
vt 0.007812 0.992188
vt 0.007812 0.882812
vt 0.117188 0.882812
vt 0.117188 0.992188
vt 0.007812 0.992188
vt 0.007812 0.882812
vt 0.117188 0.882812
vt 0.117188 0.992188
vt 0.007812 0.992188
vt 0.007812 0.882812
vt 0.117188 0.882812
vt 0.117188 0.992188
vt 0.007812 0.992188
vt 0.007812 0.882812
vt 0.117188 0.882812
vt 0.117188 0.992188
vt 0.007812 0.992188
vt 0.007812 0.882812
vt 0.117188 0.882812
vt 0.117188 0.992188
vt 0.007812 0.992188
vt 0.507812 0.882812
vt 0.617188 0.882812
vt 0.617188 0.992188
vt 0.507812 0.992188
vt 0.507812 0.882812
vt 0.617188 0.882812
vt 0.617188 0.992188
vt 0.507812 0.992188
vt 0.507812 0.882812
vt 0.617188 0.882812
vt 0.617188 0.992188
vt 0.507812 0.992188
vt 0.507812 0.882812
vt 0.617188 0.882812
vt 0.617188 0.992188
vt 0.507812 0.992188
vt 0.507812 0.882812
vt 0.617188 0.882812
vt 0.617188 0.992188
vt 0.507812 0.992188
vt 0.507812 0.882812
vt 0.617188 0.882812
vt 0.617188 0.992188
vt 0.507812 0.992188
vt 0.132812 0.882812
vt 0.242188 0.882812
vt 0.242188 0.992188
vt 0.132812 0.992188
vt 0.132812 0.882812
vt 0.242188 0.882812
vt 0.242188 0.992188
vt 0.132812 0.992188
vt 0.132812 0.882812
vt 0.242188 0.882812
vt 0.242188 0.992188
vt 0.132812 0.992188
vt 0.132812 0.882812
vt 0.242188 0.882812
vt 0.242188 0.992188
vt 0.132812 0.992188
vt 0.132812 0.882812
vt 0.242188 0.882812
vt 0.242188 0.992188
vt 0.132812 0.992188
vt 0.132812 0.882812
vt 0.242188 0.882812
vt 0.242188 0.992188
vt 0.132812 0.992188
vt 0.382812 0.882812
vt 0.492188 0.882812
vt 0.492188 0.992188
vt 0.382812 0.992188
vt 0.382812 0.882812
vt 0.492188 0.882812
vt 0.492188 0.992188
vt 0.382812 0.992188
vt 0.382812 0.882812
vt 0.492188 0.882812
vt 0.492188 0.992188
vt 0.382812 0.992188
vt 0.382812 0.882812
vt 0.492188 0.882812
vt 0.492188 0.992188
vt 0.382812 0.992188
vt 0.382812 0.882812
vt 0.492188 0.882812
vt 0.492188 0.992188
vt 0.382812 0.992188
vt 0.382812 0.882812
vt 0.492188 0.882812
vt 0.492188 0.992188
vt 0.382812 0.992188
vt 0.632812 0.882812
vt 0.742188 0.882812
vt 0.742188 0.992188
vt 0.632812 0.992188
vt 0.632812 0.882812
vt 0.742188 0.882812
vt 0.742188 0.992188
vt 0.632812 0.992188
vt 0.632812 0.882812
vt 0.742188 0.882812
vt 0.742188 0.992188
vt 0.632812 0.992188
vt 0.632812 0.882812
vt 0.742188 0.882812
vt 0.742188 0.992188
vt 0.632812 0.992188
vt 0.632812 0.882812
vt 0.742188 0.882812
vt 0.742188 0.992188
vt 0.632812 0.992188
vt 0.632812 0.882812
vt 0.742188 0.882812
vt 0.742188 0.992188
vt 0.632812 0.992188
vt 0.007812 0.882812
vt 0.117188 0.882812
vt 0.117188 0.992188
vt 0.007812 0.992188
vt 0.007812 0.882812
vt 0.117188 0.882812
vt 0.117188 0.992188
vt 0.007812 0.992188
vt 0.007812 0.882812
vt 0.117188 0.882812
vt 0.117188 0.992188
vt 0.007812 0.992188
vt 0.007812 0.882812
vt 0.117188 0.882812
vt 0.117188 0.992188
vt 0.007812 0.992188
vt 0.007812 0.882812
vt 0.117188 0.882812
vt 0.117188 0.992188
vt 0.007812 0.992188
vt 0.007812 0.882812
vt 0.117188 0.882812
vt 0.117188 0.992188
vt 0.007812 0.992188
vt 0.007812 0.882812
vt 0.117188 0.882812
vt 0.117188 0.992188
vt 0.007812 0.992188
vt 0.007812 0.882812
vt 0.117188 0.882812
vt 0.117188 0.992188
vt 0.007812 0.992188
vt 0.007812 0.882812
vt 0.117188 0.882812
vt 0.117188 0.992188
vt 0.007812 0.992188
vt 0.007812 0.882812
vt 0.117188 0.882812
vt 0.117188 0.992188
vt 0.007812 0.992188
vt 0.007812 0.882812
vt 0.117188 0.882812
vt 0.117188 0.992188
vt 0.007812 0.992188
vt 0.007812 0.882812
vt 0.117188 0.882812
vt 0.117188 0.992188
vt 0.007812 0.992188
vt 0.132812 0.882812
vt 0.242188 0.882812
vt 0.242188 0.992188
vt 0.132812 0.992188
vt 0.132812 0.882812
vt 0.242188 0.882812
vt 0.242188 0.992188
vt 0.132812 0.992188
vt 0.132812 0.882812
vt 0.242188 0.882812
vt 0.242188 0.992188
vt 0.132812 0.992188
vt 0.132812 0.882812
vt 0.242188 0.882812
vt 0.242188 0.992188
vt 0.132812 0.992188
vt 0.132812 0.882812
vt 0.242188 0.882812
vt 0.242188 0.992188
vt 0.132812 0.992188
vt 0.132812 0.882812
vt 0.242188 0.882812
vt 0.242188 0.992188
vt 0.132812 0.992188
vt 0.132812 0.882812
vt 0.242188 0.882812
vt 0.242188 0.992188
vt 0.132812 0.992188
vt 0.132812 0.882812
vt 0.242188 0.882812
vt 0.242188 0.992188
vt 0.132812 0.992188
vt 0.132812 0.882812
vt 0.242188 0.882812
vt 0.242188 0.992188
vt 0.132812 0.992188
vt 0.132812 0.882812
vt 0.242188 0.882812
vt 0.242188 0.992188
vt 0.132812 0.992188
vt 0.132812 0.882812
vt 0.242188 0.882812
vt 0.242188 0.992188
vt 0.132812 0.992188
vt 0.132812 0.882812
vt 0.242188 0.882812
vt 0.242188 0.992188
vt 0.132812 0.992188
vt 0.132812 0.882812
vt 0.242188 0.882812
vt 0.242188 0.992188
vt 0.132812 0.992188
vt 0.132812 0.882812
vt 0.242188 0.882812
vt 0.242188 0.992188
vt 0.132812 0.992188
vt 0.132812 0.882812
vt 0.242188 0.882812
vt 0.242188 0.992188
vt 0.132812 0.992188
vt 0.132812 0.882812
vt 0.242188 0.882812
vt 0.242188 0.992188
vt 0.132812 0.992188
vt 0.132812 0.882812
vt 0.242188 0.882812
vt 0.242188 0.992188
vt 0.132812 0.992188
vt 0.132812 0.882812
vt 0.242188 0.882812
vt 0.242188 0.992188
vt 0.132812 0.992188
vt 0.132812 0.882812
vt 0.242188 0.882812
vt 0.242188 0.992188
vt 0.132812 0.992188
vt 0.132812 0.882812
vt 0.242188 0.882812
vt 0.242188 0.992188
vt 0.132812 0.992188
vt 0.132812 0.882812
vt 0.242188 0.882812
vt 0.242188 0.992188
vt 0.132812 0.992188
vt 0.132812 0.882812
vt 0.242188 0.882812
vt 0.242188 0.992188
vt 0.132812 0.992188
vt 0.132812 0.882812
vt 0.242188 0.882812
vt 0.242188 0.992188
vt 0.132812 0.992188
vt 0.132812 0.882812
vt 0.242188 0.882812
vt 0.242188 0.992188
vt 0.132812 0.992188
vt 0.132812 0.882812
vt 0.242188 0.882812
vt 0.242188 0.992188
vt 0.132812 0.992188
vt 0.132812 0.882812
vt 0.242188 0.882812
vt 0.242188 0.992188
vt 0.132812 0.992188
vt 0.132812 0.882812
vt 0.242188 0.882812
vt 0.242188 0.992188
vt 0.132812 0.992188
vt 0.132812 0.882812
vt 0.242188 0.882812
vt 0.242188 0.992188
vt 0.132812 0.992188
vt 0.132812 0.882812
vt 0.242188 0.882812
vt 0.242188 0.992188
vt 0.132812 0.992188
vt 0.132812 0.882812
vt 0.242188 0.882812
vt 0.242188 0.992188
vt 0.132812 0.992188
vt 0.132812 0.882812
vt 0.242188 0.882812
vt 0.242188 0.992188
vt 0.132812 0.992188
vt 0.132812 0.882812
vt 0.242188 0.882812
vt 0.242188 0.992188
vt 0.132812 0.992188
vt 0.132812 0.882812
vt 0.242188 0.882812
vt 0.242188 0.992188
vt 0.132812 0.992188
vt 0.132812 0.882812
vt 0.242188 0.882812
vt 0.242188 0.992188
vt 0.132812 0.992188
vt 0.132812 0.882812
vt 0.242188 0.882812
vt 0.242188 0.992188
vt 0.132812 0.992188
vt 0.132812 0.882812
vt 0.242188 0.882812
vt 0.242188 0.992188
vt 0.132812 0.992188
vt 0.132812 0.882812
vt 0.242188 0.882812
vt 0.242188 0.992188
vt 0.132812 0.992188
vt 0.132812 0.882812
vt 0.242188 0.882812
vt 0.242188 0.992188
vt 0.132812 0.992188
vt 0.132812 0.882812
vt 0.242188 0.882812
vt 0.242188 0.992188
vt 0.132812 0.992188
vt 0.132812 0.882812
vt 0.242188 0.882812
vt 0.242188 0.992188
vt 0.132812 0.992188
vt 0.132812 0.882812
vt 0.242188 0.882812
vt 0.242188 0.992188
vt 0.132812 0.992188
vt 0.132812 0.882812
vt 0.242188 0.882812
vt 0.242188 0.992188
vt 0.132812 0.992188
vt 0.132812 0.882812
vt 0.242188 0.882812
vt 0.242188 0.992188
vt 0.132812 0.992188
vt 0.132812 0.882812
vt 0.242188 0.882812
vt 0.242188 0.992188
vt 0.132812 0.992188
vt 0.132812 0.882812
vt 0.242188 0.882812
vt 0.242188 0.992188
vt 0.132812 0.992188
vt 0.132812 0.882812
vt 0.242188 0.882812
vt 0.242188 0.992188
vt 0.132812 0.992188
vt 0.132812 0.882812
vt 0.242188 0.882812
vt 0.242188 0.992188
vt 0.132812 0.992188
vt 0.132812 0.882812
vt 0.242188 0.882812
vt 0.242188 0.992188
vt 0.132812 0.992188
vt 0.132812 0.882812
vt 0.242188 0.882812
vt 0.242188 0.992188
vt 0.132812 0.992188
vt 0.132812 0.882812
vt 0.242188 0.882812
vt 0.242188 0.992188
vt 0.132812 0.992188
vt 0.132812 0.882812
vt 0.242188 0.882812
vt 0.242188 0.992188
vt 0.132812 0.992188
vt 0.132812 0.882812
vt 0.242188 0.882812
vt 0.242188 0.992188
vt 0.132812 0.992188
vt 0.132812 0.882812
vt 0.242188 0.882812
vt 0.242188 0.992188
vt 0.132812 0.992188
vt 0.132812 0.882812
vt 0.242188 0.882812
vt 0.242188 0.992188
vt 0.132812 0.992188
vt 0.257812 0.882812
vt 0.367188 0.882812
vt 0.367188 0.992188
vt 0.257812 0.992188
vt 0.257812 0.882812
vt 0.367188 0.882812
vt 0.367188 0.992188
vt 0.257812 0.992188
vt 0.257812 0.882812
vt 0.367188 0.882812
vt 0.367188 0.992188
vt 0.257812 0.992188
vt 0.257812 0.882812
vt 0.367188 0.882812
vt 0.367188 0.992188
vt 0.257812 0.992188
vt 0.257812 0.882812
vt 0.367188 0.882812
vt 0.367188 0.992188
vt 0.257812 0.992188
vt 0.257812 0.882812
vt 0.367188 0.882812
vt 0.367188 0.992188
vt 0.257812 0.992188
vt 0.257812 0.882812
vt 0.367188 0.882812
vt 0.367188 0.992188
vt 0.257812 0.992188
vt 0.257812 0.882812
vt 0.367188 0.882812
vt 0.367188 0.992188
vt 0.257812 0.992188
vt 0.257812 0.882812
vt 0.367188 0.882812
vt 0.367188 0.992188
vt 0.257812 0.992188
vt 0.257812 0.882812
vt 0.367188 0.882812
vt 0.367188 0.992188
vt 0.257812 0.992188
vt 0.257812 0.882812
vt 0.367188 0.882812
vt 0.367188 0.992188
vt 0.257812 0.992188
vt 0.257812 0.882812
vt 0.367188 0.882812
vt 0.367188 0.992188
vt 0.257812 0.992188
vt 0.257812 0.882812
vt 0.367188 0.882812
vt 0.367188 0.992188
vt 0.257812 0.992188
vt 0.257812 0.882812
vt 0.367188 0.882812
vt 0.367188 0.992188
vt 0.257812 0.992188
vt 0.257812 0.882812
vt 0.367188 0.882812
vt 0.367188 0.992188
vt 0.257812 0.992188
vt 0.257812 0.882812
vt 0.367188 0.882812
vt 0.367188 0.992188
vt 0.257812 0.992188
vt 0.257812 0.882812
vt 0.367188 0.882812
vt 0.367188 0.992188
vt 0.257812 0.992188
vt 0.257812 0.882812
vt 0.367188 0.882812
vt 0.367188 0.992188
vt 0.257812 0.992188
vt 0.257812 0.882812
vt 0.367188 0.882812
vt 0.367188 0.992188
vt 0.257812 0.992188
vt 0.257812 0.882812
vt 0.367188 0.882812
vt 0.367188 0.992188
vt 0.257812 0.992188
vt 0.257812 0.882812
vt 0.367188 0.882812
vt 0.367188 0.992188
vt 0.257812 0.992188
vt 0.257812 0.882812
vt 0.367188 0.882812
vt 0.367188 0.992188
vt 0.257812 0.992188
vt 0.257812 0.882812
vt 0.367188 0.882812
vt 0.367188 0.992188
vt 0.257812 0.992188
vt 0.257812 0.882812
vt 0.367188 0.882812
vt 0.367188 0.992188
vt 0.257812 0.992188
vt 0.257812 0.882812
vt 0.367188 0.882812
vt 0.367188 0.992188
vt 0.257812 0.992188
vt 0.257812 0.882812
vt 0.367188 0.882812
vt 0.367188 0.992188
vt 0.257812 0.992188
vt 0.257812 0.882812
vt 0.367188 0.882812
vt 0.367188 0.992188
vt 0.257812 0.992188
vt 0.257812 0.882812
vt 0.367188 0.882812
vt 0.367188 0.992188
vt 0.257812 0.992188
vt 0.257812 0.882812
vt 0.367188 0.882812
vt 0.367188 0.992188
vt 0.257812 0.992188
vt 0.257812 0.882812
vt 0.367188 0.882812
vt 0.367188 0.992188
vt 0.257812 0.992188
vt 0.257812 0.882812
vt 0.367188 0.882812
vt 0.367188 0.992188
vt 0.257812 0.992188
vt 0.257812 0.882812
vt 0.367188 0.882812
vt 0.367188 0.992188
vt 0.257812 0.992188
vt 0.257812 0.882812
vt 0.367188 0.882812
vt 0.367188 0.992188
vt 0.257812 0.992188
vt 0.257812 0.882812
vt 0.367188 0.882812
vt 0.367188 0.992188
vt 0.257812 0.992188
vt 0.257812 0.882812
vt 0.367188 0.882812
vt 0.367188 0.992188
vt 0.257812 0.992188
vt 0.257812 0.882812
vt 0.367188 0.882812
vt 0.367188 0.992188
vt 0.257812 0.992188
vt 0.257812 0.882812
vt 0.367188 0.882812
vt 0.367188 0.992188
vt 0.257812 0.992188
vt 0.257812 0.882812
vt 0.367188 0.882812
vt 0.367188 0.992188
vt 0.257812 0.992188
vt 0.257812 0.882812
vt 0.367188 0.882812
vt 0.367188 0.992188
vt 0.257812 0.992188
vt 0.257812 0.882812
vt 0.367188 0.882812
vt 0.367188 0.992188
vt 0.257812 0.992188
vt 0.257812 0.882812
vt 0.367188 0.882812
vt 0.367188 0.992188
vt 0.257812 0.992188
vt 0.257812 0.882812
vt 0.367188 0.882812
vt 0.367188 0.992188
vt 0.257812 0.992188
vt 0.257812 0.882812
vt 0.367188 0.882812
vt 0.367188 0.992188
vt 0.257812 0.992188
vt 0.257812 0.882812
vt 0.367188 0.882812
vt 0.367188 0.992188
vt 0.257812 0.992188
vt 0.257812 0.882812
vt 0.367188 0.882812
vt 0.367188 0.992188
vt 0.257812 0.992188
vt 0.257812 0.882812
vt 0.367188 0.882812
vt 0.367188 0.992188
vt 0.257812 0.992188
vt 0.257812 0.882812
vt 0.367188 0.882812
vt 0.367188 0.992188
vt 0.257812 0.992188
vt 0.257812 0.882812
vt 0.367188 0.882812
vt 0.367188 0.992188
vt 0.257812 0.992188
vt 0.257812 0.882812
vt 0.367188 0.882812
vt 0.367188 0.992188
vt 0.257812 0.992188
vt 0.257812 0.882812
vt 0.367188 0.882812
vt 0.367188 0.992188
vt 0.257812 0.992188
vt 0.257812 0.882812
vt 0.367188 0.882812
vt 0.367188 0.992188
vt 0.257812 0.992188
vt 0.257812 0.882812
vt 0.367188 0.882812
vt 0.367188 0.992188
vt 0.257812 0.992188
vt 0.257812 0.882812
vt 0.367188 0.882812
vt 0.367188 0.992188
vt 0.257812 0.992188
vt 0.257812 0.882812
vt 0.367188 0.882812
vt 0.367188 0.992188
vt 0.257812 0.992188
vt 0.257812 0.882812
vt 0.367188 0.882812
vt 0.367188 0.992188
vt 0.257812 0.992188
vt 0.257812 0.882812
vt 0.367188 0.882812
vt 0.367188 0.992188
vt 0.257812 0.992188
vt 0.257812 0.882812
vt 0.367188 0.882812
vt 0.367188 0.992188
vt 0.257812 0.992188
vt 0.257812 0.882812
vt 0.367188 0.882812
vt 0.367188 0.992188
vt 0.257812 0.992188
vt 0.257812 0.882812
vt 0.367188 0.882812
vt 0.367188 0.992188
vt 0.257812 0.992188
vt 0.257812 0.882812
vt 0.367188 0.882812
vt 0.367188 0.992188
vt 0.257812 0.992188
vt 0.257812 0.882812
vt 0.367188 0.882812
vt 0.367188 0.992188
vt 0.257812 0.992188
vt 0.257812 0.882812
vt 0.367188 0.882812
vt 0.367188 0.992188
vt 0.257812 0.992188
vt 0.257812 0.882812
vt 0.367188 0.882812
vt 0.367188 0.992188
vt 0.257812 0.992188
vt 0.257812 0.882812
vt 0.367188 0.882812
vt 0.367188 0.992188
vt 0.257812 0.992188
vt 0.257812 0.882812
vt 0.367188 0.882812
vt 0.367188 0.992188
vt 0.257812 0.992188
vt 0.257812 0.882812
vt 0.367188 0.882812
vt 0.367188 0.992188
vt 0.257812 0.992188
vt 0.257812 0.882812
vt 0.367188 0.882812
vt 0.367188 0.992188
vt 0.257812 0.992188
vt 0.257812 0.882812
vt 0.367188 0.882812
vt 0.367188 0.992188
vt 0.257812 0.992188
vt 0.257812 0.882812
vt 0.367188 0.882812
vt 0.367188 0.992188
vt 0.257812 0.992188
vt 0.257812 0.882812
vt 0.367188 0.882812
vt 0.367188 0.992188
vt 0.257812 0.992188
vt 0.257812 0.882812
vt 0.367188 0.882812
vt 0.367188 0.992188
vt 0.257812 0.992188
vt 0.257812 0.882812
vt 0.367188 0.882812
vt 0.367188 0.992188
vt 0.257812 0.992188
vt 0.007812 0.882812
vt 0.117188 0.882812
vt 0.117188 0.992188
vt 0.007812 0.992188
vt 0.007812 0.882812
vt 0.117188 0.882812
vt 0.117188 0.992188
vt 0.007812 0.992188
vt 0.007812 0.882812
vt 0.117188 0.882812
vt 0.117188 0.992188
vt 0.007812 0.992188
vt 0.007812 0.882812
vt 0.117188 0.882812
vt 0.117188 0.992188
vt 0.007812 0.992188
vt 0.007812 0.882812
vt 0.117188 0.882812
vt 0.117188 0.992188
vt 0.007812 0.992188
vt 0.007812 0.882812
vt 0.117188 0.882812
vt 0.117188 0.992188
vt 0.007812 0.992188
vt 0.007812 0.882812
vt 0.117188 0.882812
vt 0.117188 0.992188
vt 0.007812 0.992188
vt 0.007812 0.882812
vt 0.117188 0.882812
vt 0.117188 0.992188
vt 0.007812 0.992188
vt 0.007812 0.882812
vt 0.117188 0.882812
vt 0.117188 0.992188
vt 0.007812 0.992188
vt 0.007812 0.882812
vt 0.117188 0.882812
vt 0.117188 0.992188
vt 0.007812 0.992188
vt 0.007812 0.882812
vt 0.117188 0.882812
vt 0.117188 0.992188
vt 0.007812 0.992188
vt 0.007812 0.882812
vt 0.117188 0.882812
vt 0.117188 0.992188
vt 0.007812 0.992188
vt 0.132812 0.882812
vt 0.242188 0.882812
vt 0.242188 0.992188
vt 0.132812 0.992188
vt 0.132812 0.882812
vt 0.242188 0.882812
vt 0.242188 0.992188
vt 0.132812 0.992188
vt 0.132812 0.882812
vt 0.242188 0.882812
vt 0.242188 0.992188
vt 0.132812 0.992188
vt 0.132812 0.882812
vt 0.242188 0.882812
vt 0.242188 0.992188
vt 0.132812 0.992188
vt 0.132812 0.882812
vt 0.242188 0.882812
vt 0.242188 0.992188
vt 0.132812 0.992188
vt 0.132812 0.882812
vt 0.242188 0.882812
vt 0.242188 0.992188
vt 0.132812 0.992188
vt 0.382812 0.882812
vt 0.492188 0.882812
vt 0.492188 0.992188
vt 0.382812 0.992188
vt 0.382812 0.882812
vt 0.492188 0.882812
vt 0.492188 0.992188
vt 0.382812 0.992188
vt 0.382812 0.882812
vt 0.492188 0.882812
vt 0.492188 0.992188
vt 0.382812 0.992188
vt 0.382812 0.882812
vt 0.492188 0.882812
vt 0.492188 0.992188
vt 0.382812 0.992188
vt 0.382812 0.882812
vt 0.492188 0.882812
vt 0.492188 0.992188
vt 0.382812 0.992188
vt 0.382812 0.882812
vt 0.492188 0.882812
vt 0.492188 0.992188
vt 0.382812 0.992188
vt 0.382812 0.882812
vt 0.492188 0.882812
vt 0.492188 0.992188
vt 0.382812 0.992188
vt 0.382812 0.882812
vt 0.492188 0.882812
vt 0.492188 0.992188
vt 0.382812 0.992188
vt 0.382812 0.882812
vt 0.492188 0.882812
vt 0.492188 0.992188
vt 0.382812 0.992188
vt 0.382812 0.882812
vt 0.492188 0.882812
vt 0.492188 0.992188
vt 0.382812 0.992188
vt 0.382812 0.882812
vt 0.492188 0.882812
vt 0.492188 0.992188
vt 0.382812 0.992188
vt 0.382812 0.882812
vt 0.492188 0.882812
vt 0.492188 0.992188
vt 0.382812 0.992188
vt 0.382812 0.882812
vt 0.492188 0.882812
vt 0.492188 0.992188
vt 0.382812 0.992188
vt 0.382812 0.882812
vt 0.492188 0.882812
vt 0.492188 0.992188
vt 0.382812 0.992188
vt 0.382812 0.882812
vt 0.492188 0.882812
vt 0.492188 0.992188
vt 0.382812 0.992188
vt 0.382812 0.882812
vt 0.492188 0.882812
vt 0.492188 0.992188
vt 0.382812 0.992188
vt 0.382812 0.882812
vt 0.492188 0.882812
vt 0.492188 0.992188
vt 0.382812 0.992188
vt 0.382812 0.882812
vt 0.492188 0.882812
vt 0.492188 0.992188
vt 0.382812 0.992188
vt 0.507812 0.882812
vt 0.617188 0.882812
vt 0.617188 0.992188
vt 0.507812 0.992188
vt 0.507812 0.882812
vt 0.617188 0.882812
vt 0.617188 0.992188
vt 0.507812 0.992188
vt 0.507812 0.882812
vt 0.617188 0.882812
vt 0.617188 0.992188
vt 0.507812 0.992188
vt 0.507812 0.882812
vt 0.617188 0.882812
vt 0.617188 0.992188
vt 0.507812 0.992188
vt 0.507812 0.882812
vt 0.617188 0.882812
vt 0.617188 0.992188
vt 0.507812 0.992188
vt 0.507812 0.882812
vt 0.617188 0.882812
vt 0.617188 0.992188
vt 0.507812 0.992188
vt 0.632812 0.882812
vt 0.742188 0.882812
vt 0.742188 0.992188
vt 0.632812 0.992188
vt 0.632812 0.882812
vt 0.742188 0.882812
vt 0.742188 0.992188
vt 0.632812 0.992188
vt 0.632812 0.882812
vt 0.742188 0.882812
vt 0.742188 0.992188
vt 0.632812 0.992188
vt 0.632812 0.882812
vt 0.742188 0.882812
vt 0.742188 0.992188
vt 0.632812 0.992188
vt 0.632812 0.882812
vt 0.742188 0.882812
vt 0.742188 0.992188
vt 0.632812 0.992188
vt 0.632812 0.882812
vt 0.742188 0.882812
vt 0.742188 0.992188
vt 0.632812 0.992188
vt 0.132812 0.882812
vt 0.242188 0.882812
vt 0.242188 0.992188
vt 0.132812 0.992188
vt 0.132812 0.882812
vt 0.242188 0.882812
vt 0.242188 0.992188
vt 0.132812 0.992188
vt 0.132812 0.882812
vt 0.242188 0.882812
vt 0.242188 0.992188
vt 0.132812 0.992188
vt 0.132812 0.882812
vt 0.242188 0.882812
vt 0.242188 0.992188
vt 0.132812 0.992188
vt 0.132812 0.882812
vt 0.242188 0.882812
vt 0.242188 0.992188
vt 0.132812 0.992188
vt 0.132812 0.882812
vt 0.242188 0.882812
vt 0.242188 0.992188
vt 0.132812 0.992188
vt 0.132812 0.882812
vt 0.242188 0.882812
vt 0.242188 0.992188
vt 0.132812 0.992188
vt 0.132812 0.882812
vt 0.242188 0.882812
vt 0.242188 0.992188
vt 0.132812 0.992188
vt 0.132812 0.882812
vt 0.242188 0.882812
vt 0.242188 0.992188
vt 0.132812 0.992188
vt 0.132812 0.882812
vt 0.242188 0.882812
vt 0.242188 0.992188
vt 0.132812 0.992188
vt 0.132812 0.882812
vt 0.242188 0.882812
vt 0.242188 0.992188
vt 0.132812 0.992188
vt 0.132812 0.882812
vt 0.242188 0.882812
vt 0.242188 0.992188
vt 0.132812 0.992188
vt 0.507812 0.882812
vt 0.617188 0.882812
vt 0.617188 0.992188
vt 0.507812 0.992188
vt 0.507812 0.882812
vt 0.617188 0.882812
vt 0.617188 0.992188
vt 0.507812 0.992188
vt 0.507812 0.882812
vt 0.617188 0.882812
vt 0.617188 0.992188
vt 0.507812 0.992188
vt 0.507812 0.882812
vt 0.617188 0.882812
vt 0.617188 0.992188
vt 0.507812 0.992188
vt 0.507812 0.882812
vt 0.617188 0.882812
vt 0.617188 0.992188
vt 0.507812 0.992188
vt 0.507812 0.882812
vt 0.617188 0.882812
vt 0.617188 0.992188
vt 0.507812 0.992188
vt 0.132812 0.882812
vt 0.242188 0.882812
vt 0.242188 0.992188
vt 0.132812 0.992188
vt 0.132812 0.882812
vt 0.242188 0.882812
vt 0.242188 0.992188
vt 0.132812 0.992188
vt 0.132812 0.882812
vt 0.242188 0.882812
vt 0.242188 0.992188
vt 0.132812 0.992188
vt 0.132812 0.882812
vt 0.242188 0.882812
vt 0.242188 0.992188
vt 0.132812 0.992188
vt 0.132812 0.882812
vt 0.242188 0.882812
vt 0.242188 0.992188
vt 0.132812 0.992188
vt 0.132812 0.882812
vt 0.242188 0.882812
vt 0.242188 0.992188
vt 0.132812 0.992188
vt 0.632812 0.882812
vt 0.742188 0.882812
vt 0.742188 0.992188
vt 0.632812 0.992188
vt 0.632812 0.882812
vt 0.742188 0.882812
vt 0.742188 0.992188
vt 0.632812 0.992188
vt 0.632812 0.882812
vt 0.742188 0.882812
vt 0.742188 0.992188
vt 0.632812 0.992188
vt 0.632812 0.882812
vt 0.742188 0.882812
vt 0.742188 0.992188
vt 0.632812 0.992188
vt 0.632812 0.882812
vt 0.742188 0.882812
vt 0.742188 0.992188
vt 0.632812 0.992188
vt 0.632812 0.882812
vt 0.742188 0.882812
vt 0.742188 0.992188
vt 0.632812 0.992188
vt 0.132812 0.882812
vt 0.242188 0.882812
vt 0.242188 0.992188
vt 0.132812 0.992188
vt 0.132812 0.882812
vt 0.242188 0.882812
vt 0.242188 0.992188
vt 0.132812 0.992188
vt 0.132812 0.882812
vt 0.242188 0.882812
vt 0.242188 0.992188
vt 0.132812 0.992188
vt 0.132812 0.882812
vt 0.242188 0.882812
vt 0.242188 0.992188
vt 0.132812 0.992188
vt 0.132812 0.882812
vt 0.242188 0.882812
vt 0.242188 0.992188
vt 0.132812 0.992188
vt 0.132812 0.882812
vt 0.242188 0.882812
vt 0.242188 0.992188
vt 0.132812 0.992188
f 1/1 4/2 3/3 2/4
f 5/5 6/6 7/7 8/8
f 1/9 2/10 6/11 5/12
f 2/13 3/14 7/15 6/16
f 3/17 4/18 8/19 7/20
f 4/21 1/22 5/23 8/24
f 9/25 12/26 11/27 10/28
f 13/29 14/30 15/31 16/32
f 9/33 10/34 14/35 13/36
f 10/37 11/38 15/39 14/40
f 11/41 12/42 16/43 15/44
f 12/45 9/46 13/47 16/48
f 17/49 20/50 19/51 18/52
f 21/53 22/54 23/55 24/56
f 17/57 18/58 22/59 21/60
f 18/61 19/62 23/63 22/64
f 19/65 20/66 24/67 23/68
f 20/69 17/70 21/71 24/72
f 25/73 28/74 27/75 26/76
f 29/77 30/78 31/79 32/80
f 25/81 26/82 30/83 29/84
f 26/85 27/86 31/87 30/88
f 27/89 28/90 32/91 31/92
f 28/93 25/94 29/95 32/96
f 33/97 36/98 35/99 34/100
f 37/101 38/102 39/103 40/104
f 33/105 34/106 38/107 37/108
f 34/109 35/110 39/111 38/112
f 35/113 36/114 40/115 39/116
f 36/117 33/118 37/119 40/120
f 41/121 44/122 43/123 42/124
f 45/125 46/126 47/127 48/128
f 41/129 42/130 46/131 45/132
f 42/133 43/134 47/135 46/136
f 43/137 44/138 48/139 47/140
f 44/141 41/142 45/143 48/144
f 49/145 52/146 51/147 50/148
f 53/149 54/150 55/151 56/152
f 49/153 50/154 54/155 53/156
f 50/157 51/158 55/159 54/160
f 51/161 52/162 56/163 55/164
f 52/165 49/166 53/167 56/168
f 57/169 60/170 59/171 58/172
f 61/173 62/174 63/175 64/176
f 57/177 58/178 62/179 61/180
f 58/181 59/182 63/183 62/184
f 59/185 60/186 64/187 63/188
f 60/189 57/190 61/191 64/192
f 65/193 68/194 67/195 66/196
f 69/197 70/198 71/199 72/200
f 65/201 66/202 70/203 69/204
f 66/205 67/206 71/207 70/208
f 67/209 68/210 72/211 71/212
f 68/213 65/214 69/215 72/216
f 73/217 76/218 75/219 74/220
f 77/221 78/222 79/223 80/224
f 73/225 74/226 78/227 77/228
f 74/229 75/230 79/231 78/232
f 75/233 76/234 80/235 79/236
f 76/237 73/238 77/239 80/240
f 81/241 84/242 83/243 82/244
f 85/245 86/246 87/247 88/248
f 81/249 82/250 86/251 85/252
f 82/253 83/254 87/255 86/256
f 83/257 84/258 88/259 87/260
f 84/261 81/262 85/263 88/264
f 89/265 92/266 91/267 90/268
f 93/269 94/270 95/271 96/272
f 89/273 90/274 94/275 93/276
f 90/277 91/278 95/279 94/280
f 91/281 92/282 96/283 95/284
f 92/285 89/286 93/287 96/288
f 97/289 100/290 99/291 98/292
f 101/293 102/294 103/295 104/296
f 97/297 98/298 102/299 101/300
f 98/301 99/302 103/303 102/304
f 99/305 100/306 104/307 103/308
f 100/309 97/310 101/311 104/312
f 105/313 108/314 107/315 106/316
f 109/317 110/318 111/319 112/320
f 105/321 106/322 110/323 109/324
f 106/325 107/326 111/327 110/328
f 107/329 108/330 112/331 111/332
f 108/333 105/334 109/335 112/336
f 113/337 116/338 115/339 114/340
f 117/341 118/342 119/343 120/344
f 113/345 114/346 118/347 117/348
f 114/349 115/350 119/351 118/352
f 115/353 116/354 120/355 119/356
f 116/357 113/358 117/359 120/360
f 121/361 124/362 123/363 122/364
f 125/365 126/366 127/367 128/368
f 121/369 122/370 126/371 125/372
f 122/373 123/374 127/375 126/376
f 123/377 124/378 128/379 127/380
f 124/381 121/382 125/383 128/384
f 129/385 132/386 131/387 130/388
f 133/389 134/390 135/391 136/392
f 129/393 130/394 134/395 133/396
f 130/397 131/398 135/399 134/400
f 131/401 132/402 136/403 135/404
f 132/405 129/406 133/407 136/408
f 137/409 140/410 139/411 138/412
f 141/413 142/414 143/415 144/416
f 137/417 138/418 142/419 141/420
f 138/421 139/422 143/423 142/424
f 139/425 140/426 144/427 143/428
f 140/429 137/430 141/431 144/432
f 145/433 148/434 147/435 146/436
f 149/437 150/438 151/439 152/440
f 145/441 146/442 150/443 149/444
f 146/445 147/446 151/447 150/448
f 147/449 148/450 152/451 151/452
f 148/453 145/454 149/455 152/456
f 153/457 156/458 155/459 154/460
f 157/461 158/462 159/463 160/464
f 153/465 154/466 158/467 157/468
f 154/469 155/470 159/471 158/472
f 155/473 156/474 160/475 159/476
f 156/477 153/478 157/479 160/480
f 161/481 164/482 163/483 162/484
f 165/485 166/486 167/487 168/488
f 161/489 162/490 166/491 165/492
f 162/493 163/494 167/495 166/496
f 163/497 164/498 168/499 167/500
f 164/501 161/502 165/503 168/504
f 169/505 172/506 171/507 170/508
f 173/509 174/510 175/511 176/512
f 169/513 170/514 174/515 173/516
f 170/517 171/518 175/519 174/520
f 171/521 172/522 176/523 175/524
f 172/525 169/526 173/527 176/528
f 177/529 180/530 179/531 178/532
f 181/533 182/534 183/535 184/536
f 177/537 178/538 182/539 181/540
f 178/541 179/542 183/543 182/544
f 179/545 180/546 184/547 183/548
f 180/549 177/550 181/551 184/552
f 185/553 188/554 187/555 186/556
f 189/557 190/558 191/559 192/560
f 185/561 186/562 190/563 189/564
f 186/565 187/566 191/567 190/568
f 187/569 188/570 192/571 191/572
f 188/573 185/574 189/575 192/576
f 193/577 196/578 195/579 194/580
f 197/581 198/582 199/583 200/584
f 193/585 194/586 198/587 197/588
f 194/589 195/590 199/591 198/592
f 195/593 196/594 200/595 199/596
f 196/597 193/598 197/599 200/600
f 201/601 204/602 203/603 202/604
f 205/605 206/606 207/607 208/608
f 201/609 202/610 206/611 205/612
f 202/613 203/614 207/615 206/616
f 203/617 204/618 208/619 207/620
f 204/621 201/622 205/623 208/624
f 209/625 212/626 211/627 210/628
f 213/629 214/630 215/631 216/632
f 209/633 210/634 214/635 213/636
f 210/637 211/638 215/639 214/640
f 211/641 212/642 216/643 215/644
f 212/645 209/646 213/647 216/648
f 217/649 220/650 219/651 218/652
f 221/653 222/654 223/655 224/656
f 217/657 218/658 222/659 221/660
f 218/661 219/662 223/663 222/664
f 219/665 220/666 224/667 223/668
f 220/669 217/670 221/671 224/672
f 225/673 228/674 227/675 226/676
f 229/677 230/678 231/679 232/680
f 225/681 226/682 230/683 229/684
f 226/685 227/686 231/687 230/688
f 227/689 228/690 232/691 231/692
f 228/693 225/694 229/695 232/696
f 233/697 236/698 235/699 234/700
f 237/701 238/702 239/703 240/704
f 233/705 234/706 238/707 237/708
f 234/709 235/710 239/711 238/712
f 235/713 236/714 240/715 239/716
f 236/717 233/718 237/719 240/720
f 241/721 244/722 243/723 242/724
f 245/725 246/726 247/727 248/728
f 241/729 242/730 246/731 245/732
f 242/733 243/734 247/735 246/736
f 243/737 244/738 248/739 247/740
f 244/741 241/742 245/743 248/744
f 249/745 252/746 251/747 250/748
f 253/749 254/750 255/751 256/752
f 249/753 250/754 254/755 253/756
f 250/757 251/758 255/759 254/760
f 251/761 252/762 256/763 255/764
f 252/765 249/766 253/767 256/768
f 257/769 260/770 259/771 258/772
f 261/773 262/774 263/775 264/776
f 257/777 258/778 262/779 261/780
f 258/781 259/782 263/783 262/784
f 259/785 260/786 264/787 263/788
f 260/789 257/790 261/791 264/792
f 265/793 268/794 267/795 266/796
f 269/797 270/798 271/799 272/800
f 265/801 266/802 270/803 269/804
f 266/805 267/806 271/807 270/808
f 267/809 268/810 272/811 271/812
f 268/813 265/814 269/815 272/816
f 273/817 276/818 275/819 274/820
f 277/821 278/822 279/823 280/824
f 273/825 274/826 278/827 277/828
f 274/829 275/830 279/831 278/832
f 275/833 276/834 280/835 279/836
f 276/837 273/838 277/839 280/840
f 281/841 284/842 283/843 282/844
f 285/845 286/846 287/847 288/848
f 281/849 282/850 286/851 285/852
f 282/853 283/854 287/855 286/856
f 283/857 284/858 288/859 287/860
f 284/861 281/862 285/863 288/864
f 289/865 292/866 291/867 290/868
f 293/869 294/870 295/871 296/872
f 289/873 290/874 294/875 293/876
f 290/877 291/878 295/879 294/880
f 291/881 292/882 296/883 295/884
f 292/885 289/886 293/887 296/888
f 297/889 300/890 299/891 298/892
f 301/893 302/894 303/895 304/896
f 297/897 298/898 302/899 301/900
f 298/901 299/902 303/903 302/904
f 299/905 300/906 304/907 303/908
f 300/909 297/910 301/911 304/912
f 305/913 308/914 307/915 306/916
f 309/917 310/918 311/919 312/920
f 305/921 306/922 310/923 309/924
f 306/925 307/926 311/927 310/928
f 307/929 308/930 312/931 311/932
f 308/933 305/934 309/935 312/936
f 313/937 316/938 315/939 314/940
f 317/941 318/942 319/943 320/944
f 313/945 314/946 318/947 317/948
f 314/949 315/950 319/951 318/952
f 315/953 316/954 320/955 319/956
f 316/957 313/958 317/959 320/960
f 321/961 324/962 323/963 322/964
f 325/965 326/966 327/967 328/968
f 321/969 322/970 326/971 325/972
f 322/973 323/974 327/975 326/976
f 323/977 324/978 328/979 327/980
f 324/981 321/982 325/983 328/984
f 329/985 332/986 331/987 330/988
f 333/989 334/990 335/991 336/992
f 329/993 330/994 334/995 333/996
f 330/997 331/998 335/999 334/1000
f 331/1001 332/1002 336/1003 335/1004
f 332/1005 329/1006 333/1007 336/1008
f 337/1009 340/1010 339/1011 338/1012
f 341/1013 342/1014 343/1015 344/1016
f 337/1017 338/1018 342/1019 341/1020
f 338/1021 339/1022 343/1023 342/1024
f 339/1025 340/1026 344/1027 343/1028
f 340/1029 337/1030 341/1031 344/1032
f 345/1033 348/1034 347/1035 346/1036
f 349/1037 350/1038 351/1039 352/1040
f 345/1041 346/1042 350/1043 349/1044
f 346/1045 347/1046 351/1047 350/1048
f 347/1049 348/1050 352/1051 351/1052
f 348/1053 345/1054 349/1055 352/1056
f 353/1057 356/1058 355/1059 354/1060
f 357/1061 358/1062 359/1063 360/1064
f 353/1065 354/1066 358/1067 357/1068
f 354/1069 355/1070 359/1071 358/1072
f 355/1073 356/1074 360/1075 359/1076
f 356/1077 353/1078 357/1079 360/1080
f 361/1081 364/1082 363/1083 362/1084
f 365/1085 366/1086 367/1087 368/1088
f 361/1089 362/1090 366/1091 365/1092
f 362/1093 363/1094 367/1095 366/1096
f 363/1097 364/1098 368/1099 367/1100
f 364/1101 361/1102 365/1103 368/1104
f 369/1105 372/1106 371/1107 370/1108
f 373/1109 374/1110 375/1111 376/1112
f 369/1113 370/1114 374/1115 373/1116
f 370/1117 371/1118 375/1119 374/1120
f 371/1121 372/1122 376/1123 375/1124
f 372/1125 369/1126 373/1127 376/1128
f 377/1129 380/1130 379/1131 378/1132
f 381/1133 382/1134 383/1135 384/1136
f 377/1137 378/1138 382/1139 381/1140
f 378/1141 379/1142 383/1143 382/1144
f 379/1145 380/1146 384/1147 383/1148
f 380/1149 377/1150 381/1151 384/1152
f 385/1153 388/1154 387/1155 386/1156
f 389/1157 390/1158 391/1159 392/1160
f 385/1161 386/1162 390/1163 389/1164
f 386/1165 387/1166 391/1167 390/1168
f 387/1169 388/1170 392/1171 391/1172
f 388/1173 385/1174 389/1175 392/1176
f 393/1177 396/1178 395/1179 394/1180
f 397/1181 398/1182 399/1183 400/1184
f 393/1185 394/1186 398/1187 397/1188
f 394/1189 395/1190 399/1191 398/1192
f 395/1193 396/1194 400/1195 399/1196
f 396/1197 393/1198 397/1199 400/1200
f 401/1201 404/1202 403/1203 402/1204
f 405/1205 406/1206 407/1207 408/1208
f 401/1209 402/1210 406/1211 405/1212
f 402/1213 403/1214 407/1215 406/1216
f 403/1217 404/1218 408/1219 407/1220
f 404/1221 401/1222 405/1223 408/1224
f 409/1225 412/1226 411/1227 410/1228
f 413/1229 414/1230 415/1231 416/1232
f 409/1233 410/1234 414/1235 413/1236
f 410/1237 411/1238 415/1239 414/1240
f 411/1241 412/1242 416/1243 415/1244
f 412/1245 409/1246 413/1247 416/1248
f 417/1249 420/1250 419/1251 418/1252
f 421/1253 422/1254 423/1255 424/1256
f 417/1257 418/1258 422/1259 421/1260
f 418/1261 419/1262 423/1263 422/1264
f 419/1265 420/1266 424/1267 423/1268
f 420/1269 417/1270 421/1271 424/1272
f 425/1273 428/1274 427/1275 426/1276
f 429/1277 430/1278 431/1279 432/1280
f 425/1281 426/1282 430/1283 429/1284
f 426/1285 427/1286 431/1287 430/1288
f 427/1289 428/1290 432/1291 431/1292
f 428/1293 425/1294 429/1295 432/1296
f 433/1297 436/1298 435/1299 434/1300
f 437/1301 438/1302 439/1303 440/1304
f 433/1305 434/1306 438/1307 437/1308
f 434/1309 435/1310 439/1311 438/1312
f 435/1313 436/1314 440/1315 439/1316
f 436/1317 433/1318 437/1319 440/1320
f 441/1321 444/1322 443/1323 442/1324
f 445/1325 446/1326 447/1327 448/1328
f 441/1329 442/1330 446/1331 445/1332
f 442/1333 443/1334 447/1335 446/1336
f 443/1337 444/1338 448/1339 447/1340
f 444/1341 441/1342 445/1343 448/1344
f 449/1345 452/1346 451/1347 450/1348
f 453/1349 454/1350 455/1351 456/1352
f 449/1353 450/1354 454/1355 453/1356
f 450/1357 451/1358 455/1359 454/1360
f 451/1361 452/1362 456/1363 455/1364
f 452/1365 449/1366 453/1367 456/1368
f 457/1369 460/1370 459/1371 458/1372
f 461/1373 462/1374 463/1375 464/1376
f 457/1377 458/1378 462/1379 461/1380
f 458/1381 459/1382 463/1383 462/1384
f 459/1385 460/1386 464/1387 463/1388
f 460/1389 457/1390 461/1391 464/1392
f 465/1393 468/1394 467/1395 466/1396
f 469/1397 470/1398 471/1399 472/1400
f 465/1401 466/1402 470/1403 469/1404
f 466/1405 467/1406 471/1407 470/1408
f 467/1409 468/1410 472/1411 471/1412
f 468/1413 465/1414 469/1415 472/1416
f 473/1417 476/1418 475/1419 474/1420
f 477/1421 478/1422 479/1423 480/1424
f 473/1425 474/1426 478/1427 477/1428
f 474/1429 475/1430 479/1431 478/1432
f 475/1433 476/1434 480/1435 479/1436
f 476/1437 473/1438 477/1439 480/1440
f 481/1441 484/1442 483/1443 482/1444
f 485/1445 486/1446 487/1447 488/1448
f 481/1449 482/1450 486/1451 485/1452
f 482/1453 483/1454 487/1455 486/1456
f 483/1457 484/1458 488/1459 487/1460
f 484/1461 481/1462 485/1463 488/1464
f 489/1465 492/1466 491/1467 490/1468
f 493/1469 494/1470 495/1471 496/1472
f 489/1473 490/1474 494/1475 493/1476
f 490/1477 491/1478 495/1479 494/1480
f 491/1481 492/1482 496/1483 495/1484
f 492/1485 489/1486 493/1487 496/1488
f 497/1489 500/1490 499/1491 498/1492
f 501/1493 502/1494 503/1495 504/1496
f 497/1497 498/1498 502/1499 501/1500
f 498/1501 499/1502 503/1503 502/1504
f 499/1505 500/1506 504/1507 503/1508
f 500/1509 497/1510 501/1511 504/1512
f 505/1513 508/1514 507/1515 506/1516
f 509/1517 510/1518 511/1519 512/1520
f 505/1521 506/1522 510/1523 509/1524
f 506/1525 507/1526 511/1527 510/1528
f 507/1529 508/1530 512/1531 511/1532
f 508/1533 505/1534 509/1535 512/1536
f 513/1537 516/1538 515/1539 514/1540
f 517/1541 518/1542 519/1543 520/1544
f 513/1545 514/1546 518/1547 517/1548
f 514/1549 515/1550 519/1551 518/1552
f 515/1553 516/1554 520/1555 519/1556
f 516/1557 513/1558 517/1559 520/1560
f 521/1561 524/1562 523/1563 522/1564
f 525/1565 526/1566 527/1567 528/1568
f 521/1569 522/1570 526/1571 525/1572
f 522/1573 523/1574 527/1575 526/1576
f 523/1577 524/1578 528/1579 527/1580
f 524/1581 521/1582 525/1583 528/1584
f 529/1585 532/1586 531/1587 530/1588
f 533/1589 534/1590 535/1591 536/1592
f 529/1593 530/1594 534/1595 533/1596
f 530/1597 531/1598 535/1599 534/1600
f 531/1601 532/1602 536/1603 535/1604
f 532/1605 529/1606 533/1607 536/1608
f 537/1609 540/1610 539/1611 538/1612
f 541/1613 542/1614 543/1615 544/1616
f 537/1617 538/1618 542/1619 541/1620
f 538/1621 539/1622 543/1623 542/1624
f 539/1625 540/1626 544/1627 543/1628
f 540/1629 537/1630 541/1631 544/1632
f 545/1633 548/1634 547/1635 546/1636
f 549/1637 550/1638 551/1639 552/1640
f 545/1641 546/1642 550/1643 549/1644
f 546/1645 547/1646 551/1647 550/1648
f 547/1649 548/1650 552/1651 551/1652
f 548/1653 545/1654 549/1655 552/1656
f 553/1657 556/1658 555/1659 554/1660
f 557/1661 558/1662 559/1663 560/1664
f 553/1665 554/1666 558/1667 557/1668
f 554/1669 555/1670 559/1671 558/1672
f 555/1673 556/1674 560/1675 559/1676
f 556/1677 553/1678 557/1679 560/1680
f 561/1681 564/1682 563/1683 562/1684
f 565/1685 566/1686 567/1687 568/1688
f 561/1689 562/1690 566/1691 565/1692
f 562/1693 563/1694 567/1695 566/1696
f 563/1697 564/1698 568/1699 567/1700
f 564/1701 561/1702 565/1703 568/1704
f 569/1705 572/1706 571/1707 570/1708
f 573/1709 574/1710 575/1711 576/1712
f 569/1713 570/1714 574/1715 573/1716
f 570/1717 571/1718 575/1719 574/1720
f 571/1721 572/1722 576/1723 575/1724
f 572/1725 569/1726 573/1727 576/1728
f 577/1729 580/1730 579/1731 578/1732
f 581/1733 582/1734 583/1735 584/1736
f 577/1737 578/1738 582/1739 581/1740
f 578/1741 579/1742 583/1743 582/1744
f 579/1745 580/1746 584/1747 583/1748
f 580/1749 577/1750 581/1751 584/1752
f 585/1753 588/1754 587/1755 586/1756
f 589/1757 590/1758 591/1759 592/1760
f 585/1761 586/1762 590/1763 589/1764
f 586/1765 587/1766 591/1767 590/1768
f 587/1769 588/1770 592/1771 591/1772
f 588/1773 585/1774 589/1775 592/1776
f 593/1777 596/1778 595/1779 594/1780
f 597/1781 598/1782 599/1783 600/1784
f 593/1785 594/1786 598/1787 597/1788
f 594/1789 595/1790 599/1791 598/1792
f 595/1793 596/1794 600/1795 599/1796
f 596/1797 593/1798 597/1799 600/1800
f 601/1801 604/1802 603/1803 602/1804
f 605/1805 606/1806 607/1807 608/1808
f 601/1809 602/1810 606/1811 605/1812
f 602/1813 603/1814 607/1815 606/1816
f 603/1817 604/1818 608/1819 607/1820
f 604/1821 601/1822 605/1823 608/1824
f 609/1825 612/1826 611/1827 610/1828
f 613/1829 614/1830 615/1831 616/1832
f 609/1833 610/1834 614/1835 613/1836
f 610/1837 611/1838 615/1839 614/1840
f 611/1841 612/1842 616/1843 615/1844
f 612/1845 609/1846 613/1847 616/1848
f 617/1849 620/1850 619/1851 618/1852
f 621/1853 622/1854 623/1855 624/1856
f 617/1857 618/1858 622/1859 621/1860
f 618/1861 619/1862 623/1863 622/1864
f 619/1865 620/1866 624/1867 623/1868
f 620/1869 617/1870 621/1871 624/1872
f 625/1873 628/1874 627/1875 626/1876
f 629/1877 630/1878 631/1879 632/1880
f 625/1881 626/1882 630/1883 629/1884
f 626/1885 627/1886 631/1887 630/1888
f 627/1889 628/1890 632/1891 631/1892
f 628/1893 625/1894 629/1895 632/1896
f 633/1897 636/1898 635/1899 634/1900
f 637/1901 638/1902 639/1903 640/1904
f 633/1905 634/1906 638/1907 637/1908
f 634/1909 635/1910 639/1911 638/1912
f 635/1913 636/1914 640/1915 639/1916
f 636/1917 633/1918 637/1919 640/1920
f 641/1921 644/1922 643/1923 642/1924
f 645/1925 646/1926 647/1927 648/1928
f 641/1929 642/1930 646/1931 645/1932
f 642/1933 643/1934 647/1935 646/1936
f 643/1937 644/1938 648/1939 647/1940
f 644/1941 641/1942 645/1943 648/1944
f 649/1945 652/1946 651/1947 650/1948
f 653/1949 654/1950 655/1951 656/1952
f 649/1953 650/1954 654/1955 653/1956
f 650/1957 651/1958 655/1959 654/1960
f 651/1961 652/1962 656/1963 655/1964
f 652/1965 649/1966 653/1967 656/1968
f 657/1969 660/1970 659/1971 658/1972
f 661/1973 662/1974 663/1975 664/1976
f 657/1977 658/1978 662/1979 661/1980
f 658/1981 659/1982 663/1983 662/1984
f 659/1985 660/1986 664/1987 663/1988
f 660/1989 657/1990 661/1991 664/1992
f 665/1993 668/1994 667/1995 666/1996
f 669/1997 670/1998 671/1999 672/2000
f 665/2001 666/2002 670/2003 669/2004
f 666/2005 667/2006 671/2007 670/2008
f 667/2009 668/2010 672/2011 671/2012
f 668/2013 665/2014 669/2015 672/2016
f 673/2017 676/2018 675/2019 674/2020
f 677/2021 678/2022 679/2023 680/2024
f 673/2025 674/2026 678/2027 677/2028
f 674/2029 675/2030 679/2031 678/2032
f 675/2033 676/2034 680/2035 679/2036
f 676/2037 673/2038 677/2039 680/2040
f 681/2041 684/2042 683/2043 682/2044
f 685/2045 686/2046 687/2047 688/2048
f 681/2049 682/2050 686/2051 685/2052
f 682/2053 683/2054 687/2055 686/2056
f 683/2057 684/2058 688/2059 687/2060
f 684/2061 681/2062 685/2063 688/2064
f 689/2065 692/2066 691/2067 690/2068
f 693/2069 694/2070 695/2071 696/2072
f 689/2073 690/2074 694/2075 693/2076
f 690/2077 691/2078 695/2079 694/2080
f 691/2081 692/2082 696/2083 695/2084
f 692/2085 689/2086 693/2087 696/2088
f 697/2089 700/2090 699/2091 698/2092
f 701/2093 702/2094 703/2095 704/2096
f 697/2097 698/2098 702/2099 701/2100
f 698/2101 699/2102 703/2103 702/2104
f 699/2105 700/2106 704/2107 703/2108
f 700/2109 697/2110 701/2111 704/2112
f 705/2113 708/2114 707/2115 706/2116
f 709/2117 710/2118 711/2119 712/2120
f 705/2121 706/2122 710/2123 709/2124
f 706/2125 707/2126 711/2127 710/2128
f 707/2129 708/2130 712/2131 711/2132
f 708/2133 705/2134 709/2135 712/2136
f 713/2137 716/2138 715/2139 714/2140
f 717/2141 718/2142 719/2143 720/2144
f 713/2145 714/2146 718/2147 717/2148
f 714/2149 715/2150 719/2151 718/2152
f 715/2153 716/2154 720/2155 719/2156
f 716/2157 713/2158 717/2159 720/2160
f 721/2161 724/2162 723/2163 722/2164
f 725/2165 726/2166 727/2167 728/2168
f 721/2169 722/2170 726/2171 725/2172
f 722/2173 723/2174 727/2175 726/2176
f 723/2177 724/2178 728/2179 727/2180
f 724/2181 721/2182 725/2183 728/2184
f 729/2185 732/2186 731/2187 730/2188
f 733/2189 734/2190 735/2191 736/2192
f 729/2193 730/2194 734/2195 733/2196
f 730/2197 731/2198 735/2199 734/2200
f 731/2201 732/2202 736/2203 735/2204
f 732/2205 729/2206 733/2207 736/2208
f 737/2209 740/2210 739/2211 738/2212
f 741/2213 742/2214 743/2215 744/2216
f 737/2217 738/2218 742/2219 741/2220
f 738/2221 739/2222 743/2223 742/2224
f 739/2225 740/2226 744/2227 743/2228
f 740/2229 737/2230 741/2231 744/2232
f 745/2233 748/2234 747/2235 746/2236
f 749/2237 750/2238 751/2239 752/2240
f 745/2241 746/2242 750/2243 749/2244
f 746/2245 747/2246 751/2247 750/2248
f 747/2249 748/2250 752/2251 751/2252
f 748/2253 745/2254 749/2255 752/2256
f 753/2257 756/2258 755/2259 754/2260
f 757/2261 758/2262 759/2263 760/2264
f 753/2265 754/2266 758/2267 757/2268
f 754/2269 755/2270 759/2271 758/2272
f 755/2273 756/2274 760/2275 759/2276
f 756/2277 753/2278 757/2279 760/2280
f 761/2281 764/2282 763/2283 762/2284
f 765/2285 766/2286 767/2287 768/2288
f 761/2289 762/2290 766/2291 765/2292
f 762/2293 763/2294 767/2295 766/2296
f 763/2297 764/2298 768/2299 767/2300
f 764/2301 761/2302 765/2303 768/2304
f 769/2305 772/2306 771/2307 770/2308
f 773/2309 774/2310 775/2311 776/2312
f 769/2313 770/2314 774/2315 773/2316
f 770/2317 771/2318 775/2319 774/2320
f 771/2321 772/2322 776/2323 775/2324
f 772/2325 769/2326 773/2327 776/2328
f 777/2329 780/2330 779/2331 778/2332
f 781/2333 782/2334 783/2335 784/2336
f 777/2337 778/2338 782/2339 781/2340
f 778/2341 779/2342 783/2343 782/2344
f 779/2345 780/2346 784/2347 783/2348
f 780/2349 777/2350 781/2351 784/2352
f 785/2353 788/2354 787/2355 786/2356
f 789/2357 790/2358 791/2359 792/2360
f 785/2361 786/2362 790/2363 789/2364
f 786/2365 787/2366 791/2367 790/2368
f 787/2369 788/2370 792/2371 791/2372
f 788/2373 785/2374 789/2375 792/2376
f 793/2377 796/2378 795/2379 794/2380
f 797/2381 798/2382 799/2383 800/2384
f 793/2385 794/2386 798/2387 797/2388
f 794/2389 795/2390 799/2391 798/2392
f 795/2393 796/2394 800/2395 799/2396
f 796/2397 793/2398 797/2399 800/2400
f 801/2401 804/2402 803/2403 802/2404
f 805/2405 806/2406 807/2407 808/2408
f 801/2409 802/2410 806/2411 805/2412
f 802/2413 803/2414 807/2415 806/2416
f 803/2417 804/2418 808/2419 807/2420
f 804/2421 801/2422 805/2423 808/2424
f 809/2425 812/2426 811/2427 810/2428
f 813/2429 814/2430 815/2431 816/2432
f 809/2433 810/2434 814/2435 813/2436
f 810/2437 811/2438 815/2439 814/2440
f 811/2441 812/2442 816/2443 815/2444
f 812/2445 809/2446 813/2447 816/2448
