<?xml version="1.0" encoding="UTF-8"?>
<svg id="Layer_1" data-name="Layer 1" xmlns="http://www.w3.org/2000/svg" viewBox="0 0 822.05 812.72">
  <defs>
    <style>
      .cls-1 {
        font-size: 60.18px;
      }

      .cls-1, .cls-2, .cls-3, .cls-4 {
        font-family: GothamPro-Black, 'Gotham Pro';
        font-weight: 800;
      }

      .cls-5 {
        letter-spacing: 0em;
      }

      .cls-6 {
        fill: #fff;
      }

      .cls-7 {
        fill: #00a651;
      }

      .cls-8 {
        letter-spacing: 0em;
      }

      .cls-2 {
        font-size: 53.49px;
      }

      .cls-2, .cls-3, .cls-9, .cls-4 {
        fill: #0d69cf;
      }

      .cls-10 {
        letter-spacing: -.08em;
      }

      .cls-11 {
        letter-spacing: .02em;
      }

      .cls-3 {
        font-size: 45.8px;
      }

      .cls-12 {
        letter-spacing: 0em;
      }

      .cls-13 {
        letter-spacing: 0em;
      }

      .cls-4 {
        font-size: 80.23px;
      }

      .cls-14 {
        letter-spacing: -.05em;
      }

      .cls-15 {
        fill: #ffd54a;
      }

      .cls-16 {
        letter-spacing: .01em;
      }
    </style>
  </defs>
  <text class="cls-1" transform="translate(126.96 215.1) rotate(-52.79)"><tspan x="0" y="0"> </tspan></text>
  <text class="cls-1" transform="translate(136.74 202.21) rotate(-50.13)"><tspan x="0" y="0"> </tspan></text>
  <text class="cls-1" transform="translate(147.12 189.76) rotate(-47.48)"><tspan x="0" y="0"> </tspan></text>
  <text class="cls-1" transform="translate(158.06 177.81) rotate(-44.83)"><tspan x="0" y="0"> </tspan></text>
  <text class="cls-1" transform="translate(169.56 166.37) rotate(-42.18)"><tspan x="0" y="0"> </tspan></text>
  <text class="cls-1" transform="translate(181.55 155.49) rotate(-39.54)"><tspan x="0" y="0"> </tspan></text>
  <text class="cls-1" transform="translate(194.03 145.18) rotate(-36.91)"><tspan x="0" y="0"> </tspan></text>
  <text class="cls-1" transform="translate(206.98 135.43) rotate(-34.26)"><tspan x="0" y="0"> </tspan></text>
  <text class="cls-1" transform="translate(220.36 126.3) rotate(-31.63)"><tspan x="0" y="0"> </tspan></text>
  <text class="cls-1" transform="translate(234.16 117.8) rotate(-28.98)"><tspan x="0" y="0"> </tspan></text>
  <text class="cls-1" transform="translate(248.33 109.93) rotate(-26.34)"><tspan x="0" y="0"> </tspan></text>
  <text class="cls-1" transform="translate(262.84 102.74) rotate(-23.69)"><tspan x="0" y="0"> </tspan></text>
  <text class="cls-1" transform="translate(277.67 96.22) rotate(-21.05)"><tspan x="0" y="0"> </tspan></text>
  <text class="cls-1" transform="translate(292.79 90.39) rotate(-18.4)"><tspan x="0" y="0"> </tspan></text>
  <text class="cls-1" transform="translate(308.15 85.27) rotate(-15.76)"><tspan x="0" y="0"> </tspan></text>
  <text class="cls-1" transform="translate(323.72 80.86) rotate(-13.12)"><tspan x="0" y="0"> </tspan></text>
  <text class="cls-1" transform="translate(339.52 77.17) rotate(-10.48)"><tspan x="0" y="0"> </tspan></text>
  <text class="cls-1" transform="translate(355.46 74.21) rotate(-7.85)"><tspan x="0" y="0"> </tspan></text>
  <text class="cls-1" transform="translate(371.51 71.99) rotate(-5.24)"><tspan x="0" y="0"> </tspan></text>
  <text class="cls-1" transform="translate(387.65 70.5) rotate(-2.64)"><tspan x="0" y="0"> </tspan></text>
  <text class="cls-1" transform="translate(403.77 69.87) rotate(-.92)"><tspan x="0" y="0"> </tspan></text>
  <text class="cls-1" transform="translate(420.06 69.72) rotate(2.51)"><tspan x="0" y="0"> </tspan></text>
  <text class="cls-1" transform="translate(436.24 70.42) rotate(5.1)"><tspan x="0" y="0"> </tspan></text>
  <text class="cls-1" transform="translate(452.37 71.84) rotate(7.72)"><tspan x="0" y="0"> </tspan></text>
  <text class="cls-1" transform="translate(468.44 74.01) rotate(10.34)"><tspan x="0" y="0"> </tspan></text>
  <text class="cls-1" transform="translate(484.38 76.91) rotate(12.98)"><tspan x="0" y="0"> </tspan></text>
  <text class="cls-1" transform="translate(500.17 80.54) rotate(15.62)"><tspan x="0" y="0"> </tspan></text>
  <text class="cls-1" transform="translate(515.79 84.89) rotate(18.27)"><tspan x="0" y="0"> </tspan></text>
  <text class="cls-1" transform="translate(531.15 89.95) rotate(20.91)"><tspan x="0" y="0"> </tspan></text>
  <text class="cls-1" transform="translate(546.29 95.73) rotate(23.56)"><tspan x="0" y="0"> </tspan></text>
  <text class="cls-1" transform="translate(561.15 102.19) rotate(26.2)"><tspan x="0" y="0"> </tspan></text>
  <text class="cls-1" transform="translate(575.69 109.34) rotate(28.85)"><tspan x="0" y="0"> </tspan></text>
  <text class="cls-1" transform="translate(589.88 117.14) rotate(31.49)"><tspan x="0" y="0"> </tspan></text>
  <text class="cls-1" transform="translate(603.71 125.6) rotate(34.13)"><tspan x="0" y="0"> </tspan></text>
  <text class="cls-1" transform="translate(617.14 134.69) rotate(36.77)"><tspan x="0" y="0"> </tspan></text>
  <text class="cls-1" transform="translate(630.11 144.37) rotate(39.41)"><tspan x="0" y="0"> </tspan></text>
  <text class="cls-1" transform="translate(642.63 154.65) rotate(42.05)"><tspan x="0" y="0"> </tspan></text>
  <text class="cls-1" transform="translate(654.68 165.5) rotate(44.69)"><tspan x="0" y="0"> </tspan></text>
  <text class="cls-1" transform="translate(666.19 176.87) rotate(47.34)"><tspan x="0" y="0"> </tspan></text>
  <text class="cls-1" transform="translate(677.18 188.78) rotate(49.99)"><tspan x="0" y="0"> </tspan></text>
  <text class="cls-1" transform="translate(687.61 201.18) rotate(52.65)"><tspan x="0" y="0"> </tspan></text>
  <text class="cls-1" transform="translate(697.44 214.05) rotate(55.32)"><tspan x="0" y="0"> </tspan></text>
  <text class="cls-1" transform="translate(706.67 227.37) rotate(58)"><tspan x="0" y="0"> </tspan></text>
  <text class="cls-1" transform="translate(715.26 241.09) rotate(60.68)"><tspan x="0" y="0"> </tspan></text>
  <text class="cls-1" transform="translate(723.19 255.2) rotate(63.37)"><tspan x="0" y="0"> </tspan></text>
  <text class="cls-1" transform="translate(730.46 269.66) rotate(66.08)"><tspan x="0" y="0"> </tspan></text>
  <text class="cls-1" transform="translate(737.04 284.47) rotate(68.79)"><tspan x="0" y="0"> </tspan></text>
  <text class="cls-1" transform="translate(742.9 299.54) rotate(71.5)"><tspan x="0" y="0"> </tspan></text>
  <text class="cls-1" transform="translate(748.05 314.88) rotate(74.22)"><tspan x="0" y="0"> </tspan></text>
  <text class="cls-1" transform="translate(752.47 330.47) rotate(76.94)"><tspan x="0" y="0"> </tspan></text>
  <text class="cls-1" transform="translate(756.13 346.23) rotate(79.66)"><tspan x="0" y="0"> </tspan></text>
  <text class="cls-1" transform="translate(759.05 362.15) rotate(82.37)"><tspan x="0" y="0"> </tspan></text>
  <text class="cls-1" transform="translate(761.21 378.22) rotate(85.07)"><tspan x="0" y="0"> </tspan></text>
  <text class="cls-1" transform="translate(762.62 394.35) rotate(87.75)"><tspan x="0" y="0"> </tspan></text>
  <text class="cls-1" transform="translate(763.34 410.44) rotate(90.94)"><tspan x="0" y="0"> </tspan></text>
  <text class="cls-1" transform="translate(763.16 426.74) rotate(93.07)"><tspan x="0" y="0"> </tspan></text>
  <text class="cls-1" transform="translate(762.3 442.89) rotate(95.76)"><tspan x="0" y="0"> </tspan></text>
  <text class="cls-1" transform="translate(760.69 459.02) rotate(98.46)"><tspan x="0" y="0"> </tspan></text>
  <text class="cls-1" transform="translate(758.32 475.03) rotate(101.17)"><tspan x="0" y="0"> </tspan></text>
  <text class="cls-1" transform="translate(755.2 490.9) rotate(103.89)"><tspan x="0" y="0"> </tspan></text>
  <text class="cls-1" transform="translate(751.33 506.61) rotate(106.61)"><tspan x="0" y="0"> </tspan></text>
  <text class="cls-1" transform="translate(746.71 522.13) rotate(109.32)"><tspan x="0" y="0"> </tspan></text>
  <text class="cls-1" transform="translate(741.36 537.4) rotate(112.04)"><tspan x="0" y="0"> </tspan></text>
  <text class="cls-1" transform="translate(735.3 552.41) rotate(114.75)"><tspan x="0" y="0"> </tspan></text>
  <text class="cls-1" transform="translate(728.53 567.13) rotate(117.45)"><tspan x="0" y="0"> </tspan></text>
  <text class="cls-1" transform="translate(721.07 581.51) rotate(120.14)"><tspan x="0" y="0"> </tspan></text>
  <text class="cls-1" transform="translate(712.95 595.51) rotate(122.82)"><tspan x="0" y="0"> </tspan></text>
  <text class="cls-1" transform="translate(704.18 609.13) rotate(125.5)"><tspan x="0" y="0"> </tspan></text>
  <text class="cls-1" transform="translate(694.79 622.32) rotate(128.16)"><tspan x="0" y="0"> </tspan></text>
  <text class="cls-1" transform="translate(684.79 635.07) rotate(130.82)"><tspan x="0" y="0"> </tspan></text>
  <text class="cls-1" transform="translate(674.2 647.34) rotate(133.47)"><tspan x="0" y="0"> </tspan></text>
  <text class="cls-1" transform="translate(663.06 659.11) rotate(136.12)"><tspan x="0" y="0"> </tspan></text>
  <text class="cls-1" transform="translate(651.4 670.34) rotate(138.76)"><tspan x="0" y="0"> </tspan></text>
  <text class="cls-1" transform="translate(639.22 681.03) rotate(141.4)"><tspan x="0" y="0"> </tspan></text>
  <text class="cls-1" transform="translate(626.57 691.14) rotate(144.03)"><tspan x="0" y="0"> </tspan></text>
  <text class="cls-1" transform="translate(613.46 700.67) rotate(146.68)"><tspan x="0" y="0"> </tspan></text>
  <text class="cls-1" transform="translate(599.92 709.59) rotate(149.32)"><tspan x="0" y="0"> </tspan></text>
  <text class="cls-1" transform="translate(586.01 717.86) rotate(151.96)"><tspan x="0" y="0"> </tspan></text>
  <text class="cls-1" transform="translate(571.7 725.49) rotate(154.6)"><tspan x="0" y="0"> </tspan></text>
  <text class="cls-1" transform="translate(557.09 732.44) rotate(157.25)"><tspan x="0" y="0"> </tspan></text>
  <text class="cls-1" transform="translate(542.16 738.71) rotate(159.89)"><tspan x="0" y="0"> </tspan></text>
  <text class="cls-1" transform="translate(526.94 744.3) rotate(162.54)"><tspan x="0" y="0"> </tspan></text>
  <text class="cls-1" transform="translate(511.48 749.17) rotate(165.19)"><tspan x="0" y="0"> </tspan></text>
  <text class="cls-1" transform="translate(495.83 753.32) rotate(167.83)"><tspan x="0" y="0"> </tspan></text>
  <ellipse class="cls-15" cx="411.02" cy="406.36" rx="411.02" ry="406.36"/>
  <ellipse class="cls-9" cx="412.58" cy="406.36" rx="322.2" ry="318.55"/>
  <text class="cls-2" transform="translate(131.1 198.72) rotate(-49.71)"><tspan x="0" y="0">С</tspan></text>
  <text class="cls-2" transform="translate(159.55 165.75) rotate(-42.9)"><tspan x="0" y="0">Т</tspan></text>
  <text class="cls-2" transform="translate(188.84 138.73) rotate(-36.08)"><tspan x="0" y="0">У</tspan></text>
  <text class="cls-2" transform="translate(222.18 114.51) rotate(-29.22)"><tspan x="0" y="0">Д</tspan></text>
  <text class="cls-2" transform="translate(262.26 92.59) rotate(-22.22)"><tspan x="0" y="0">Е</tspan></text>
  <text class="cls-2" transform="translate(299.53 77.5) rotate(-15.25)"><tspan x="0" y="0">Н</tspan></text>
  <text class="cls-2" transform="translate(343.25 66.03) rotate(-8.34)"><tspan x="0" y="0">Т</tspan></text>
  <text class="cls-2" transform="translate(381.13 60.55) rotate(-1.89)"><tspan x="0" y="0">С</tspan></text>
  <text class="cls-2" transform="translate(424.72 59.46) rotate(4.8)"><tspan x="0" y="0">Ь</tspan></text>
  <text class="cls-2" transform="translate(465.09 63.02) rotate(11.6)"><tspan x="0" y="0">К</tspan></text>
  <text class="cls-2" transform="translate(507.66 71.94) rotate(18.97)"><tspan x="0" y="0">А</tspan></text>
  <text class="cls-2" transform="translate(552.04 88.13) rotate(24.43)"><tspan x="0" y="0"> </tspan></text>
  <text class="cls-2" transform="translate(570.02 96.02) rotate(29.35)"><tspan x="0" y="0">Р</tspan></text>
  <text class="cls-2" transform="translate(602.18 113.95) rotate(35.88)"><tspan x="0" y="0">А</tspan></text>
  <text class="cls-2" transform="translate(640.04 141.75) rotate(43.42)"><tspan x="0" y="0">Д</tspan></text>
  <text class="cls-2" transform="translate(673 173.27) rotate(50.98)"><tspan x="0" y="0">А</tspan></text>
  <polygon class="cls-7" points="651.12 352.56 437.19 136.06 167.81 410.45 231.91 410.45 437.2 203.71 584.53 353.09 651.12 352.56"/>
  <polygon class="cls-15" points="538.35 352.69 437.25 250.53 232.02 459.46 469.54 459.46 469.01 417.16 341.6 416.1 437.58 317.73 472.16 352.86 538.35 352.69"/>
  <rect class="cls-6" x="468.26" y="369.48" width="139.6" height="31.99" rx="12.48" ry="12.48"/>
  <path class="cls-6" d="M574.25,417.93v53.33h-18.01v-41.04c0-2.3-1.85-4.16-4.17-4.16h-1.97c-2.28,0-4.13,1.86-4.13,4.16v41.04h-16.67v-41.04c0-2.3-1.85-4.16-4.13-4.16h-1.97c-2.32,0-4.17,1.86-4.17,4.16v41.04h-17.38v-53.33h72.59Z"/>
  <path class="cls-6" d="M493.56,412.44h0c0-4.44,3.57-8.04,7.98-8.04l74.02.1c4.41,0,6.19,3.5,6.19,7.94v.19c0,2.16-.86,4.22-2.38,5.73l-2.78,2.76c-1.49,1.48-3.5,2.31-5.6,2.31h-66.24c-1.99,0-3.9-.75-5.37-2.09l-3.21-2.95c-1.66-1.52-2.61-3.68-2.61-5.95Z"/>
  <text class="cls-3" transform="translate(58.9 265.36) rotate(110.24)"><tspan x="0" y="0">В</tspan></text>
  <text class="cls-3" transform="translate(47 297.86) rotate(104.87)"><tspan x="0" y="0">С</tspan></text>
  <text class="cls-3" transform="translate(37.99 332.05) rotate(99.37)"><tspan x="0" y="0">П</tspan></text>
  <text class="cls-3" transform="translate(32.58 367.34) rotate(95.57)"><tspan x="0" y="0"> </tspan></text>
  <text class="cls-3" transform="translate(30.65 381.46) rotate(91.06)"><tspan x="0" y="0">Ф</tspan></text>
  <text class="cls-3" transform="translate(30.29 427.05) rotate(85.43)"><tspan x="0" y="0">а</tspan></text>
  <text class="cls-3" transform="translate(32.66 455.9) rotate(81.04)"><tspan x="0" y="0">х</tspan></text>
  <text class="cls-3" transform="translate(36.74 482.22) rotate(76.72)"><tspan x="0" y="0">о</tspan></text>
  <text class="cls-3" transform="translate(44.13 513.03) rotate(72.02)"><tspan x="0" y="0">в</tspan></text>
  <text class="cls-3" transform="translate(53.27 541.08) rotate(67.38)"><tspan x="0" y="0">и</tspan></text>
  <text class="cls-3" transform="translate(65.26 569.68) rotate(62.64)"><tspan x="0" y="0">й</tspan></text>
  <text class="cls-3" transform="translate(79.53 596.64) rotate(59.27)"><tspan x="0" y="0"> </tspan></text>
  <text class="cls-3" transform="translate(86.44 608.6) rotate(56.05)"><tspan x="0" y="0">к</tspan></text>
  <text class="cls-3" transform="translate(101.9 631.65) rotate(51.69)"><tspan x="0" y="0">о</tspan></text>
  <text class="cls-3" transform="translate(120.96 655.71) rotate(47.15)"><tspan x="0" y="0">л</tspan></text>
  <text class="cls-3" transform="translate(141.97 678.23) rotate(42.67)"><tspan x="0" y="0">е</tspan></text>
  <text class="cls-3" transform="translate(163.51 698.06) rotate(38.15)"><tspan x="0" y="0">д</tspan></text>
  <text class="cls-3" transform="translate(188.46 717.9) rotate(32.52)"><tspan x="0" y="0">ж</tspan></text>
  <text class="cls-3" transform="translate(225.32 740.69) rotate(28.24)"><tspan x="0" y="0"> </tspan></text>
  <text class="cls-3" transform="translate(237.4 747.43) rotate(24.88)"><tspan x="0" y="0">б</tspan></text>
  <text class="cls-3" transform="translate(264.8 760.1) rotate(20.48)"><tspan x="0" y="0">у</tspan></text>
  <text class="cls-3" transform="translate(291.8 770.21) rotate(16.09)"><tspan x="0" y="0">д</tspan></text>
  <text class="cls-3" transform="translate(321.76 778.56) rotate(12.67)"><tspan x="0" y="0">і</tspan></text>
  <text class="cls-3" transform="translate(336.22 781.98) rotate(9.41)"><tspan x="0" y="0">в</tspan></text>
  <text class="cls-3" transform="translate(365.25 786.76) rotate(4.98)"><tspan x="0" y="0">н</tspan></text>
  <text class="cls-3" transform="translate(395.77 789.26) rotate(.92)"><tspan x="0" y="0">и</tspan></text>
  <text class="cls-3" transform="translate(426.82 789.58) rotate(-4)"><tspan x="0" y="0">ц</tspan></text>
  <text class="cls-3" transform="translate(457.6 787.28) rotate(-8.15)"><tspan x="0" y="0">т</tspan></text>
  <text class="cls-3" transform="translate(482.82 783.68) rotate(-12.2)"><tspan x="0" y="0">в</tspan></text>
  <text class="cls-3" transform="translate(511.53 777.41) rotate(-16.54)"><tspan x="0" y="0">а</tspan></text>
  <text class="cls-3" transform="translate(538.82 769.06) rotate(-19.72)"><tspan x="0" y="0">,</tspan></text>
  <text class="cls-3" transform="translate(551.7 764.43) rotate(-21.74)"><tspan x="0" y="0"> </tspan></text>
  <text class="cls-3" transform="translate(564.57 759.48) rotate(-24.9)"><tspan x="0" y="0">а</tspan></text>
  <text class="cls-3" transform="translate(590.91 747.26) rotate(-29.49)"><tspan x="0" y="0">р</tspan></text>
  <text class="cls-3" transform="translate(617.53 732.14) rotate(-33.74)"><tspan x="0" y="0">х</tspan></text>
  <text class="cls-3" transform="translate(640.74 716.38) rotate(-36.94)"><tspan x="0" y="0">і</tspan></text>
  <text class="cls-3" transform="translate(652.6 707.6) rotate(-39.9)"><tspan x="0" y="0">т</tspan></text>
  <text class="cls-3" transform="translate(671.46 691.88) rotate(-43.83)"><tspan x="0" y="0">е</tspan></text>
  <text class="cls-3" transform="translate(692.49 671.62) rotate(-48.19)"><tspan x="0" y="0">к</tspan></text>
  <text class="cls-3" transform="translate(711.77 649.9) rotate(-52.28)"><tspan x="0" y="0">т</tspan></text>
  <text class="cls-3" transform="translate(727.43 629.7) rotate(-56.47)"><tspan x="0" y="0">у</tspan></text>
  <text class="cls-3" transform="translate(744.16 604.42) rotate(-61.24)"><tspan x="0" y="0">р</tspan></text>
  <text class="cls-3" transform="translate(759.78 575.75) rotate(-66.09)"><tspan x="0" y="0">и</tspan></text>
  <text class="cls-3" transform="translate(771.89 547.74) rotate(-69.49)"><tspan x="0" y="0"> </tspan></text>
  <text class="cls-3" transform="translate(776.81 534.93) rotate(-72.47)"><tspan x="0" y="0">т</tspan></text>
  <text class="cls-3" transform="translate(784.25 511.5) rotate(-76.51)"><tspan x="0" y="0">а</tspan></text>
  <text class="cls-3" transform="translate(790.68 483.68) rotate(-79.77)"><tspan x="0" y="0"> </tspan></text>
  <text class="cls-3" transform="translate(793.36 470.05) rotate(-83.21)"><tspan x="0" y="0">д</tspan></text>
  <text class="cls-3" transform="translate(797.01 438.73) rotate(-87.95)"><tspan x="0" y="0">и</tspan></text>
  <text class="cls-3" transform="translate(797.98 408.11) rotate(-92.22)"><tspan x="0" y="0">з</tspan></text>
  <text class="cls-3" transform="translate(796.95 381.82) rotate(-96.41)"><tspan x="0" y="0">а</tspan></text>
  <text class="cls-3" transform="translate(793.69 352.97) rotate(-101)"><tspan x="0" y="0">й</tspan></text>
  <text class="cls-3" transform="translate(787.7 322.55) rotate(-105.75)"><tspan x="0" y="0">н</tspan></text>
  <text class="cls-3" transform="translate(779.25 292.87) rotate(-110.45)"><tspan x="0" y="0">у</tspan></text>
  <rect class="cls-6" x="165.18" y="471.11" width="491.24" height="94.77" rx="35.76" ry="35.76"/>
  <text class="cls-4" transform="translate(175.78 545.95)"><tspan class="cls-13" x="0" y="0">С</tspan><tspan class="cls-16" x="58.27" y="0">Т</tspan><tspan class="cls-14" x="112.15" y="0">У</tspan><tspan class="cls-5" x="166.89" y="0">Д</tspan><tspan class="cls-10" x="228.29" y="0">Р</tspan><tspan class="cls-11" x="276.16" y="0">А</tspan><tspan class="cls-12" x="341.23" y="0">Д</tspan><tspan class="cls-8" x="403.58" y="0">А</tspan></text>
  <g>
    <path class="cls-6" d="M729.55,190.52l7.23,19.53c1.39,3.76,4.36,6.73,8.12,8.12l19.53,7.23-19.53,7.23c-3.76,1.39-6.73,4.36-8.12,8.12l-7.23,19.53-7.23-19.55c-1.39-3.75-4.34-6.71-8.09-8.09l-19.55-7.23,19.53-7.23c3.76-1.39,6.73-4.36,8.12-8.12l7.23-19.53Z"/>
    <path class="cls-6" d="M96.11,191.06l-7.23,19.53c-1.39,3.76-4.36,6.73-8.12,8.12l-19.53,7.23,19.53,7.23c3.76,1.39,6.73,4.36,8.12,8.12l7.23,19.53,7.23-19.55c1.39-3.75,4.34-6.71,8.09-8.09l19.55-7.23-19.53-7.23c-3.76-1.39-6.73-4.36-8.12-8.12l-7.23-19.53Z"/>
  </g>
</svg>